<ttFont>
    <TTGlyph name=".notdef" xMin="50" yMin="-260" xMax="575" yMax="970">
      <contour>
        <pt x="50" y="970" on="1"/>
        <pt x="575" y="970" on="1"/>
        <pt x="575" y="-260" on="1"/>
        <pt x="50" y="-260" on="1"/>
      </contour>
      <contour>
        <pt x="485" y="-178" on="1"/>
        <pt x="485" y="779" on="1"/>
        <pt x="174" y="-178" on="1"/>
      </contour>
      <contour>
        <pt x="140" y="-70" on="1"/>
        <pt x="450" y="887" on="1"/>
        <pt x="140" y="887" on="1"/>
      </contour>
    </TTGlyph>
    <TTGlyph name="A" xMin="-20" yMin="0" xMax="805" yMax="790">
      <contour>
        <pt x="442" y="222" on="1"/>
        <pt x="217" y="222" on="1"/>
        <pt x="188" y="146" on="1"/>
        <pt x="177" y="116" on="0"/>
        <pt x="177" y="99" on="1"/>
        <pt x="177" y="73" on="0"/>
        <pt x="227" y="46" on="0"/>
        <pt x="290" y="37" on="1"/>
        <pt x="290" y="0" on="1"/>
        <pt x="-20" y="0" on="1"/>
        <pt x="-20" y="37" on="1"/>
        <pt x="15" y="43" on="0"/>
        <pt x="58" y="56" on="0"/>
        <pt x="87" y="80" on="0"/>
        <pt x="107" y="118" on="0"/>
        <pt x="119" y="148" on="1"/>
        <pt x="308" y="630" on="1"/>
        <pt x="262" y="733" on="1"/>
        <pt x="411" y="790" on="1"/>
        <pt x="697" y="98" on="1"/>
        <pt x="704" y="81" on="0"/>
        <pt x="719" y="59" on="0"/>
        <pt x="742" y="45" on="0"/>
        <pt x="778" y="39" on="0"/>
        <pt x="805" y="37" on="1"/>
        <pt x="805" y="0" on="1"/>
        <pt x="393" y="0" on="1"/>
        <pt x="393" y="37" on="1"/>
        <pt x="448" y="39" on="0"/>
        <pt x="491" y="54" on="0"/>
        <pt x="491" y="74" on="1"/>
        <pt x="491" y="90" on="0"/>
        <pt x="482" y="114" on="1"/>
      </contour>
      <contour>
        <pt x="330" y="516" on="1"/>
        <pt x="239" y="279" on="1"/>
        <pt x="421" y="279" on="1"/>
        <pt x="334" y="516" on="1"/>
      </contour>
    </TTGlyph>
    <TTGlyph name="AE" xMin="-27" yMin="0" xMax="1053" yMax="770">
      <contour>
        <pt x="-27" y="37" on="1"/>
        <pt x="11" y="43" on="0"/>
        <pt x="62" y="57" on="0"/>
        <pt x="99" y="82" on="0"/>
        <pt x="127" y="119" on="0"/>
        <pt x="142" y="148" on="1"/>
        <pt x="446" y="725" on="1"/>
        <pt x="384" y="743" on="1"/>
        <pt x="384" y="770" on="1"/>
        <pt x="1016" y="770" on="1"/>
        <pt x="1035" y="550" on="1"/>
        <pt x="993" y="550" on="1"/>
        <pt x="981" y="590" on="0"/>
        <pt x="942" y="674" on="0"/>
        <pt x="916" y="713" on="1"/>
        <pt x="661" y="713" on="1"/>
        <pt x="661" y="434" on="1"/>
        <pt x="787" y="434" on="1"/>
        <pt x="820" y="489" on="0"/>
        <pt x="830" y="547" on="1"/>
        <pt x="872" y="547" on="1"/>
        <pt x="872" y="267" on="1"/>
        <pt x="830" y="267" on="1"/>
        <pt x="820" y="325" on="0"/>
        <pt x="787" y="380" on="1"/>
        <pt x="661" y="380" on="1"/>
        <pt x="661" y="57" on="1"/>
        <pt x="910" y="57" on="1"/>
        <pt x="942" y="102" on="0"/>
        <pt x="984" y="185" on="0"/>
        <pt x="1001" y="234" on="1"/>
        <pt x="1053" y="234" on="1"/>
        <pt x="1011" y="0" on="1"/>
        <pt x="404" y="0" on="1"/>
        <pt x="404" y="37" on="1"/>
        <pt x="489" y="56" on="1"/>
        <pt x="489" y="288" on="1"/>
        <pt x="288" y="288" on="1"/>
        <pt x="215" y="146" on="1"/>
        <pt x="206" y="128" on="0"/>
        <pt x="195" y="99" on="0"/>
        <pt x="195" y="88" on="1"/>
        <pt x="195" y="67" on="0"/>
        <pt x="231" y="43" on="0"/>
        <pt x="272" y="37" on="1"/>
        <pt x="272" y="0" on="1"/>
        <pt x="-27" y="0" on="1"/>
      </contour>
      <contour>
        <pt x="489" y="342" on="1"/>
        <pt x="489" y="667" on="1"/>
        <pt x="485" y="667" on="1"/>
        <pt x="316" y="342" on="1"/>
      </contour>
    </TTGlyph>
    <TTGlyph name="AEacute" xMin="-27" yMin="0" xMax="1053" yMax="963">
      <contour>
        <pt x="-27" y="37" on="1"/>
        <pt x="11" y="43" on="0"/>
        <pt x="62" y="57" on="0"/>
        <pt x="99" y="82" on="0"/>
        <pt x="127" y="119" on="0"/>
        <pt x="142" y="148" on="1"/>
        <pt x="446" y="725" on="1"/>
        <pt x="384" y="743" on="1"/>
        <pt x="384" y="770" on="1"/>
        <pt x="1016" y="770" on="1"/>
        <pt x="1035" y="550" on="1"/>
        <pt x="993" y="550" on="1"/>
        <pt x="981" y="590" on="0"/>
        <pt x="942" y="674" on="0"/>
        <pt x="916" y="713" on="1"/>
        <pt x="661" y="713" on="1"/>
        <pt x="661" y="434" on="1"/>
        <pt x="787" y="434" on="1"/>
        <pt x="820" y="489" on="0"/>
        <pt x="830" y="547" on="1"/>
        <pt x="872" y="547" on="1"/>
        <pt x="872" y="267" on="1"/>
        <pt x="830" y="267" on="1"/>
        <pt x="820" y="325" on="0"/>
        <pt x="787" y="380" on="1"/>
        <pt x="661" y="380" on="1"/>
        <pt x="661" y="57" on="1"/>
        <pt x="910" y="57" on="1"/>
        <pt x="942" y="102" on="0"/>
        <pt x="984" y="185" on="0"/>
        <pt x="1001" y="234" on="1"/>
        <pt x="1053" y="234" on="1"/>
        <pt x="1011" y="0" on="1"/>
        <pt x="404" y="0" on="1"/>
        <pt x="404" y="37" on="1"/>
        <pt x="489" y="56" on="1"/>
        <pt x="489" y="288" on="1"/>
        <pt x="288" y="288" on="1"/>
        <pt x="215" y="146" on="1"/>
        <pt x="206" y="128" on="0"/>
        <pt x="195" y="99" on="0"/>
        <pt x="195" y="88" on="1"/>
        <pt x="195" y="67" on="0"/>
        <pt x="231" y="43" on="0"/>
        <pt x="272" y="37" on="1"/>
        <pt x="272" y="0" on="1"/>
        <pt x="-27" y="0" on="1"/>
      </contour>
      <contour>
        <pt x="489" y="342" on="1"/>
        <pt x="489" y="667" on="1"/>
        <pt x="485" y="667" on="1"/>
        <pt x="316" y="342" on="1"/>
      </contour>
      <contour>
        <pt x="542" y="845" on="1"/>
        <pt x="667" y="939" on="1"/>
        <pt x="684" y="952" on="0"/>
        <pt x="715" y="963" on="0"/>
        <pt x="728" y="963" on="1"/>
        <pt x="754" y="963" on="0"/>
        <pt x="783" y="930" on="0"/>
        <pt x="783" y="909" on="1"/>
        <pt x="783" y="890" on="0"/>
        <pt x="756" y="855" on="0"/>
        <pt x="724" y="849" on="1"/>
        <pt x="559" y="817" on="1"/>
      </contour>
    </TTGlyph>
    <TTGlyph name="Aacute" xMin="-20" yMin="0" xMax="805" yMax="963">
      <contour>
        <pt x="442" y="222" on="1"/>
        <pt x="217" y="222" on="1"/>
        <pt x="188" y="146" on="1"/>
        <pt x="177" y="116" on="0"/>
        <pt x="177" y="99" on="1"/>
        <pt x="177" y="73" on="0"/>
        <pt x="227" y="46" on="0"/>
        <pt x="290" y="37" on="1"/>
        <pt x="290" y="0" on="1"/>
        <pt x="-20" y="0" on="1"/>
        <pt x="-20" y="37" on="1"/>
        <pt x="15" y="43" on="0"/>
        <pt x="58" y="56" on="0"/>
        <pt x="87" y="80" on="0"/>
        <pt x="107" y="118" on="0"/>
        <pt x="119" y="148" on="1"/>
        <pt x="308" y="630" on="1"/>
        <pt x="262" y="733" on="1"/>
        <pt x="411" y="790" on="1"/>
        <pt x="697" y="98" on="1"/>
        <pt x="704" y="81" on="0"/>
        <pt x="719" y="59" on="0"/>
        <pt x="742" y="45" on="0"/>
        <pt x="778" y="39" on="0"/>
        <pt x="805" y="37" on="1"/>
        <pt x="805" y="0" on="1"/>
        <pt x="393" y="0" on="1"/>
        <pt x="393" y="37" on="1"/>
        <pt x="448" y="39" on="0"/>
        <pt x="491" y="54" on="0"/>
        <pt x="491" y="74" on="1"/>
        <pt x="491" y="90" on="0"/>
        <pt x="482" y="114" on="1"/>
      </contour>
      <contour>
        <pt x="330" y="516" on="1"/>
        <pt x="239" y="279" on="1"/>
        <pt x="421" y="279" on="1"/>
        <pt x="334" y="516" on="1"/>
      </contour>
      <contour>
        <pt x="232" y="845" on="1"/>
        <pt x="357" y="939" on="1"/>
        <pt x="374" y="952" on="0"/>
        <pt x="405" y="963" on="0"/>
        <pt x="418" y="963" on="1"/>
        <pt x="444" y="963" on="0"/>
        <pt x="473" y="930" on="0"/>
        <pt x="473" y="909" on="1"/>
        <pt x="473" y="890" on="0"/>
        <pt x="446" y="855" on="0"/>
        <pt x="414" y="849" on="1"/>
        <pt x="249" y="817" on="1"/>
      </contour>
    </TTGlyph>
    <TTGlyph name="Abreve" xMin="-20" yMin="0" xMax="805" yMax="965">
      <contour>
        <pt x="442" y="222" on="1"/>
        <pt x="217" y="222" on="1"/>
        <pt x="188" y="146" on="1"/>
        <pt x="177" y="116" on="0"/>
        <pt x="177" y="99" on="1"/>
        <pt x="177" y="73" on="0"/>
        <pt x="227" y="46" on="0"/>
        <pt x="290" y="37" on="1"/>
        <pt x="290" y="0" on="1"/>
        <pt x="-20" y="0" on="1"/>
        <pt x="-20" y="37" on="1"/>
        <pt x="15" y="43" on="0"/>
        <pt x="58" y="56" on="0"/>
        <pt x="87" y="80" on="0"/>
        <pt x="107" y="118" on="0"/>
        <pt x="119" y="148" on="1"/>
        <pt x="308" y="630" on="1"/>
        <pt x="262" y="733" on="1"/>
        <pt x="411" y="790" on="1"/>
        <pt x="697" y="98" on="1"/>
        <pt x="704" y="81" on="0"/>
        <pt x="719" y="59" on="0"/>
        <pt x="742" y="45" on="0"/>
        <pt x="778" y="39" on="0"/>
        <pt x="805" y="37" on="1"/>
        <pt x="805" y="0" on="1"/>
        <pt x="393" y="0" on="1"/>
        <pt x="393" y="37" on="1"/>
        <pt x="448" y="39" on="0"/>
        <pt x="491" y="54" on="0"/>
        <pt x="491" y="74" on="1"/>
        <pt x="491" y="90" on="0"/>
        <pt x="482" y="114" on="1"/>
      </contour>
      <contour>
        <pt x="330" y="516" on="1"/>
        <pt x="239" y="279" on="1"/>
        <pt x="421" y="279" on="1"/>
        <pt x="334" y="516" on="1"/>
      </contour>
      <contour>
        <pt x="251" y="965" on="1"/>
        <pt x="263" y="948" on="0"/>
        <pt x="319" y="933" on="0"/>
        <pt x="352" y="933" on="1"/>
        <pt x="384" y="933" on="0"/>
        <pt x="439" y="948" on="0"/>
        <pt x="456" y="965" on="1"/>
        <pt x="505" y="965" on="1"/>
        <pt x="492" y="919" on="0"/>
        <pt x="453" y="865" on="0"/>
        <pt x="409" y="837" on="0"/>
        <pt x="365" y="829" on="0"/>
        <pt x="348" y="829" on="1"/>
        <pt x="325" y="829" on="0"/>
        <pt x="276" y="843" on="0"/>
        <pt x="235" y="875" on="0"/>
        <pt x="205" y="927" on="0"/>
        <pt x="201" y="965" on="1"/>
      </contour>
    </TTGlyph>
    <TTGlyph name="Acircumflex" xMin="-20" yMin="0" xMax="805" yMax="960">
      <contour>
        <pt x="442" y="222" on="1"/>
        <pt x="217" y="222" on="1"/>
        <pt x="188" y="146" on="1"/>
        <pt x="177" y="116" on="0"/>
        <pt x="177" y="99" on="1"/>
        <pt x="177" y="73" on="0"/>
        <pt x="227" y="46" on="0"/>
        <pt x="290" y="37" on="1"/>
        <pt x="290" y="0" on="1"/>
        <pt x="-20" y="0" on="1"/>
        <pt x="-20" y="37" on="1"/>
        <pt x="15" y="43" on="0"/>
        <pt x="58" y="56" on="0"/>
        <pt x="87" y="80" on="0"/>
        <pt x="107" y="118" on="0"/>
        <pt x="119" y="148" on="1"/>
        <pt x="308" y="630" on="1"/>
        <pt x="262" y="733" on="1"/>
        <pt x="411" y="790" on="1"/>
        <pt x="697" y="98" on="1"/>
        <pt x="704" y="81" on="0"/>
        <pt x="719" y="59" on="0"/>
        <pt x="742" y="45" on="0"/>
        <pt x="778" y="39" on="0"/>
        <pt x="805" y="37" on="1"/>
        <pt x="805" y="0" on="1"/>
        <pt x="393" y="0" on="1"/>
        <pt x="393" y="37" on="1"/>
        <pt x="448" y="39" on="0"/>
        <pt x="491" y="54" on="0"/>
        <pt x="491" y="74" on="1"/>
        <pt x="491" y="90" on="0"/>
        <pt x="482" y="114" on="1"/>
      </contour>
      <contour>
        <pt x="330" y="516" on="1"/>
        <pt x="239" y="279" on="1"/>
        <pt x="421" y="279" on="1"/>
        <pt x="334" y="516" on="1"/>
      </contour>
      <contour>
        <pt x="352" y="960" on="1"/>
        <pt x="369" y="960" on="0"/>
        <pt x="400" y="944" on="0"/>
        <pt x="420" y="927" on="1"/>
        <pt x="524" y="843" on="1"/>
        <pt x="508" y="821" on="1"/>
        <pt x="351" y="862" on="1"/>
        <pt x="194" y="821" on="1"/>
        <pt x="178" y="843" on="1"/>
        <pt x="280" y="927" on="1"/>
        <pt x="300" y="944" on="0"/>
        <pt x="332" y="960" on="0"/>
      </contour>
    </TTGlyph>
    <TTGlyph name="Adieresis" xMin="-20" yMin="0" xMax="805" yMax="965">
      <contour>
        <pt x="442" y="222" on="1"/>
        <pt x="217" y="222" on="1"/>
        <pt x="188" y="146" on="1"/>
        <pt x="177" y="116" on="0"/>
        <pt x="177" y="99" on="1"/>
        <pt x="177" y="73" on="0"/>
        <pt x="227" y="46" on="0"/>
        <pt x="290" y="37" on="1"/>
        <pt x="290" y="0" on="1"/>
        <pt x="-20" y="0" on="1"/>
        <pt x="-20" y="37" on="1"/>
        <pt x="15" y="43" on="0"/>
        <pt x="58" y="56" on="0"/>
        <pt x="87" y="80" on="0"/>
        <pt x="107" y="118" on="0"/>
        <pt x="119" y="148" on="1"/>
        <pt x="308" y="630" on="1"/>
        <pt x="262" y="733" on="1"/>
        <pt x="411" y="790" on="1"/>
        <pt x="697" y="98" on="1"/>
        <pt x="704" y="81" on="0"/>
        <pt x="719" y="59" on="0"/>
        <pt x="742" y="45" on="0"/>
        <pt x="778" y="39" on="0"/>
        <pt x="805" y="37" on="1"/>
        <pt x="805" y="0" on="1"/>
        <pt x="393" y="0" on="1"/>
        <pt x="393" y="37" on="1"/>
        <pt x="448" y="39" on="0"/>
        <pt x="491" y="54" on="0"/>
        <pt x="491" y="74" on="1"/>
        <pt x="491" y="90" on="0"/>
        <pt x="482" y="114" on="1"/>
      </contour>
      <contour>
        <pt x="330" y="516" on="1"/>
        <pt x="239" y="279" on="1"/>
        <pt x="421" y="279" on="1"/>
        <pt x="334" y="516" on="1"/>
      </contour>
      <contour>
        <pt x="186" y="896" on="1"/>
        <pt x="186" y="923" on="0"/>
        <pt x="223" y="965" on="0"/>
        <pt x="257" y="965" on="1"/>
        <pt x="291" y="965" on="0"/>
        <pt x="330" y="923" on="0"/>
        <pt x="330" y="896" on="1"/>
        <pt x="330" y="872" on="0"/>
        <pt x="293" y="829" on="0"/>
        <pt x="257" y="829" on="1"/>
        <pt x="222" y="829" on="0"/>
        <pt x="186" y="872" on="0"/>
      </contour>
      <contour>
        <pt x="393" y="896" on="1"/>
        <pt x="393" y="923" on="0"/>
        <pt x="430" y="965" on="0"/>
        <pt x="464" y="965" on="1"/>
        <pt x="498" y="965" on="0"/>
        <pt x="537" y="923" on="0"/>
        <pt x="537" y="896" on="1"/>
        <pt x="537" y="872" on="0"/>
        <pt x="501" y="829" on="0"/>
        <pt x="464" y="829" on="1"/>
        <pt x="429" y="829" on="0"/>
        <pt x="393" y="872" on="0"/>
      </contour>
    </TTGlyph>
    <TTGlyph name="Agrave" xMin="-20" yMin="0" xMax="805" yMax="963">
      <contour>
        <pt x="442" y="222" on="1"/>
        <pt x="217" y="222" on="1"/>
        <pt x="188" y="146" on="1"/>
        <pt x="177" y="116" on="0"/>
        <pt x="177" y="99" on="1"/>
        <pt x="177" y="73" on="0"/>
        <pt x="227" y="46" on="0"/>
        <pt x="290" y="37" on="1"/>
        <pt x="290" y="0" on="1"/>
        <pt x="-20" y="0" on="1"/>
        <pt x="-20" y="37" on="1"/>
        <pt x="15" y="43" on="0"/>
        <pt x="58" y="56" on="0"/>
        <pt x="87" y="80" on="0"/>
        <pt x="107" y="118" on="0"/>
        <pt x="119" y="148" on="1"/>
        <pt x="308" y="630" on="1"/>
        <pt x="262" y="733" on="1"/>
        <pt x="411" y="790" on="1"/>
        <pt x="697" y="98" on="1"/>
        <pt x="704" y="81" on="0"/>
        <pt x="719" y="59" on="0"/>
        <pt x="742" y="45" on="0"/>
        <pt x="778" y="39" on="0"/>
        <pt x="805" y="37" on="1"/>
        <pt x="805" y="0" on="1"/>
        <pt x="393" y="0" on="1"/>
        <pt x="393" y="37" on="1"/>
        <pt x="448" y="39" on="0"/>
        <pt x="491" y="54" on="0"/>
        <pt x="491" y="74" on="1"/>
        <pt x="491" y="90" on="0"/>
        <pt x="482" y="114" on="1"/>
      </contour>
      <contour>
        <pt x="330" y="516" on="1"/>
        <pt x="239" y="279" on="1"/>
        <pt x="421" y="279" on="1"/>
        <pt x="334" y="516" on="1"/>
      </contour>
      <contour>
        <pt x="445" y="817" on="1"/>
        <pt x="280" y="849" on="1"/>
        <pt x="248" y="855" on="0"/>
        <pt x="221" y="890" on="0"/>
        <pt x="221" y="909" on="1"/>
        <pt x="221" y="930" on="0"/>
        <pt x="250" y="963" on="0"/>
        <pt x="276" y="963" on="1"/>
        <pt x="289" y="963" on="0"/>
        <pt x="320" y="952" on="0"/>
        <pt x="337" y="939" on="1"/>
        <pt x="462" y="845" on="1"/>
      </contour>
    </TTGlyph>
    <TTGlyph name="Amacron" xMin="-20" yMin="0" xMax="805" yMax="960">
      <contour>
        <pt x="442" y="222" on="1"/>
        <pt x="217" y="222" on="1"/>
        <pt x="188" y="146" on="1"/>
        <pt x="177" y="116" on="0"/>
        <pt x="177" y="99" on="1"/>
        <pt x="177" y="73" on="0"/>
        <pt x="227" y="46" on="0"/>
        <pt x="290" y="37" on="1"/>
        <pt x="290" y="0" on="1"/>
        <pt x="-20" y="0" on="1"/>
        <pt x="-20" y="37" on="1"/>
        <pt x="15" y="43" on="0"/>
        <pt x="58" y="56" on="0"/>
        <pt x="87" y="80" on="0"/>
        <pt x="107" y="118" on="0"/>
        <pt x="119" y="148" on="1"/>
        <pt x="308" y="630" on="1"/>
        <pt x="262" y="733" on="1"/>
        <pt x="411" y="790" on="1"/>
        <pt x="697" y="98" on="1"/>
        <pt x="704" y="81" on="0"/>
        <pt x="719" y="59" on="0"/>
        <pt x="742" y="45" on="0"/>
        <pt x="778" y="39" on="0"/>
        <pt x="805" y="37" on="1"/>
        <pt x="805" y="0" on="1"/>
        <pt x="393" y="0" on="1"/>
        <pt x="393" y="37" on="1"/>
        <pt x="448" y="39" on="0"/>
        <pt x="491" y="54" on="0"/>
        <pt x="491" y="74" on="1"/>
        <pt x="491" y="90" on="0"/>
        <pt x="482" y="114" on="1"/>
      </contour>
      <contour>
        <pt x="330" y="516" on="1"/>
        <pt x="239" y="279" on="1"/>
        <pt x="421" y="279" on="1"/>
        <pt x="334" y="516" on="1"/>
      </contour>
      <contour>
        <pt x="205" y="864" on="1"/>
        <pt x="205" y="960" on="1"/>
        <pt x="512" y="960" on="1"/>
        <pt x="512" y="864" on="1"/>
      </contour>
    </TTGlyph>
    <TTGlyph name="Aogonek" xMin="-20" yMin="-256" xMax="805" yMax="790">
      <contour>
        <pt x="740" y="-202" on="1"/>
        <pt x="685" y="-256" on="0"/>
        <pt x="610" y="-256" on="1"/>
        <pt x="563" y="-256" on="0"/>
        <pt x="508" y="-209" on="0"/>
        <pt x="508" y="-168" on="1"/>
        <pt x="508" y="-129" on="0"/>
        <pt x="568" y="-41" on="0"/>
        <pt x="622" y="0" on="1"/>
        <pt x="393" y="0" on="1"/>
        <pt x="393" y="37" on="1"/>
        <pt x="448" y="39" on="0"/>
        <pt x="491" y="54" on="0"/>
        <pt x="491" y="74" on="1"/>
        <pt x="491" y="90" on="0"/>
        <pt x="482" y="114" on="1"/>
        <pt x="442" y="222" on="1"/>
        <pt x="217" y="222" on="1"/>
        <pt x="188" y="146" on="1"/>
        <pt x="177" y="116" on="0"/>
        <pt x="177" y="99" on="1"/>
        <pt x="177" y="73" on="0"/>
        <pt x="227" y="46" on="0"/>
        <pt x="290" y="37" on="1"/>
        <pt x="290" y="0" on="1"/>
        <pt x="-20" y="0" on="1"/>
        <pt x="-20" y="37" on="1"/>
        <pt x="15" y="43" on="0"/>
        <pt x="58" y="56" on="0"/>
        <pt x="87" y="80" on="0"/>
        <pt x="107" y="118" on="0"/>
        <pt x="119" y="148" on="1"/>
        <pt x="308" y="630" on="1"/>
        <pt x="262" y="733" on="1"/>
        <pt x="411" y="790" on="1"/>
        <pt x="697" y="98" on="1"/>
        <pt x="704" y="81" on="0"/>
        <pt x="719" y="59" on="0"/>
        <pt x="742" y="45" on="0"/>
        <pt x="778" y="39" on="0"/>
        <pt x="805" y="37" on="1"/>
        <pt x="805" y="0" on="1"/>
        <pt x="684" y="0" on="1"/>
        <pt x="621" y="-69" on="0"/>
        <pt x="621" y="-124" on="1"/>
        <pt x="621" y="-181" on="0"/>
        <pt x="669" y="-181" on="1"/>
        <pt x="683" y="-181" on="0"/>
        <pt x="708" y="-171" on="0"/>
        <pt x="725" y="-160" on="1"/>
      </contour>
      <contour>
        <pt x="330" y="516" on="1"/>
        <pt x="239" y="279" on="1"/>
        <pt x="421" y="279" on="1"/>
        <pt x="334" y="516" on="1"/>
      </contour>
    </TTGlyph>
    <TTGlyph name="Aring" xMin="-20" yMin="0" xMax="805" yMax="970">
      <contour>
        <pt x="442" y="222" on="1"/>
        <pt x="217" y="222" on="1"/>
        <pt x="188" y="146" on="1"/>
        <pt x="177" y="116" on="0"/>
        <pt x="177" y="99" on="1"/>
        <pt x="177" y="73" on="0"/>
        <pt x="227" y="46" on="0"/>
        <pt x="290" y="37" on="1"/>
        <pt x="290" y="0" on="1"/>
        <pt x="-20" y="0" on="1"/>
        <pt x="-20" y="37" on="1"/>
        <pt x="15" y="43" on="0"/>
        <pt x="58" y="56" on="0"/>
        <pt x="87" y="80" on="0"/>
        <pt x="107" y="118" on="0"/>
        <pt x="119" y="148" on="1"/>
        <pt x="308" y="630" on="1"/>
        <pt x="262" y="733" on="1"/>
        <pt x="411" y="790" on="1"/>
        <pt x="697" y="98" on="1"/>
        <pt x="704" y="81" on="0"/>
        <pt x="719" y="59" on="0"/>
        <pt x="742" y="45" on="0"/>
        <pt x="778" y="39" on="0"/>
        <pt x="805" y="37" on="1"/>
        <pt x="805" y="0" on="1"/>
        <pt x="393" y="0" on="1"/>
        <pt x="393" y="37" on="1"/>
        <pt x="448" y="39" on="0"/>
        <pt x="491" y="54" on="0"/>
        <pt x="491" y="74" on="1"/>
        <pt x="491" y="90" on="0"/>
        <pt x="482" y="114" on="1"/>
      </contour>
      <contour>
        <pt x="330" y="516" on="1"/>
        <pt x="239" y="279" on="1"/>
        <pt x="421" y="279" on="1"/>
        <pt x="334" y="516" on="1"/>
      </contour>
      <contour>
        <pt x="339" y="830" on="1"/>
        <pt x="307" y="830" on="0"/>
        <pt x="269" y="870" on="0"/>
        <pt x="269" y="900" on="1"/>
        <pt x="269" y="930" on="0"/>
        <pt x="309" y="970" on="0"/>
        <pt x="339" y="970" on="1"/>
        <pt x="369" y="970" on="0"/>
        <pt x="409" y="930" on="0"/>
        <pt x="409" y="900" on="1"/>
        <pt x="409" y="870" on="0"/>
        <pt x="369" y="830" on="0"/>
      </contour>
      <contour>
        <pt x="319" y="900" on="1"/>
        <pt x="319" y="880" on="0"/>
        <pt x="339" y="880" on="1"/>
        <pt x="359" y="880" on="0"/>
        <pt x="359" y="900" on="1"/>
        <pt x="359" y="920" on="0"/>
        <pt x="339" y="920" on="1"/>
        <pt x="319" y="920" on="0"/>
      </contour>
    </TTGlyph>
    <TTGlyph name="Aringacute" xMin="-20" yMin="0" xMax="805" yMax="970">
      <contour>
        <pt x="228" y="846" on="1"/>
        <pt x="271" y="878" on="1"/>
        <pt x="268" y="888" on="0"/>
        <pt x="268" y="900" on="1"/>
        <pt x="268" y="930" on="0"/>
        <pt x="308" y="970" on="0"/>
        <pt x="338" y="970" on="1"/>
        <pt x="361" y="970" on="0"/>
        <pt x="379" y="958" on="1"/>
        <pt x="388" y="963" on="0"/>
        <pt x="405" y="969" on="0"/>
        <pt x="416" y="969" on="1"/>
        <pt x="431" y="969" on="0"/>
        <pt x="460" y="952" on="0"/>
        <pt x="460" y="934" on="1"/>
        <pt x="460" y="919" on="0"/>
        <pt x="440" y="892" on="0"/>
        <pt x="406" y="882" on="1"/>
        <pt x="400" y="859" on="0"/>
        <pt x="364" y="830" on="0"/>
        <pt x="338" y="830" on="1"/>
        <pt x="312" y="830" on="0"/>
        <pt x="296" y="842" on="1"/>
        <pt x="239" y="825" on="1"/>
      </contour>
      <contour>
        <pt x="338" y="880" on="1"/>
        <pt x="358" y="880" on="0"/>
        <pt x="358" y="900" on="1"/>
        <pt x="358" y="920" on="0"/>
        <pt x="338" y="920" on="1"/>
        <pt x="318" y="920" on="0"/>
        <pt x="318" y="900" on="1"/>
        <pt x="318" y="880" on="0"/>
      </contour>
      <contour>
        <pt x="442" y="222" on="1"/>
        <pt x="217" y="222" on="1"/>
        <pt x="188" y="146" on="1"/>
        <pt x="177" y="116" on="0"/>
        <pt x="177" y="99" on="1"/>
        <pt x="177" y="73" on="0"/>
        <pt x="227" y="46" on="0"/>
        <pt x="290" y="37" on="1"/>
        <pt x="290" y="0" on="1"/>
        <pt x="-20" y="0" on="1"/>
        <pt x="-20" y="37" on="1"/>
        <pt x="15" y="43" on="0"/>
        <pt x="58" y="56" on="0"/>
        <pt x="87" y="80" on="0"/>
        <pt x="107" y="118" on="0"/>
        <pt x="119" y="148" on="1"/>
        <pt x="308" y="630" on="1"/>
        <pt x="262" y="733" on="1"/>
        <pt x="411" y="790" on="1"/>
        <pt x="697" y="98" on="1"/>
        <pt x="704" y="81" on="0"/>
        <pt x="719" y="59" on="0"/>
        <pt x="742" y="45" on="0"/>
        <pt x="778" y="39" on="0"/>
        <pt x="805" y="37" on="1"/>
        <pt x="805" y="0" on="1"/>
        <pt x="393" y="0" on="1"/>
        <pt x="393" y="37" on="1"/>
        <pt x="448" y="39" on="0"/>
        <pt x="491" y="54" on="0"/>
        <pt x="491" y="74" on="1"/>
        <pt x="491" y="90" on="0"/>
        <pt x="482" y="114" on="1"/>
      </contour>
      <contour>
        <pt x="330" y="516" on="1"/>
        <pt x="239" y="279" on="1"/>
        <pt x="421" y="279" on="1"/>
        <pt x="334" y="516" on="1"/>
      </contour>
    </TTGlyph>
    <TTGlyph name="Atilde" xMin="-20" yMin="0" xMax="805" yMax="965">
      <contour>
        <pt x="442" y="222" on="1"/>
        <pt x="217" y="222" on="1"/>
        <pt x="188" y="146" on="1"/>
        <pt x="177" y="116" on="0"/>
        <pt x="177" y="99" on="1"/>
        <pt x="177" y="73" on="0"/>
        <pt x="227" y="46" on="0"/>
        <pt x="290" y="37" on="1"/>
        <pt x="290" y="0" on="1"/>
        <pt x="-20" y="0" on="1"/>
        <pt x="-20" y="37" on="1"/>
        <pt x="15" y="43" on="0"/>
        <pt x="58" y="56" on="0"/>
        <pt x="87" y="80" on="0"/>
        <pt x="107" y="118" on="0"/>
        <pt x="119" y="148" on="1"/>
        <pt x="308" y="630" on="1"/>
        <pt x="262" y="733" on="1"/>
        <pt x="411" y="790" on="1"/>
        <pt x="697" y="98" on="1"/>
        <pt x="704" y="81" on="0"/>
        <pt x="719" y="59" on="0"/>
        <pt x="742" y="45" on="0"/>
        <pt x="778" y="39" on="0"/>
        <pt x="805" y="37" on="1"/>
        <pt x="805" y="0" on="1"/>
        <pt x="393" y="0" on="1"/>
        <pt x="393" y="37" on="1"/>
        <pt x="448" y="39" on="0"/>
        <pt x="491" y="54" on="0"/>
        <pt x="491" y="74" on="1"/>
        <pt x="491" y="90" on="0"/>
        <pt x="482" y="114" on="1"/>
      </contour>
      <contour>
        <pt x="330" y="516" on="1"/>
        <pt x="239" y="279" on="1"/>
        <pt x="421" y="279" on="1"/>
        <pt x="334" y="516" on="1"/>
      </contour>
      <contour>
        <pt x="199" y="821" on="1"/>
        <pt x="199" y="892" on="0"/>
        <pt x="259" y="963" on="0"/>
        <pt x="306" y="963" on="1"/>
        <pt x="325" y="963" on="0"/>
        <pt x="355" y="952" on="0"/>
        <pt x="382" y="938" on="0"/>
        <pt x="410" y="927" on="0"/>
        <pt x="427" y="927" on="1"/>
        <pt x="477" y="927" on="0"/>
        <pt x="487" y="965" on="1"/>
        <pt x="526" y="965" on="1"/>
        <pt x="526" y="896" on="0"/>
        <pt x="475" y="820" on="0"/>
        <pt x="424" y="820" on="1"/>
        <pt x="403" y="820" on="0"/>
        <pt x="373" y="832" on="0"/>
        <pt x="346" y="847" on="0"/>
        <pt x="318" y="859" on="0"/>
        <pt x="299" y="859" on="1"/>
        <pt x="273" y="859" on="0"/>
        <pt x="241" y="838" on="0"/>
        <pt x="238" y="821" on="1"/>
      </contour>
    </TTGlyph>
    <TTGlyph name="B" xMin="42" yMin="0" xMax="709" yMax="770">
      <contour>
        <pt x="379" y="770" on="1"/>
        <pt x="455" y="770" on="0"/>
        <pt x="555" y="750" on="0"/>
        <pt x="589" y="729" on="1"/>
        <pt x="628" y="704" on="0"/>
        <pt x="671" y="628" on="0"/>
        <pt x="671" y="583" on="1"/>
        <pt x="671" y="522" on="0"/>
        <pt x="575" y="438" on="0"/>
        <pt x="485" y="422" on="1"/>
        <pt x="485" y="418" on="1"/>
        <pt x="536" y="413" on="0"/>
        <pt x="618" y="378" on="0"/>
        <pt x="677" y="322" on="0"/>
        <pt x="709" y="248" on="0"/>
        <pt x="709" y="204" on="1"/>
        <pt x="709" y="158" on="0"/>
        <pt x="670" y="78" on="0"/>
        <pt x="635" y="52" on="1"/>
        <pt x="597" y="24" on="0"/>
        <pt x="487" y="0" on="0"/>
        <pt x="397" y="0" on="1"/>
        <pt x="42" y="0" on="1"/>
        <pt x="42" y="37" on="1"/>
        <pt x="127" y="59" on="1"/>
        <pt x="127" y="712" on="1"/>
        <pt x="42" y="733" on="1"/>
        <pt x="42" y="770" on="1"/>
      </contour>
      <contour>
        <pt x="299" y="437" on="1"/>
        <pt x="310" y="437" on="1"/>
        <pt x="328" y="437" on="0"/>
        <pt x="353" y="438" on="0"/>
        <pt x="363" y="440" on="1"/>
        <pt x="423" y="446" on="0"/>
        <pt x="488" y="517" on="0"/>
        <pt x="488" y="579" on="1"/>
        <pt x="488" y="648" on="0"/>
        <pt x="446" y="682" on="1"/>
        <pt x="403" y="716" on="0"/>
        <pt x="317" y="716" on="1"/>
        <pt x="299" y="716" on="1"/>
      </contour>
      <contour>
        <pt x="299" y="383" on="1"/>
        <pt x="299" y="113" on="1"/>
        <pt x="299" y="78" on="0"/>
        <pt x="332" y="53" on="0"/>
        <pt x="376" y="53" on="1"/>
        <pt x="451" y="53" on="0"/>
        <pt x="521" y="130" on="0"/>
        <pt x="521" y="213" on="1"/>
        <pt x="521" y="301" on="0"/>
        <pt x="431" y="383" on="0"/>
        <pt x="336" y="383" on="1"/>
      </contour>
    </TTGlyph>
    <TTGlyph name="C" xMin="45" yMin="-10" xMax="753" yMax="780">
      <contour>
        <pt x="45" y="380" on="1"/>
        <pt x="45" y="468" on="0"/>
        <pt x="103" y="615" on="0"/>
        <pt x="208" y="721" on="0"/>
        <pt x="352" y="780" on="0"/>
        <pt x="439" y="780" on="1"/>
        <pt x="502" y="780" on="0"/>
        <pt x="625" y="748" on="0"/>
        <pt x="675" y="719" on="1"/>
        <pt x="679" y="719" on="1"/>
        <pt x="723" y="770" on="1"/>
        <pt x="753" y="770" on="1"/>
        <pt x="753" y="525" on="1"/>
        <pt x="705" y="525" on="1"/>
        <pt x="695" y="551" on="0"/>
        <pt x="674" y="597" on="0"/>
        <pt x="661" y="616" on="1"/>
        <pt x="626" y="670" on="0"/>
        <pt x="530" y="721" on="0"/>
        <pt x="467" y="721" on="1"/>
        <pt x="234" y="721" on="0"/>
        <pt x="234" y="390" on="1"/>
        <pt x="234" y="223" on="0"/>
        <pt x="351" y="50" on="0"/>
        <pt x="463" y="50" on="1"/>
        <pt x="525" y="50" on="0"/>
        <pt x="624" y="103" on="0"/>
        <pt x="658" y="152" on="1"/>
        <pt x="675" y="178" on="0"/>
        <pt x="701" y="240" on="0"/>
        <pt x="708" y="277" on="1"/>
        <pt x="753" y="277" on="1"/>
        <pt x="753" y="0" on="1"/>
        <pt x="716" y="0" on="1"/>
        <pt x="675" y="66" on="1"/>
        <pt x="616" y="26" on="0"/>
        <pt x="502" y="-10" on="0"/>
        <pt x="436" y="-10" on="1"/>
        <pt x="349" y="-10" on="0"/>
        <pt x="205" y="47" on="0"/>
        <pt x="102" y="149" on="0"/>
        <pt x="45" y="293" on="0"/>
      </contour>
    </TTGlyph>
    <TTGlyph name="Cacute" xMin="45" yMin="-10" xMax="753" yMax="963">
      <contour>
        <pt x="45" y="380" on="1"/>
        <pt x="45" y="468" on="0"/>
        <pt x="103" y="615" on="0"/>
        <pt x="208" y="721" on="0"/>
        <pt x="352" y="780" on="0"/>
        <pt x="439" y="780" on="1"/>
        <pt x="502" y="780" on="0"/>
        <pt x="625" y="748" on="0"/>
        <pt x="675" y="719" on="1"/>
        <pt x="679" y="719" on="1"/>
        <pt x="723" y="770" on="1"/>
        <pt x="753" y="770" on="1"/>
        <pt x="753" y="525" on="1"/>
        <pt x="705" y="525" on="1"/>
        <pt x="695" y="551" on="0"/>
        <pt x="674" y="597" on="0"/>
        <pt x="661" y="616" on="1"/>
        <pt x="626" y="670" on="0"/>
        <pt x="530" y="721" on="0"/>
        <pt x="467" y="721" on="1"/>
        <pt x="234" y="721" on="0"/>
        <pt x="234" y="390" on="1"/>
        <pt x="234" y="223" on="0"/>
        <pt x="351" y="50" on="0"/>
        <pt x="463" y="50" on="1"/>
        <pt x="525" y="50" on="0"/>
        <pt x="624" y="103" on="0"/>
        <pt x="658" y="152" on="1"/>
        <pt x="675" y="178" on="0"/>
        <pt x="701" y="240" on="0"/>
        <pt x="708" y="277" on="1"/>
        <pt x="753" y="277" on="1"/>
        <pt x="753" y="0" on="1"/>
        <pt x="716" y="0" on="1"/>
        <pt x="675" y="66" on="1"/>
        <pt x="616" y="26" on="0"/>
        <pt x="502" y="-10" on="0"/>
        <pt x="436" y="-10" on="1"/>
        <pt x="349" y="-10" on="0"/>
        <pt x="205" y="47" on="0"/>
        <pt x="102" y="149" on="0"/>
        <pt x="45" y="293" on="0"/>
      </contour>
      <contour>
        <pt x="322" y="845" on="1"/>
        <pt x="447" y="939" on="1"/>
        <pt x="464" y="952" on="0"/>
        <pt x="495" y="963" on="0"/>
        <pt x="508" y="963" on="1"/>
        <pt x="534" y="963" on="0"/>
        <pt x="563" y="930" on="0"/>
        <pt x="563" y="909" on="1"/>
        <pt x="563" y="890" on="0"/>
        <pt x="536" y="855" on="0"/>
        <pt x="504" y="849" on="1"/>
        <pt x="339" y="817" on="1"/>
      </contour>
    </TTGlyph>
    <TTGlyph name="Ccaron" xMin="45" yMin="-10" xMax="753" yMax="970">
      <contour>
        <pt x="45" y="380" on="1"/>
        <pt x="45" y="468" on="0"/>
        <pt x="103" y="615" on="0"/>
        <pt x="208" y="721" on="0"/>
        <pt x="352" y="780" on="0"/>
        <pt x="439" y="780" on="1"/>
        <pt x="502" y="780" on="0"/>
        <pt x="625" y="748" on="0"/>
        <pt x="675" y="719" on="1"/>
        <pt x="679" y="719" on="1"/>
        <pt x="723" y="770" on="1"/>
        <pt x="753" y="770" on="1"/>
        <pt x="753" y="525" on="1"/>
        <pt x="705" y="525" on="1"/>
        <pt x="695" y="551" on="0"/>
        <pt x="674" y="597" on="0"/>
        <pt x="661" y="616" on="1"/>
        <pt x="626" y="670" on="0"/>
        <pt x="530" y="721" on="0"/>
        <pt x="467" y="721" on="1"/>
        <pt x="234" y="721" on="0"/>
        <pt x="234" y="390" on="1"/>
        <pt x="234" y="223" on="0"/>
        <pt x="351" y="50" on="0"/>
        <pt x="463" y="50" on="1"/>
        <pt x="525" y="50" on="0"/>
        <pt x="624" y="103" on="0"/>
        <pt x="658" y="152" on="1"/>
        <pt x="675" y="178" on="0"/>
        <pt x="701" y="240" on="0"/>
        <pt x="708" y="277" on="1"/>
        <pt x="753" y="277" on="1"/>
        <pt x="753" y="0" on="1"/>
        <pt x="716" y="0" on="1"/>
        <pt x="675" y="66" on="1"/>
        <pt x="616" y="26" on="0"/>
        <pt x="502" y="-10" on="0"/>
        <pt x="436" y="-10" on="1"/>
        <pt x="349" y="-10" on="0"/>
        <pt x="205" y="47" on="0"/>
        <pt x="102" y="149" on="0"/>
        <pt x="45" y="293" on="0"/>
      </contour>
      <contour>
        <pt x="458" y="831" on="1"/>
        <pt x="438" y="831" on="0"/>
        <pt x="406" y="847" on="0"/>
        <pt x="386" y="864" on="1"/>
        <pt x="284" y="948" on="1"/>
        <pt x="300" y="970" on="1"/>
        <pt x="457" y="929" on="1"/>
        <pt x="614" y="970" on="1"/>
        <pt x="630" y="948" on="1"/>
        <pt x="526" y="864" on="1"/>
        <pt x="506" y="847" on="0"/>
        <pt x="475" y="831" on="0"/>
      </contour>
    </TTGlyph>
    <TTGlyph name="Ccedilla" xMin="45" yMin="-257" xMax="753" yMax="780">
      <contour>
        <pt x="347" y="-188" on="1"/>
        <pt x="374" y="-202" on="0"/>
        <pt x="401" y="-202" on="1"/>
        <pt x="424" y="-202" on="0"/>
        <pt x="453" y="-179" on="0"/>
        <pt x="453" y="-165" on="1"/>
        <pt x="453" y="-151" on="0"/>
        <pt x="432" y="-135" on="0"/>
        <pt x="415" y="-135" on="1"/>
        <pt x="405" y="-135" on="0"/>
        <pt x="379" y="-139" on="0"/>
        <pt x="369" y="-143" on="1"/>
        <pt x="355" y="-134" on="1"/>
        <pt x="404" y="-9" on="1"/>
        <pt x="324" y="-4" on="0"/>
        <pt x="191" y="57" on="0"/>
        <pt x="97" y="158" on="0"/>
        <pt x="45" y="297" on="0"/>
        <pt x="45" y="380" on="1"/>
        <pt x="45" y="468" on="0"/>
        <pt x="103" y="615" on="0"/>
        <pt x="208" y="721" on="0"/>
        <pt x="352" y="780" on="0"/>
        <pt x="439" y="780" on="1"/>
        <pt x="502" y="780" on="0"/>
        <pt x="625" y="748" on="0"/>
        <pt x="675" y="719" on="1"/>
        <pt x="679" y="719" on="1"/>
        <pt x="723" y="770" on="1"/>
        <pt x="753" y="770" on="1"/>
        <pt x="753" y="525" on="1"/>
        <pt x="705" y="525" on="1"/>
        <pt x="695" y="551" on="0"/>
        <pt x="674" y="597" on="0"/>
        <pt x="661" y="616" on="1"/>
        <pt x="626" y="670" on="0"/>
        <pt x="530" y="721" on="0"/>
        <pt x="467" y="721" on="1"/>
        <pt x="234" y="721" on="0"/>
        <pt x="234" y="390" on="1"/>
        <pt x="234" y="223" on="0"/>
        <pt x="351" y="50" on="0"/>
        <pt x="463" y="50" on="1"/>
        <pt x="525" y="50" on="0"/>
        <pt x="624" y="103" on="0"/>
        <pt x="658" y="152" on="1"/>
        <pt x="675" y="178" on="0"/>
        <pt x="701" y="240" on="0"/>
        <pt x="708" y="277" on="1"/>
        <pt x="753" y="277" on="1"/>
        <pt x="753" y="0" on="1"/>
        <pt x="716" y="0" on="1"/>
        <pt x="675" y="66" on="1"/>
        <pt x="621" y="30" on="0"/>
        <pt x="519" y="-6" on="0"/>
        <pt x="461" y="-9" on="1"/>
        <pt x="443" y="-58" on="1"/>
        <pt x="497" y="-58" on="0"/>
        <pt x="558" y="-114" on="0"/>
        <pt x="558" y="-156" on="1"/>
        <pt x="558" y="-200" on="0"/>
        <pt x="487" y="-257" on="0"/>
        <pt x="426" y="-257" on="1"/>
        <pt x="397" y="-257" on="0"/>
        <pt x="344" y="-244" on="0"/>
        <pt x="328" y="-233" on="1"/>
      </contour>
    </TTGlyph>
    <TTGlyph name="Ccircumflex" xMin="45" yMin="-10" xMax="753" yMax="960">
      <contour>
        <pt x="45" y="380" on="1"/>
        <pt x="45" y="468" on="0"/>
        <pt x="103" y="615" on="0"/>
        <pt x="208" y="721" on="0"/>
        <pt x="352" y="780" on="0"/>
        <pt x="439" y="780" on="1"/>
        <pt x="502" y="780" on="0"/>
        <pt x="625" y="748" on="0"/>
        <pt x="675" y="719" on="1"/>
        <pt x="679" y="719" on="1"/>
        <pt x="723" y="770" on="1"/>
        <pt x="753" y="770" on="1"/>
        <pt x="753" y="525" on="1"/>
        <pt x="705" y="525" on="1"/>
        <pt x="695" y="551" on="0"/>
        <pt x="674" y="597" on="0"/>
        <pt x="661" y="616" on="1"/>
        <pt x="626" y="670" on="0"/>
        <pt x="530" y="721" on="0"/>
        <pt x="467" y="721" on="1"/>
        <pt x="234" y="721" on="0"/>
        <pt x="234" y="390" on="1"/>
        <pt x="234" y="223" on="0"/>
        <pt x="351" y="50" on="0"/>
        <pt x="463" y="50" on="1"/>
        <pt x="525" y="50" on="0"/>
        <pt x="624" y="103" on="0"/>
        <pt x="658" y="152" on="1"/>
        <pt x="675" y="178" on="0"/>
        <pt x="701" y="240" on="0"/>
        <pt x="708" y="277" on="1"/>
        <pt x="753" y="277" on="1"/>
        <pt x="753" y="0" on="1"/>
        <pt x="716" y="0" on="1"/>
        <pt x="675" y="66" on="1"/>
        <pt x="616" y="26" on="0"/>
        <pt x="502" y="-10" on="0"/>
        <pt x="436" y="-10" on="1"/>
        <pt x="349" y="-10" on="0"/>
        <pt x="205" y="47" on="0"/>
        <pt x="102" y="149" on="0"/>
        <pt x="45" y="293" on="0"/>
      </contour>
      <contour>
        <pt x="446" y="960" on="1"/>
        <pt x="463" y="960" on="0"/>
        <pt x="494" y="944" on="0"/>
        <pt x="514" y="927" on="1"/>
        <pt x="618" y="843" on="1"/>
        <pt x="602" y="821" on="1"/>
        <pt x="445" y="862" on="1"/>
        <pt x="288" y="821" on="1"/>
        <pt x="272" y="843" on="1"/>
        <pt x="374" y="927" on="1"/>
        <pt x="394" y="944" on="0"/>
        <pt x="426" y="960" on="0"/>
      </contour>
    </TTGlyph>
    <TTGlyph name="Cdotaccent" xMin="45" yMin="-10" xMax="753" yMax="966">
      <contour>
        <pt x="45" y="380" on="1"/>
        <pt x="45" y="468" on="0"/>
        <pt x="103" y="615" on="0"/>
        <pt x="208" y="721" on="0"/>
        <pt x="352" y="780" on="0"/>
        <pt x="439" y="780" on="1"/>
        <pt x="502" y="780" on="0"/>
        <pt x="625" y="748" on="0"/>
        <pt x="675" y="719" on="1"/>
        <pt x="679" y="719" on="1"/>
        <pt x="723" y="770" on="1"/>
        <pt x="753" y="770" on="1"/>
        <pt x="753" y="525" on="1"/>
        <pt x="705" y="525" on="1"/>
        <pt x="695" y="551" on="0"/>
        <pt x="674" y="597" on="0"/>
        <pt x="661" y="616" on="1"/>
        <pt x="626" y="670" on="0"/>
        <pt x="530" y="721" on="0"/>
        <pt x="467" y="721" on="1"/>
        <pt x="234" y="721" on="0"/>
        <pt x="234" y="390" on="1"/>
        <pt x="234" y="223" on="0"/>
        <pt x="351" y="50" on="0"/>
        <pt x="463" y="50" on="1"/>
        <pt x="525" y="50" on="0"/>
        <pt x="624" y="103" on="0"/>
        <pt x="658" y="152" on="1"/>
        <pt x="675" y="178" on="0"/>
        <pt x="701" y="240" on="0"/>
        <pt x="708" y="277" on="1"/>
        <pt x="753" y="277" on="1"/>
        <pt x="753" y="0" on="1"/>
        <pt x="716" y="0" on="1"/>
        <pt x="675" y="66" on="1"/>
        <pt x="616" y="26" on="0"/>
        <pt x="502" y="-10" on="0"/>
        <pt x="436" y="-10" on="1"/>
        <pt x="349" y="-10" on="0"/>
        <pt x="205" y="47" on="0"/>
        <pt x="102" y="149" on="0"/>
        <pt x="45" y="293" on="0"/>
      </contour>
      <contour>
        <pt x="377" y="898" on="1"/>
        <pt x="377" y="924" on="0"/>
        <pt x="414" y="966" on="0"/>
        <pt x="448" y="966" on="1"/>
        <pt x="482" y="966" on="0"/>
        <pt x="521" y="924" on="0"/>
        <pt x="521" y="898" on="1"/>
        <pt x="521" y="872" on="0"/>
        <pt x="484" y="830" on="0"/>
        <pt x="448" y="830" on="1"/>
        <pt x="413" y="830" on="0"/>
        <pt x="377" y="872" on="0"/>
      </contour>
    </TTGlyph>
    <TTGlyph name="D" xMin="41" yMin="0" xMax="832" yMax="770">
      <contour>
        <pt x="41" y="0" on="1"/>
        <pt x="41" y="38" on="1"/>
        <pt x="127" y="57" on="1"/>
        <pt x="127" y="714" on="1"/>
        <pt x="41" y="733" on="1"/>
        <pt x="41" y="770" on="1"/>
        <pt x="314" y="770" on="1"/>
        <pt x="379" y="770" on="0"/>
        <pt x="485" y="762" on="0"/>
        <pt x="571" y="745" on="0"/>
        <pt x="642" y="717" on="0"/>
        <pt x="672" y="697" on="1"/>
        <pt x="746" y="648" on="0"/>
        <pt x="832" y="489" on="0"/>
        <pt x="832" y="386" on="1"/>
        <pt x="832" y="280" on="0"/>
        <pt x="741" y="108" on="0"/>
        <pt x="664" y="59" on="1"/>
        <pt x="639" y="43" on="0"/>
        <pt x="586" y="21" on="0"/>
        <pt x="525" y="7" on="0"/>
        <pt x="454" y="0" on="0"/>
        <pt x="412" y="0" on="1"/>
      </contour>
      <contour>
        <pt x="401" y="54" on="1"/>
        <pt x="518" y="54" on="0"/>
        <pt x="575" y="121" on="1"/>
        <pt x="609" y="161" on="0"/>
        <pt x="640" y="292" on="0"/>
        <pt x="640" y="386" on="1"/>
        <pt x="640" y="478" on="0"/>
        <pt x="609" y="601" on="0"/>
        <pt x="575" y="642" on="1"/>
        <pt x="516" y="714" on="0"/>
        <pt x="389" y="714" on="1"/>
        <pt x="299" y="714" on="1"/>
        <pt x="299" y="114" on="1"/>
        <pt x="299" y="82" on="0"/>
        <pt x="346" y="54" on="0"/>
      </contour>
    </TTGlyph>
    <TTGlyph name="Dcaron" xMin="41" yMin="0" xMax="832" yMax="960">
      <contour>
        <pt x="41" y="0" on="1"/>
        <pt x="41" y="38" on="1"/>
        <pt x="127" y="57" on="1"/>
        <pt x="127" y="714" on="1"/>
        <pt x="41" y="733" on="1"/>
        <pt x="41" y="770" on="1"/>
        <pt x="314" y="770" on="1"/>
        <pt x="379" y="770" on="0"/>
        <pt x="485" y="762" on="0"/>
        <pt x="571" y="745" on="0"/>
        <pt x="642" y="717" on="0"/>
        <pt x="672" y="697" on="1"/>
        <pt x="746" y="648" on="0"/>
        <pt x="832" y="489" on="0"/>
        <pt x="832" y="386" on="1"/>
        <pt x="832" y="280" on="0"/>
        <pt x="741" y="108" on="0"/>
        <pt x="664" y="59" on="1"/>
        <pt x="639" y="43" on="0"/>
        <pt x="586" y="21" on="0"/>
        <pt x="525" y="7" on="0"/>
        <pt x="454" y="0" on="0"/>
        <pt x="412" y="0" on="1"/>
      </contour>
      <contour>
        <pt x="401" y="54" on="1"/>
        <pt x="518" y="54" on="0"/>
        <pt x="575" y="121" on="1"/>
        <pt x="609" y="161" on="0"/>
        <pt x="640" y="292" on="0"/>
        <pt x="640" y="386" on="1"/>
        <pt x="640" y="478" on="0"/>
        <pt x="609" y="601" on="0"/>
        <pt x="575" y="642" on="1"/>
        <pt x="516" y="714" on="0"/>
        <pt x="389" y="714" on="1"/>
        <pt x="299" y="714" on="1"/>
        <pt x="299" y="114" on="1"/>
        <pt x="299" y="82" on="0"/>
        <pt x="346" y="54" on="0"/>
      </contour>
      <contour>
        <pt x="424" y="821" on="1"/>
        <pt x="404" y="821" on="0"/>
        <pt x="372" y="837" on="0"/>
        <pt x="352" y="854" on="1"/>
        <pt x="250" y="938" on="1"/>
        <pt x="266" y="960" on="1"/>
        <pt x="423" y="919" on="1"/>
        <pt x="580" y="960" on="1"/>
        <pt x="596" y="938" on="1"/>
        <pt x="492" y="854" on="1"/>
        <pt x="472" y="837" on="0"/>
        <pt x="441" y="821" on="0"/>
      </contour>
    </TTGlyph>
    <TTGlyph name="Dcroat" xMin="41" yMin="0" xMax="832" yMax="770">
      <contour>
        <pt x="41" y="0" on="1"/>
        <pt x="41" y="38" on="1"/>
        <pt x="127" y="57" on="1"/>
        <pt x="127" y="354" on="1"/>
        <pt x="52" y="354" on="1"/>
        <pt x="52" y="439" on="1"/>
        <pt x="127" y="439" on="1"/>
        <pt x="127" y="714" on="1"/>
        <pt x="41" y="733" on="1"/>
        <pt x="41" y="770" on="1"/>
        <pt x="314" y="770" on="1"/>
        <pt x="379" y="770" on="0"/>
        <pt x="485" y="762" on="0"/>
        <pt x="571" y="745" on="0"/>
        <pt x="642" y="717" on="0"/>
        <pt x="672" y="697" on="1"/>
        <pt x="746" y="648" on="0"/>
        <pt x="832" y="489" on="0"/>
        <pt x="832" y="386" on="1"/>
        <pt x="832" y="280" on="0"/>
        <pt x="741" y="108" on="0"/>
        <pt x="664" y="59" on="1"/>
        <pt x="639" y="43" on="0"/>
        <pt x="586" y="21" on="0"/>
        <pt x="525" y="7" on="0"/>
        <pt x="454" y="0" on="0"/>
        <pt x="412" y="0" on="1"/>
      </contour>
      <contour>
        <pt x="401" y="54" on="1"/>
        <pt x="518" y="54" on="0"/>
        <pt x="575" y="121" on="1"/>
        <pt x="609" y="161" on="0"/>
        <pt x="640" y="292" on="0"/>
        <pt x="640" y="386" on="1"/>
        <pt x="640" y="478" on="0"/>
        <pt x="609" y="601" on="0"/>
        <pt x="575" y="642" on="1"/>
        <pt x="516" y="714" on="0"/>
        <pt x="389" y="714" on="1"/>
        <pt x="299" y="714" on="1"/>
        <pt x="299" y="439" on="1"/>
        <pt x="439" y="439" on="1"/>
        <pt x="439" y="354" on="1"/>
        <pt x="299" y="354" on="1"/>
        <pt x="299" y="114" on="1"/>
        <pt x="299" y="82" on="0"/>
        <pt x="346" y="54" on="0"/>
      </contour>
    </TTGlyph>
    <TTGlyph name="Ddotbelow" xMin="41" yMin="-260" xMax="832" yMax="770">
      <contour>
        <pt x="41" y="0" on="1"/>
        <pt x="41" y="38" on="1"/>
        <pt x="127" y="57" on="1"/>
        <pt x="127" y="714" on="1"/>
        <pt x="41" y="733" on="1"/>
        <pt x="41" y="770" on="1"/>
        <pt x="314" y="770" on="1"/>
        <pt x="379" y="770" on="0"/>
        <pt x="485" y="762" on="0"/>
        <pt x="571" y="745" on="0"/>
        <pt x="642" y="717" on="0"/>
        <pt x="672" y="697" on="1"/>
        <pt x="746" y="648" on="0"/>
        <pt x="832" y="489" on="0"/>
        <pt x="832" y="386" on="1"/>
        <pt x="832" y="280" on="0"/>
        <pt x="741" y="108" on="0"/>
        <pt x="664" y="59" on="1"/>
        <pt x="639" y="43" on="0"/>
        <pt x="586" y="21" on="0"/>
        <pt x="525" y="7" on="0"/>
        <pt x="454" y="0" on="0"/>
        <pt x="412" y="0" on="1"/>
      </contour>
      <contour>
        <pt x="401" y="54" on="1"/>
        <pt x="518" y="54" on="0"/>
        <pt x="575" y="121" on="1"/>
        <pt x="609" y="161" on="0"/>
        <pt x="640" y="292" on="0"/>
        <pt x="640" y="386" on="1"/>
        <pt x="640" y="478" on="0"/>
        <pt x="609" y="601" on="0"/>
        <pt x="575" y="642" on="1"/>
        <pt x="516" y="714" on="0"/>
        <pt x="389" y="714" on="1"/>
        <pt x="299" y="714" on="1"/>
        <pt x="299" y="114" on="1"/>
        <pt x="299" y="82" on="0"/>
        <pt x="346" y="54" on="0"/>
      </contour>
      <contour>
        <pt x="328" y="-178" on="1"/>
        <pt x="328" y="-145" on="0"/>
        <pt x="373" y="-95" on="0"/>
        <pt x="414" y="-95" on="1"/>
        <pt x="456" y="-95" on="0"/>
        <pt x="503" y="-145" on="0"/>
        <pt x="503" y="-178" on="1"/>
        <pt x="503" y="-209" on="0"/>
        <pt x="458" y="-260" on="0"/>
        <pt x="414" y="-260" on="1"/>
        <pt x="372" y="-260" on="0"/>
        <pt x="328" y="-209" on="0"/>
      </contour>
    </TTGlyph>
    <TTGlyph name="E" xMin="42" yMin="0" xMax="691" yMax="770">
      <contour>
        <pt x="299" y="713" on="1"/>
        <pt x="299" y="434" on="1"/>
        <pt x="425" y="434" on="1"/>
        <pt x="442" y="462" on="0"/>
        <pt x="462" y="519" on="0"/>
        <pt x="468" y="547" on="1"/>
        <pt x="510" y="547" on="1"/>
        <pt x="510" y="267" on="1"/>
        <pt x="468" y="267" on="1"/>
        <pt x="462" y="295" on="0"/>
        <pt x="441" y="352" on="0"/>
        <pt x="425" y="380" on="1"/>
        <pt x="299" y="380" on="1"/>
        <pt x="299" y="57" on="1"/>
        <pt x="548" y="57" on="1"/>
        <pt x="580" y="102" on="0"/>
        <pt x="621" y="189" on="0"/>
        <pt x="639" y="234" on="1"/>
        <pt x="691" y="234" on="1"/>
        <pt x="649" y="0" on="1"/>
        <pt x="42" y="0" on="1"/>
        <pt x="42" y="37" on="1"/>
        <pt x="127" y="56" on="1"/>
        <pt x="127" y="714" on="1"/>
        <pt x="42" y="733" on="1"/>
        <pt x="42" y="770" on="1"/>
        <pt x="654" y="770" on="1"/>
        <pt x="673" y="550" on="1"/>
        <pt x="631" y="550" on="1"/>
        <pt x="617" y="589" on="0"/>
        <pt x="580" y="674" on="0"/>
        <pt x="554" y="713" on="1"/>
      </contour>
    </TTGlyph>
    <TTGlyph name="Eacute" xMin="42" yMin="0" xMax="691" yMax="963">
      <contour>
        <pt x="299" y="713" on="1"/>
        <pt x="299" y="434" on="1"/>
        <pt x="425" y="434" on="1"/>
        <pt x="442" y="462" on="0"/>
        <pt x="462" y="519" on="0"/>
        <pt x="468" y="547" on="1"/>
        <pt x="510" y="547" on="1"/>
        <pt x="510" y="267" on="1"/>
        <pt x="468" y="267" on="1"/>
        <pt x="462" y="295" on="0"/>
        <pt x="441" y="352" on="0"/>
        <pt x="425" y="380" on="1"/>
        <pt x="299" y="380" on="1"/>
        <pt x="299" y="57" on="1"/>
        <pt x="548" y="57" on="1"/>
        <pt x="580" y="102" on="0"/>
        <pt x="621" y="189" on="0"/>
        <pt x="639" y="234" on="1"/>
        <pt x="691" y="234" on="1"/>
        <pt x="649" y="0" on="1"/>
        <pt x="42" y="0" on="1"/>
        <pt x="42" y="37" on="1"/>
        <pt x="127" y="56" on="1"/>
        <pt x="127" y="714" on="1"/>
        <pt x="42" y="733" on="1"/>
        <pt x="42" y="770" on="1"/>
        <pt x="654" y="770" on="1"/>
        <pt x="673" y="550" on="1"/>
        <pt x="631" y="550" on="1"/>
        <pt x="617" y="589" on="0"/>
        <pt x="580" y="674" on="0"/>
        <pt x="554" y="713" on="1"/>
      </contour>
      <contour>
        <pt x="267" y="845" on="1"/>
        <pt x="392" y="939" on="1"/>
        <pt x="409" y="952" on="0"/>
        <pt x="440" y="963" on="0"/>
        <pt x="453" y="963" on="1"/>
        <pt x="479" y="963" on="0"/>
        <pt x="508" y="930" on="0"/>
        <pt x="508" y="909" on="1"/>
        <pt x="508" y="890" on="0"/>
        <pt x="481" y="855" on="0"/>
        <pt x="449" y="849" on="1"/>
        <pt x="284" y="817" on="1"/>
      </contour>
    </TTGlyph>
    <TTGlyph name="Ebreve" xMin="42" yMin="0" xMax="691" yMax="965">
      <contour>
        <pt x="299" y="713" on="1"/>
        <pt x="299" y="434" on="1"/>
        <pt x="425" y="434" on="1"/>
        <pt x="442" y="462" on="0"/>
        <pt x="462" y="519" on="0"/>
        <pt x="468" y="547" on="1"/>
        <pt x="510" y="547" on="1"/>
        <pt x="510" y="267" on="1"/>
        <pt x="468" y="267" on="1"/>
        <pt x="462" y="295" on="0"/>
        <pt x="441" y="352" on="0"/>
        <pt x="425" y="380" on="1"/>
        <pt x="299" y="380" on="1"/>
        <pt x="299" y="57" on="1"/>
        <pt x="548" y="57" on="1"/>
        <pt x="580" y="102" on="0"/>
        <pt x="621" y="189" on="0"/>
        <pt x="639" y="234" on="1"/>
        <pt x="691" y="234" on="1"/>
        <pt x="649" y="0" on="1"/>
        <pt x="42" y="0" on="1"/>
        <pt x="42" y="37" on="1"/>
        <pt x="127" y="56" on="1"/>
        <pt x="127" y="714" on="1"/>
        <pt x="42" y="733" on="1"/>
        <pt x="42" y="770" on="1"/>
        <pt x="654" y="770" on="1"/>
        <pt x="673" y="550" on="1"/>
        <pt x="631" y="550" on="1"/>
        <pt x="617" y="589" on="0"/>
        <pt x="580" y="674" on="0"/>
        <pt x="554" y="713" on="1"/>
      </contour>
      <contour>
        <pt x="275" y="965" on="1"/>
        <pt x="287" y="948" on="0"/>
        <pt x="343" y="933" on="0"/>
        <pt x="376" y="933" on="1"/>
        <pt x="408" y="933" on="0"/>
        <pt x="463" y="948" on="0"/>
        <pt x="480" y="965" on="1"/>
        <pt x="529" y="965" on="1"/>
        <pt x="516" y="919" on="0"/>
        <pt x="477" y="865" on="0"/>
        <pt x="433" y="837" on="0"/>
        <pt x="389" y="829" on="0"/>
        <pt x="372" y="829" on="1"/>
        <pt x="349" y="829" on="0"/>
        <pt x="300" y="843" on="0"/>
        <pt x="259" y="875" on="0"/>
        <pt x="229" y="927" on="0"/>
        <pt x="225" y="965" on="1"/>
      </contour>
    </TTGlyph>
    <TTGlyph name="Ecaron" xMin="42" yMin="0" xMax="691" yMax="960">
      <contour>
        <pt x="299" y="713" on="1"/>
        <pt x="299" y="434" on="1"/>
        <pt x="425" y="434" on="1"/>
        <pt x="442" y="462" on="0"/>
        <pt x="462" y="519" on="0"/>
        <pt x="468" y="547" on="1"/>
        <pt x="510" y="547" on="1"/>
        <pt x="510" y="267" on="1"/>
        <pt x="468" y="267" on="1"/>
        <pt x="462" y="295" on="0"/>
        <pt x="441" y="352" on="0"/>
        <pt x="425" y="380" on="1"/>
        <pt x="299" y="380" on="1"/>
        <pt x="299" y="57" on="1"/>
        <pt x="548" y="57" on="1"/>
        <pt x="580" y="102" on="0"/>
        <pt x="621" y="189" on="0"/>
        <pt x="639" y="234" on="1"/>
        <pt x="691" y="234" on="1"/>
        <pt x="649" y="0" on="1"/>
        <pt x="42" y="0" on="1"/>
        <pt x="42" y="37" on="1"/>
        <pt x="127" y="56" on="1"/>
        <pt x="127" y="714" on="1"/>
        <pt x="42" y="733" on="1"/>
        <pt x="42" y="770" on="1"/>
        <pt x="654" y="770" on="1"/>
        <pt x="673" y="550" on="1"/>
        <pt x="631" y="550" on="1"/>
        <pt x="617" y="589" on="0"/>
        <pt x="580" y="674" on="0"/>
        <pt x="554" y="713" on="1"/>
      </contour>
      <contour>
        <pt x="382" y="821" on="1"/>
        <pt x="362" y="821" on="0"/>
        <pt x="330" y="837" on="0"/>
        <pt x="310" y="854" on="1"/>
        <pt x="208" y="938" on="1"/>
        <pt x="224" y="960" on="1"/>
        <pt x="381" y="919" on="1"/>
        <pt x="538" y="960" on="1"/>
        <pt x="554" y="938" on="1"/>
        <pt x="450" y="854" on="1"/>
        <pt x="430" y="837" on="0"/>
        <pt x="399" y="821" on="0"/>
      </contour>
    </TTGlyph>
    <TTGlyph name="Ecircumflex" xMin="42" yMin="0" xMax="691" yMax="960">
      <contour>
        <pt x="299" y="713" on="1"/>
        <pt x="299" y="434" on="1"/>
        <pt x="425" y="434" on="1"/>
        <pt x="442" y="462" on="0"/>
        <pt x="462" y="519" on="0"/>
        <pt x="468" y="547" on="1"/>
        <pt x="510" y="547" on="1"/>
        <pt x="510" y="267" on="1"/>
        <pt x="468" y="267" on="1"/>
        <pt x="462" y="295" on="0"/>
        <pt x="441" y="352" on="0"/>
        <pt x="425" y="380" on="1"/>
        <pt x="299" y="380" on="1"/>
        <pt x="299" y="57" on="1"/>
        <pt x="548" y="57" on="1"/>
        <pt x="580" y="102" on="0"/>
        <pt x="621" y="189" on="0"/>
        <pt x="639" y="234" on="1"/>
        <pt x="691" y="234" on="1"/>
        <pt x="649" y="0" on="1"/>
        <pt x="42" y="0" on="1"/>
        <pt x="42" y="37" on="1"/>
        <pt x="127" y="56" on="1"/>
        <pt x="127" y="714" on="1"/>
        <pt x="42" y="733" on="1"/>
        <pt x="42" y="770" on="1"/>
        <pt x="654" y="770" on="1"/>
        <pt x="673" y="550" on="1"/>
        <pt x="631" y="550" on="1"/>
        <pt x="617" y="589" on="0"/>
        <pt x="580" y="674" on="0"/>
        <pt x="554" y="713" on="1"/>
      </contour>
      <contour>
        <pt x="380" y="960" on="1"/>
        <pt x="397" y="960" on="0"/>
        <pt x="428" y="944" on="0"/>
        <pt x="448" y="927" on="1"/>
        <pt x="552" y="843" on="1"/>
        <pt x="536" y="821" on="1"/>
        <pt x="379" y="862" on="1"/>
        <pt x="222" y="821" on="1"/>
        <pt x="206" y="843" on="1"/>
        <pt x="308" y="927" on="1"/>
        <pt x="328" y="944" on="0"/>
        <pt x="360" y="960" on="0"/>
      </contour>
    </TTGlyph>
    <TTGlyph name="Edieresis" xMin="42" yMin="0" xMax="691" yMax="966">
      <contour>
        <pt x="299" y="713" on="1"/>
        <pt x="299" y="434" on="1"/>
        <pt x="425" y="434" on="1"/>
        <pt x="442" y="462" on="0"/>
        <pt x="462" y="519" on="0"/>
        <pt x="468" y="547" on="1"/>
        <pt x="510" y="547" on="1"/>
        <pt x="510" y="267" on="1"/>
        <pt x="468" y="267" on="1"/>
        <pt x="462" y="295" on="0"/>
        <pt x="441" y="352" on="0"/>
        <pt x="425" y="380" on="1"/>
        <pt x="299" y="380" on="1"/>
        <pt x="299" y="57" on="1"/>
        <pt x="548" y="57" on="1"/>
        <pt x="580" y="102" on="0"/>
        <pt x="621" y="189" on="0"/>
        <pt x="639" y="234" on="1"/>
        <pt x="691" y="234" on="1"/>
        <pt x="649" y="0" on="1"/>
        <pt x="42" y="0" on="1"/>
        <pt x="42" y="37" on="1"/>
        <pt x="127" y="56" on="1"/>
        <pt x="127" y="714" on="1"/>
        <pt x="42" y="733" on="1"/>
        <pt x="42" y="770" on="1"/>
        <pt x="654" y="770" on="1"/>
        <pt x="673" y="550" on="1"/>
        <pt x="631" y="550" on="1"/>
        <pt x="617" y="589" on="0"/>
        <pt x="580" y="674" on="0"/>
        <pt x="554" y="713" on="1"/>
      </contour>
      <contour>
        <pt x="195" y="897" on="1"/>
        <pt x="195" y="924" on="0"/>
        <pt x="232" y="966" on="0"/>
        <pt x="266" y="966" on="1"/>
        <pt x="300" y="966" on="0"/>
        <pt x="339" y="924" on="0"/>
        <pt x="339" y="897" on="1"/>
        <pt x="339" y="873" on="0"/>
        <pt x="302" y="830" on="0"/>
        <pt x="266" y="830" on="1"/>
        <pt x="231" y="830" on="0"/>
        <pt x="195" y="873" on="0"/>
      </contour>
      <contour>
        <pt x="402" y="897" on="1"/>
        <pt x="402" y="924" on="0"/>
        <pt x="439" y="966" on="0"/>
        <pt x="473" y="966" on="1"/>
        <pt x="507" y="966" on="0"/>
        <pt x="546" y="924" on="0"/>
        <pt x="546" y="897" on="1"/>
        <pt x="546" y="873" on="0"/>
        <pt x="510" y="830" on="0"/>
        <pt x="473" y="830" on="1"/>
        <pt x="438" y="830" on="0"/>
        <pt x="402" y="873" on="0"/>
      </contour>
    </TTGlyph>
    <TTGlyph name="Edotaccent" xMin="42" yMin="0" xMax="691" yMax="966">
      <contour>
        <pt x="299" y="713" on="1"/>
        <pt x="299" y="434" on="1"/>
        <pt x="425" y="434" on="1"/>
        <pt x="442" y="462" on="0"/>
        <pt x="462" y="519" on="0"/>
        <pt x="468" y="547" on="1"/>
        <pt x="510" y="547" on="1"/>
        <pt x="510" y="267" on="1"/>
        <pt x="468" y="267" on="1"/>
        <pt x="462" y="295" on="0"/>
        <pt x="441" y="352" on="0"/>
        <pt x="425" y="380" on="1"/>
        <pt x="299" y="380" on="1"/>
        <pt x="299" y="57" on="1"/>
        <pt x="548" y="57" on="1"/>
        <pt x="580" y="102" on="0"/>
        <pt x="621" y="189" on="0"/>
        <pt x="639" y="234" on="1"/>
        <pt x="691" y="234" on="1"/>
        <pt x="649" y="0" on="1"/>
        <pt x="42" y="0" on="1"/>
        <pt x="42" y="37" on="1"/>
        <pt x="127" y="56" on="1"/>
        <pt x="127" y="714" on="1"/>
        <pt x="42" y="733" on="1"/>
        <pt x="42" y="770" on="1"/>
        <pt x="654" y="770" on="1"/>
        <pt x="673" y="550" on="1"/>
        <pt x="631" y="550" on="1"/>
        <pt x="617" y="589" on="0"/>
        <pt x="580" y="674" on="0"/>
        <pt x="554" y="713" on="1"/>
      </contour>
      <contour>
        <pt x="310" y="898" on="1"/>
        <pt x="310" y="924" on="0"/>
        <pt x="347" y="966" on="0"/>
        <pt x="381" y="966" on="1"/>
        <pt x="415" y="966" on="0"/>
        <pt x="454" y="924" on="0"/>
        <pt x="454" y="898" on="1"/>
        <pt x="454" y="872" on="0"/>
        <pt x="417" y="830" on="0"/>
        <pt x="381" y="830" on="1"/>
        <pt x="346" y="830" on="0"/>
        <pt x="310" y="872" on="0"/>
      </contour>
    </TTGlyph>
    <TTGlyph name="Edotbelow" xMin="42" yMin="-260" xMax="691" yMax="770">
      <contour>
        <pt x="299" y="713" on="1"/>
        <pt x="299" y="434" on="1"/>
        <pt x="425" y="434" on="1"/>
        <pt x="442" y="462" on="0"/>
        <pt x="462" y="519" on="0"/>
        <pt x="468" y="547" on="1"/>
        <pt x="510" y="547" on="1"/>
        <pt x="510" y="267" on="1"/>
        <pt x="468" y="267" on="1"/>
        <pt x="462" y="295" on="0"/>
        <pt x="441" y="352" on="0"/>
        <pt x="425" y="380" on="1"/>
        <pt x="299" y="380" on="1"/>
        <pt x="299" y="57" on="1"/>
        <pt x="548" y="57" on="1"/>
        <pt x="580" y="102" on="0"/>
        <pt x="621" y="189" on="0"/>
        <pt x="639" y="234" on="1"/>
        <pt x="691" y="234" on="1"/>
        <pt x="649" y="0" on="1"/>
        <pt x="42" y="0" on="1"/>
        <pt x="42" y="37" on="1"/>
        <pt x="127" y="56" on="1"/>
        <pt x="127" y="714" on="1"/>
        <pt x="42" y="733" on="1"/>
        <pt x="42" y="770" on="1"/>
        <pt x="654" y="770" on="1"/>
        <pt x="673" y="550" on="1"/>
        <pt x="631" y="550" on="1"/>
        <pt x="617" y="589" on="0"/>
        <pt x="580" y="674" on="0"/>
        <pt x="554" y="713" on="1"/>
      </contour>
      <contour>
        <pt x="297" y="-178" on="1"/>
        <pt x="297" y="-145" on="0"/>
        <pt x="342" y="-95" on="0"/>
        <pt x="383" y="-95" on="1"/>
        <pt x="425" y="-95" on="0"/>
        <pt x="472" y="-145" on="0"/>
        <pt x="472" y="-178" on="1"/>
        <pt x="472" y="-209" on="0"/>
        <pt x="427" y="-260" on="0"/>
        <pt x="383" y="-260" on="1"/>
        <pt x="341" y="-260" on="0"/>
        <pt x="297" y="-209" on="0"/>
      </contour>
    </TTGlyph>
    <TTGlyph name="Egrave" xMin="42" yMin="0" xMax="691" yMax="963">
      <contour>
        <pt x="299" y="713" on="1"/>
        <pt x="299" y="434" on="1"/>
        <pt x="425" y="434" on="1"/>
        <pt x="442" y="462" on="0"/>
        <pt x="462" y="519" on="0"/>
        <pt x="468" y="547" on="1"/>
        <pt x="510" y="547" on="1"/>
        <pt x="510" y="267" on="1"/>
        <pt x="468" y="267" on="1"/>
        <pt x="462" y="295" on="0"/>
        <pt x="441" y="352" on="0"/>
        <pt x="425" y="380" on="1"/>
        <pt x="299" y="380" on="1"/>
        <pt x="299" y="57" on="1"/>
        <pt x="548" y="57" on="1"/>
        <pt x="580" y="102" on="0"/>
        <pt x="621" y="189" on="0"/>
        <pt x="639" y="234" on="1"/>
        <pt x="691" y="234" on="1"/>
        <pt x="649" y="0" on="1"/>
        <pt x="42" y="0" on="1"/>
        <pt x="42" y="37" on="1"/>
        <pt x="127" y="56" on="1"/>
        <pt x="127" y="714" on="1"/>
        <pt x="42" y="733" on="1"/>
        <pt x="42" y="770" on="1"/>
        <pt x="654" y="770" on="1"/>
        <pt x="673" y="550" on="1"/>
        <pt x="631" y="550" on="1"/>
        <pt x="617" y="589" on="0"/>
        <pt x="580" y="674" on="0"/>
        <pt x="554" y="713" on="1"/>
      </contour>
      <contour>
        <pt x="460" y="817" on="1"/>
        <pt x="295" y="849" on="1"/>
        <pt x="263" y="855" on="0"/>
        <pt x="236" y="890" on="0"/>
        <pt x="236" y="909" on="1"/>
        <pt x="236" y="930" on="0"/>
        <pt x="265" y="963" on="0"/>
        <pt x="291" y="963" on="1"/>
        <pt x="304" y="963" on="0"/>
        <pt x="335" y="952" on="0"/>
        <pt x="352" y="939" on="1"/>
        <pt x="477" y="845" on="1"/>
      </contour>
    </TTGlyph>
    <TTGlyph name="Emacron" xMin="42" yMin="0" xMax="691" yMax="960">
      <contour>
        <pt x="299" y="713" on="1"/>
        <pt x="299" y="434" on="1"/>
        <pt x="425" y="434" on="1"/>
        <pt x="442" y="462" on="0"/>
        <pt x="462" y="519" on="0"/>
        <pt x="468" y="547" on="1"/>
        <pt x="510" y="547" on="1"/>
        <pt x="510" y="267" on="1"/>
        <pt x="468" y="267" on="1"/>
        <pt x="462" y="295" on="0"/>
        <pt x="441" y="352" on="0"/>
        <pt x="425" y="380" on="1"/>
        <pt x="299" y="380" on="1"/>
        <pt x="299" y="57" on="1"/>
        <pt x="548" y="57" on="1"/>
        <pt x="580" y="102" on="0"/>
        <pt x="621" y="189" on="0"/>
        <pt x="639" y="234" on="1"/>
        <pt x="691" y="234" on="1"/>
        <pt x="649" y="0" on="1"/>
        <pt x="42" y="0" on="1"/>
        <pt x="42" y="37" on="1"/>
        <pt x="127" y="56" on="1"/>
        <pt x="127" y="714" on="1"/>
        <pt x="42" y="733" on="1"/>
        <pt x="42" y="770" on="1"/>
        <pt x="654" y="770" on="1"/>
        <pt x="673" y="550" on="1"/>
        <pt x="631" y="550" on="1"/>
        <pt x="617" y="589" on="0"/>
        <pt x="580" y="674" on="0"/>
        <pt x="554" y="713" on="1"/>
      </contour>
      <contour>
        <pt x="227" y="864" on="1"/>
        <pt x="227" y="960" on="1"/>
        <pt x="534" y="960" on="1"/>
        <pt x="534" y="864" on="1"/>
      </contour>
    </TTGlyph>
    <TTGlyph name="Eng" xMin="39" yMin="-260" xMax="847" yMax="770">
      <contour>
        <pt x="758" y="140" on="1"/>
        <pt x="758" y="72" on="0"/>
        <pt x="756" y="-16" on="0"/>
        <pt x="749" y="-74" on="0"/>
        <pt x="735" y="-112" on="0"/>
        <pt x="724" y="-131" on="1"/>
        <pt x="705" y="-163" on="0"/>
        <pt x="651" y="-212" on="0"/>
        <pt x="588" y="-244" on="0"/>
        <pt x="517" y="-260" on="0"/>
        <pt x="482" y="-260" on="1"/>
        <pt x="401" y="-260" on="0"/>
        <pt x="313" y="-202" on="0"/>
        <pt x="313" y="-153" on="1"/>
        <pt x="313" y="-115" on="0"/>
        <pt x="355" y="-77" on="0"/>
        <pt x="385" y="-77" on="1"/>
        <pt x="415" y="-77" on="0"/>
        <pt x="448" y="-112" on="0"/>
        <pt x="458" y="-139" on="1"/>
        <pt x="469" y="-173" on="0"/>
        <pt x="495" y="-203" on="0"/>
        <pt x="514" y="-203" on="1"/>
        <pt x="544" y="-203" on="0"/>
        <pt x="586" y="-124" on="0"/>
        <pt x="586" y="-43" on="1"/>
        <pt x="586" y="120" on="1"/>
        <pt x="197" y="610" on="1"/>
        <pt x="197" y="56" on="1"/>
        <pt x="285" y="37" on="1"/>
        <pt x="285" y="0" on="1"/>
        <pt x="39" y="0" on="1"/>
        <pt x="39" y="37" on="1"/>
        <pt x="128" y="56" on="1"/>
        <pt x="128" y="714" on="1"/>
        <pt x="40" y="733" on="1"/>
        <pt x="40" y="770" on="1"/>
        <pt x="311" y="770" on="1"/>
        <pt x="689" y="295" on="1"/>
        <pt x="689" y="714" on="1"/>
        <pt x="601" y="733" on="1"/>
        <pt x="601" y="770" on="1"/>
        <pt x="847" y="770" on="1"/>
        <pt x="847" y="733" on="1"/>
        <pt x="758" y="714" on="1"/>
      </contour>
    </TTGlyph>
    <TTGlyph name="Eogonek" xMin="42" yMin="-256" xMax="691" yMax="770">
      <contour>
        <pt x="642" y="-202" on="1"/>
        <pt x="587" y="-256" on="0"/>
        <pt x="512" y="-256" on="1"/>
        <pt x="465" y="-256" on="0"/>
        <pt x="410" y="-209" on="0"/>
        <pt x="410" y="-168" on="1"/>
        <pt x="410" y="-129" on="0"/>
        <pt x="470" y="-41" on="0"/>
        <pt x="524" y="0" on="1"/>
        <pt x="42" y="0" on="1"/>
        <pt x="42" y="37" on="1"/>
        <pt x="127" y="56" on="1"/>
        <pt x="127" y="714" on="1"/>
        <pt x="42" y="733" on="1"/>
        <pt x="42" y="770" on="1"/>
        <pt x="654" y="770" on="1"/>
        <pt x="673" y="550" on="1"/>
        <pt x="631" y="550" on="1"/>
        <pt x="617" y="589" on="0"/>
        <pt x="580" y="674" on="0"/>
        <pt x="554" y="713" on="1"/>
        <pt x="299" y="713" on="1"/>
        <pt x="299" y="434" on="1"/>
        <pt x="425" y="434" on="1"/>
        <pt x="442" y="462" on="0"/>
        <pt x="462" y="519" on="0"/>
        <pt x="468" y="547" on="1"/>
        <pt x="510" y="547" on="1"/>
        <pt x="510" y="267" on="1"/>
        <pt x="468" y="267" on="1"/>
        <pt x="462" y="295" on="0"/>
        <pt x="441" y="352" on="0"/>
        <pt x="425" y="380" on="1"/>
        <pt x="299" y="380" on="1"/>
        <pt x="299" y="57" on="1"/>
        <pt x="548" y="57" on="1"/>
        <pt x="580" y="102" on="0"/>
        <pt x="621" y="189" on="0"/>
        <pt x="639" y="234" on="1"/>
        <pt x="691" y="234" on="1"/>
        <pt x="649" y="0" on="1"/>
        <pt x="586" y="0" on="1"/>
        <pt x="523" y="-69" on="0"/>
        <pt x="523" y="-124" on="1"/>
        <pt x="523" y="-181" on="0"/>
        <pt x="571" y="-181" on="1"/>
        <pt x="585" y="-181" on="0"/>
        <pt x="610" y="-171" on="0"/>
        <pt x="627" y="-160" on="1"/>
      </contour>
    </TTGlyph>
    <TTGlyph name="Eth" xMin="41" yMin="0" xMax="832" yMax="770">
      <contour>
        <pt x="41" y="0" on="1"/>
        <pt x="41" y="38" on="1"/>
        <pt x="127" y="57" on="1"/>
        <pt x="127" y="354" on="1"/>
        <pt x="52" y="354" on="1"/>
        <pt x="52" y="439" on="1"/>
        <pt x="127" y="439" on="1"/>
        <pt x="127" y="714" on="1"/>
        <pt x="41" y="733" on="1"/>
        <pt x="41" y="770" on="1"/>
        <pt x="314" y="770" on="1"/>
        <pt x="379" y="770" on="0"/>
        <pt x="485" y="762" on="0"/>
        <pt x="571" y="745" on="0"/>
        <pt x="642" y="717" on="0"/>
        <pt x="672" y="697" on="1"/>
        <pt x="746" y="648" on="0"/>
        <pt x="832" y="489" on="0"/>
        <pt x="832" y="386" on="1"/>
        <pt x="832" y="280" on="0"/>
        <pt x="741" y="108" on="0"/>
        <pt x="664" y="59" on="1"/>
        <pt x="639" y="43" on="0"/>
        <pt x="586" y="21" on="0"/>
        <pt x="525" y="7" on="0"/>
        <pt x="454" y="0" on="0"/>
        <pt x="412" y="0" on="1"/>
      </contour>
      <contour>
        <pt x="401" y="54" on="1"/>
        <pt x="518" y="54" on="0"/>
        <pt x="575" y="121" on="1"/>
        <pt x="609" y="161" on="0"/>
        <pt x="640" y="292" on="0"/>
        <pt x="640" y="386" on="1"/>
        <pt x="640" y="478" on="0"/>
        <pt x="609" y="601" on="0"/>
        <pt x="575" y="642" on="1"/>
        <pt x="516" y="714" on="0"/>
        <pt x="389" y="714" on="1"/>
        <pt x="299" y="714" on="1"/>
        <pt x="299" y="439" on="1"/>
        <pt x="439" y="439" on="1"/>
        <pt x="439" y="354" on="1"/>
        <pt x="299" y="354" on="1"/>
        <pt x="299" y="114" on="1"/>
        <pt x="299" y="82" on="0"/>
        <pt x="346" y="54" on="0"/>
      </contour>
    </TTGlyph>
    <TTGlyph name="Etilde" xMin="42" yMin="0" xMax="691" yMax="965">
      <contour>
        <pt x="299" y="713" on="1"/>
        <pt x="299" y="434" on="1"/>
        <pt x="425" y="434" on="1"/>
        <pt x="442" y="462" on="0"/>
        <pt x="462" y="519" on="0"/>
        <pt x="468" y="547" on="1"/>
        <pt x="510" y="547" on="1"/>
        <pt x="510" y="267" on="1"/>
        <pt x="468" y="267" on="1"/>
        <pt x="462" y="295" on="0"/>
        <pt x="441" y="352" on="0"/>
        <pt x="425" y="380" on="1"/>
        <pt x="299" y="380" on="1"/>
        <pt x="299" y="57" on="1"/>
        <pt x="548" y="57" on="1"/>
        <pt x="580" y="102" on="0"/>
        <pt x="621" y="189" on="0"/>
        <pt x="639" y="234" on="1"/>
        <pt x="691" y="234" on="1"/>
        <pt x="649" y="0" on="1"/>
        <pt x="42" y="0" on="1"/>
        <pt x="42" y="37" on="1"/>
        <pt x="127" y="56" on="1"/>
        <pt x="127" y="714" on="1"/>
        <pt x="42" y="733" on="1"/>
        <pt x="42" y="770" on="1"/>
        <pt x="654" y="770" on="1"/>
        <pt x="673" y="550" on="1"/>
        <pt x="631" y="550" on="1"/>
        <pt x="617" y="589" on="0"/>
        <pt x="580" y="674" on="0"/>
        <pt x="554" y="713" on="1"/>
      </contour>
      <contour>
        <pt x="214" y="821" on="1"/>
        <pt x="214" y="892" on="0"/>
        <pt x="274" y="963" on="0"/>
        <pt x="321" y="963" on="1"/>
        <pt x="340" y="963" on="0"/>
        <pt x="370" y="952" on="0"/>
        <pt x="397" y="938" on="0"/>
        <pt x="425" y="927" on="0"/>
        <pt x="442" y="927" on="1"/>
        <pt x="492" y="927" on="0"/>
        <pt x="502" y="965" on="1"/>
        <pt x="541" y="965" on="1"/>
        <pt x="541" y="896" on="0"/>
        <pt x="490" y="820" on="0"/>
        <pt x="439" y="820" on="1"/>
        <pt x="418" y="820" on="0"/>
        <pt x="388" y="832" on="0"/>
        <pt x="361" y="847" on="0"/>
        <pt x="333" y="859" on="0"/>
        <pt x="314" y="859" on="1"/>
        <pt x="288" y="859" on="0"/>
        <pt x="256" y="838" on="0"/>
        <pt x="253" y="821" on="1"/>
      </contour>
    </TTGlyph>
    <TTGlyph name="Euro" xMin="34" yMin="-10" xMax="588" yMax="780">
      <contour>
        <pt x="296" y="290" on="1"/>
        <pt x="299" y="221" on="0"/>
        <pt x="312" y="129" on="0"/>
        <pt x="334" y="73" on="0"/>
        <pt x="365" y="49" on="0"/>
        <pt x="386" y="49" on="1"/>
        <pt x="405" y="49" on="0"/>
        <pt x="430" y="65" on="0"/>
        <pt x="448" y="91" on="0"/>
        <pt x="459" y="123" on="0"/>
        <pt x="463" y="139" on="1"/>
        <pt x="465" y="148" on="0"/>
        <pt x="473" y="171" on="0"/>
        <pt x="488" y="192" on="0"/>
        <pt x="513" y="207" on="0"/>
        <pt x="533" y="207" on="1"/>
        <pt x="588" y="207" on="0"/>
        <pt x="588" y="145" on="1"/>
        <pt x="588" y="112" on="0"/>
        <pt x="557" y="56" on="0"/>
        <pt x="503" y="14" on="0"/>
        <pt x="431" y="-10" on="0"/>
        <pt x="391" y="-10" on="1"/>
        <pt x="337" y="-10" on="0"/>
        <pt x="245" y="33" on="0"/>
        <pt x="175" y="112" on="0"/>
        <pt x="128" y="223" on="0"/>
        <pt x="118" y="290" on="1"/>
        <pt x="34" y="290" on="1"/>
        <pt x="44" y="354" on="1"/>
        <pt x="112" y="354" on="1"/>
        <pt x="112" y="381" on="1"/>
        <pt x="112" y="389" on="0"/>
        <pt x="112" y="403" on="0"/>
        <pt x="113" y="411" on="1"/>
        <pt x="54" y="411" on="1"/>
        <pt x="64" y="475" on="1"/>
        <pt x="119" y="475" on="1"/>
        <pt x="129" y="543" on="0"/>
        <pt x="177" y="655" on="0"/>
        <pt x="249" y="736" on="0"/>
        <pt x="341" y="780" on="0"/>
        <pt x="395" y="780" on="1"/>
        <pt x="434" y="780" on="0"/>
        <pt x="505" y="757" on="0"/>
        <pt x="557" y="717" on="0"/>
        <pt x="588" y="663" on="0"/>
        <pt x="588" y="633" on="1"/>
        <pt x="588" y="604" on="0"/>
        <pt x="559" y="572" on="0"/>
        <pt x="534" y="572" on="1"/>
        <pt x="517" y="572" on="0"/>
        <pt x="495" y="585" on="0"/>
        <pt x="480" y="604" on="0"/>
        <pt x="471" y="628" on="0"/>
        <pt x="468" y="640" on="1"/>
        <pt x="459" y="678" on="0"/>
        <pt x="429" y="720" on="0"/>
        <pt x="397" y="720" on="1"/>
        <pt x="375" y="720" on="0"/>
        <pt x="341" y="697" on="0"/>
        <pt x="316" y="642" on="0"/>
        <pt x="300" y="547" on="0"/>
        <pt x="297" y="475" on="1"/>
        <pt x="495" y="475" on="1"/>
        <pt x="485" y="411" on="1"/>
        <pt x="295" y="411" on="1"/>
        <pt x="295" y="354" on="1"/>
        <pt x="475" y="354" on="1"/>
        <pt x="465" y="290" on="1"/>
      </contour>
    </TTGlyph>
    <TTGlyph name="Euro.tnum" xMin="0" yMin="-10" xMax="554" yMax="780">
      <contour>
        <pt x="262" y="290" on="1"/>
        <pt x="265" y="221" on="0"/>
        <pt x="278" y="129" on="0"/>
        <pt x="300" y="73" on="0"/>
        <pt x="331" y="49" on="0"/>
        <pt x="352" y="49" on="1"/>
        <pt x="371" y="49" on="0"/>
        <pt x="396" y="65" on="0"/>
        <pt x="414" y="91" on="0"/>
        <pt x="425" y="123" on="0"/>
        <pt x="429" y="139" on="1"/>
        <pt x="431" y="148" on="0"/>
        <pt x="439" y="171" on="0"/>
        <pt x="454" y="192" on="0"/>
        <pt x="479" y="207" on="0"/>
        <pt x="499" y="207" on="1"/>
        <pt x="554" y="207" on="0"/>
        <pt x="554" y="145" on="1"/>
        <pt x="554" y="112" on="0"/>
        <pt x="523" y="56" on="0"/>
        <pt x="469" y="14" on="0"/>
        <pt x="397" y="-10" on="0"/>
        <pt x="357" y="-10" on="1"/>
        <pt x="303" y="-10" on="0"/>
        <pt x="211" y="33" on="0"/>
        <pt x="141" y="112" on="0"/>
        <pt x="94" y="223" on="0"/>
        <pt x="84" y="290" on="1"/>
        <pt x="0" y="290" on="1"/>
        <pt x="10" y="354" on="1"/>
        <pt x="79" y="354" on="1"/>
        <pt x="79" y="411" on="1"/>
        <pt x="20" y="411" on="1"/>
        <pt x="30" y="475" on="1"/>
        <pt x="85" y="475" on="1"/>
        <pt x="95" y="543" on="0"/>
        <pt x="143" y="655" on="0"/>
        <pt x="215" y="736" on="0"/>
        <pt x="307" y="780" on="0"/>
        <pt x="361" y="780" on="1"/>
        <pt x="400" y="780" on="0"/>
        <pt x="471" y="757" on="0"/>
        <pt x="523" y="717" on="0"/>
        <pt x="554" y="663" on="0"/>
        <pt x="554" y="633" on="1"/>
        <pt x="554" y="604" on="0"/>
        <pt x="525" y="572" on="0"/>
        <pt x="500" y="572" on="1"/>
        <pt x="483" y="572" on="0"/>
        <pt x="461" y="585" on="0"/>
        <pt x="446" y="604" on="0"/>
        <pt x="437" y="628" on="0"/>
        <pt x="434" y="640" on="1"/>
        <pt x="425" y="678" on="0"/>
        <pt x="395" y="720" on="0"/>
        <pt x="363" y="720" on="1"/>
        <pt x="341" y="720" on="0"/>
        <pt x="307" y="697" on="0"/>
        <pt x="282" y="642" on="0"/>
        <pt x="266" y="547" on="0"/>
        <pt x="263" y="475" on="1"/>
        <pt x="461" y="475" on="1"/>
        <pt x="451" y="411" on="1"/>
        <pt x="261" y="411" on="1"/>
        <pt x="261" y="354" on="1"/>
        <pt x="441" y="354" on="1"/>
        <pt x="431" y="290" on="1"/>
      </contour>
    </TTGlyph>
    <TTGlyph name="F" xMin="42" yMin="0" xMax="671" yMax="770">
      <contour>
        <pt x="298" y="713" on="1"/>
        <pt x="298" y="434" on="1"/>
        <pt x="433" y="434" on="1"/>
        <pt x="447" y="463" on="0"/>
        <pt x="465" y="518" on="0"/>
        <pt x="470" y="547" on="1"/>
        <pt x="509" y="547" on="1"/>
        <pt x="509" y="267" on="1"/>
        <pt x="470" y="267" on="1"/>
        <pt x="459" y="326" on="0"/>
        <pt x="433" y="381" on="1"/>
        <pt x="298" y="381" on="1"/>
        <pt x="298" y="56" on="1"/>
        <pt x="412" y="37" on="1"/>
        <pt x="412" y="0" on="1"/>
        <pt x="42" y="0" on="1"/>
        <pt x="42" y="37" on="1"/>
        <pt x="127" y="56" on="1"/>
        <pt x="127" y="714" on="1"/>
        <pt x="42" y="733" on="1"/>
        <pt x="42" y="770" on="1"/>
        <pt x="654" y="770" on="1"/>
        <pt x="671" y="550" on="1"/>
        <pt x="632" y="550" on="1"/>
        <pt x="620" y="589" on="0"/>
        <pt x="585" y="674" on="0"/>
        <pt x="560" y="713" on="1"/>
      </contour>
    </TTGlyph>
    <TTGlyph name="G" xMin="45" yMin="-10" xMax="838" yMax="780">
      <contour>
        <pt x="749" y="81" on="1"/>
        <pt x="725" y="61" on="0"/>
        <pt x="654" y="28" on="0"/>
        <pt x="569" y="4" on="0"/>
        <pt x="477" y="-10" on="0"/>
        <pt x="434" y="-10" on="1"/>
        <pt x="346" y="-10" on="0"/>
        <pt x="203" y="45" on="0"/>
        <pt x="101" y="145" on="0"/>
        <pt x="45" y="287" on="0"/>
        <pt x="45" y="373" on="1"/>
        <pt x="45" y="463" on="0"/>
        <pt x="104" y="612" on="0"/>
        <pt x="211" y="720" on="0"/>
        <pt x="358" y="780" on="0"/>
        <pt x="446" y="780" on="1"/>
        <pt x="513" y="780" on="0"/>
        <pt x="630" y="748" on="0"/>
        <pt x="667" y="719" on="1"/>
        <pt x="671" y="719" on="1"/>
        <pt x="715" y="770" on="1"/>
        <pt x="747" y="770" on="1"/>
        <pt x="747" y="525" on="1"/>
        <pt x="702" y="525" on="1"/>
        <pt x="676" y="579" on="0"/>
        <pt x="625" y="653" on="0"/>
        <pt x="569" y="699" on="0"/>
        <pt x="504" y="720" on="0"/>
        <pt x="464" y="720" on="1"/>
        <pt x="237" y="720" on="0"/>
        <pt x="237" y="377" on="1"/>
        <pt x="237" y="291" on="0"/>
        <pt x="261" y="166" on="0"/>
        <pt x="309" y="86" on="0"/>
        <pt x="383" y="48" on="0"/>
        <pt x="434" y="48" on="1"/>
        <pt x="478" y="48" on="0"/>
        <pt x="548" y="79" on="0"/>
        <pt x="566" y="105" on="1"/>
        <pt x="573" y="115" on="0"/>
        <pt x="577" y="137" on="0"/>
        <pt x="577" y="161" on="1"/>
        <pt x="577" y="330" on="1"/>
        <pt x="487" y="349" on="1"/>
        <pt x="487" y="386" on="1"/>
        <pt x="838" y="386" on="1"/>
        <pt x="838" y="349" on="1"/>
        <pt x="749" y="330" on="1"/>
      </contour>
    </TTGlyph>
    <TTGlyph name="Gbreve" xMin="45" yMin="-10" xMax="838" yMax="965">
      <contour>
        <pt x="749" y="81" on="1"/>
        <pt x="725" y="61" on="0"/>
        <pt x="654" y="28" on="0"/>
        <pt x="569" y="4" on="0"/>
        <pt x="477" y="-10" on="0"/>
        <pt x="434" y="-10" on="1"/>
        <pt x="346" y="-10" on="0"/>
        <pt x="203" y="45" on="0"/>
        <pt x="101" y="145" on="0"/>
        <pt x="45" y="287" on="0"/>
        <pt x="45" y="373" on="1"/>
        <pt x="45" y="463" on="0"/>
        <pt x="104" y="612" on="0"/>
        <pt x="211" y="720" on="0"/>
        <pt x="358" y="780" on="0"/>
        <pt x="446" y="780" on="1"/>
        <pt x="513" y="780" on="0"/>
        <pt x="630" y="748" on="0"/>
        <pt x="667" y="719" on="1"/>
        <pt x="671" y="719" on="1"/>
        <pt x="715" y="770" on="1"/>
        <pt x="747" y="770" on="1"/>
        <pt x="747" y="525" on="1"/>
        <pt x="702" y="525" on="1"/>
        <pt x="676" y="579" on="0"/>
        <pt x="625" y="653" on="0"/>
        <pt x="569" y="699" on="0"/>
        <pt x="504" y="720" on="0"/>
        <pt x="464" y="720" on="1"/>
        <pt x="237" y="720" on="0"/>
        <pt x="237" y="377" on="1"/>
        <pt x="237" y="291" on="0"/>
        <pt x="261" y="166" on="0"/>
        <pt x="309" y="86" on="0"/>
        <pt x="383" y="48" on="0"/>
        <pt x="434" y="48" on="1"/>
        <pt x="478" y="48" on="0"/>
        <pt x="548" y="79" on="0"/>
        <pt x="566" y="105" on="1"/>
        <pt x="573" y="115" on="0"/>
        <pt x="577" y="137" on="0"/>
        <pt x="577" y="161" on="1"/>
        <pt x="577" y="330" on="1"/>
        <pt x="487" y="349" on="1"/>
        <pt x="487" y="386" on="1"/>
        <pt x="838" y="386" on="1"/>
        <pt x="838" y="349" on="1"/>
        <pt x="749" y="330" on="1"/>
      </contour>
      <contour>
        <pt x="346" y="965" on="1"/>
        <pt x="358" y="948" on="0"/>
        <pt x="414" y="933" on="0"/>
        <pt x="447" y="933" on="1"/>
        <pt x="479" y="933" on="0"/>
        <pt x="534" y="948" on="0"/>
        <pt x="551" y="965" on="1"/>
        <pt x="600" y="965" on="1"/>
        <pt x="587" y="919" on="0"/>
        <pt x="548" y="865" on="0"/>
        <pt x="504" y="837" on="0"/>
        <pt x="460" y="829" on="0"/>
        <pt x="443" y="829" on="1"/>
        <pt x="420" y="829" on="0"/>
        <pt x="371" y="843" on="0"/>
        <pt x="330" y="875" on="0"/>
        <pt x="300" y="927" on="0"/>
        <pt x="296" y="965" on="1"/>
      </contour>
    </TTGlyph>
    <TTGlyph name="Gcircumflex" xMin="45" yMin="-10" xMax="838" yMax="960">
      <contour>
        <pt x="749" y="81" on="1"/>
        <pt x="725" y="61" on="0"/>
        <pt x="654" y="28" on="0"/>
        <pt x="569" y="4" on="0"/>
        <pt x="477" y="-10" on="0"/>
        <pt x="434" y="-10" on="1"/>
        <pt x="346" y="-10" on="0"/>
        <pt x="203" y="45" on="0"/>
        <pt x="101" y="145" on="0"/>
        <pt x="45" y="287" on="0"/>
        <pt x="45" y="373" on="1"/>
        <pt x="45" y="463" on="0"/>
        <pt x="104" y="612" on="0"/>
        <pt x="211" y="720" on="0"/>
        <pt x="358" y="780" on="0"/>
        <pt x="446" y="780" on="1"/>
        <pt x="513" y="780" on="0"/>
        <pt x="630" y="748" on="0"/>
        <pt x="667" y="719" on="1"/>
        <pt x="671" y="719" on="1"/>
        <pt x="715" y="770" on="1"/>
        <pt x="747" y="770" on="1"/>
        <pt x="747" y="525" on="1"/>
        <pt x="702" y="525" on="1"/>
        <pt x="676" y="579" on="0"/>
        <pt x="625" y="653" on="0"/>
        <pt x="569" y="699" on="0"/>
        <pt x="504" y="720" on="0"/>
        <pt x="464" y="720" on="1"/>
        <pt x="237" y="720" on="0"/>
        <pt x="237" y="377" on="1"/>
        <pt x="237" y="291" on="0"/>
        <pt x="261" y="166" on="0"/>
        <pt x="309" y="86" on="0"/>
        <pt x="383" y="48" on="0"/>
        <pt x="434" y="48" on="1"/>
        <pt x="478" y="48" on="0"/>
        <pt x="548" y="79" on="0"/>
        <pt x="566" y="105" on="1"/>
        <pt x="573" y="115" on="0"/>
        <pt x="577" y="137" on="0"/>
        <pt x="577" y="161" on="1"/>
        <pt x="577" y="330" on="1"/>
        <pt x="487" y="349" on="1"/>
        <pt x="487" y="386" on="1"/>
        <pt x="838" y="386" on="1"/>
        <pt x="838" y="349" on="1"/>
        <pt x="749" y="330" on="1"/>
      </contour>
      <contour>
        <pt x="447" y="960" on="1"/>
        <pt x="464" y="960" on="0"/>
        <pt x="495" y="944" on="0"/>
        <pt x="515" y="927" on="1"/>
        <pt x="619" y="843" on="1"/>
        <pt x="603" y="821" on="1"/>
        <pt x="446" y="862" on="1"/>
        <pt x="289" y="821" on="1"/>
        <pt x="273" y="843" on="1"/>
        <pt x="375" y="927" on="1"/>
        <pt x="395" y="944" on="0"/>
        <pt x="427" y="960" on="0"/>
      </contour>
    </TTGlyph>
    <TTGlyph name="Gcommaaccent" xMin="45" yMin="-260" xMax="838" yMax="780">
      <contour>
        <pt x="749" y="81" on="1"/>
        <pt x="725" y="61" on="0"/>
        <pt x="654" y="28" on="0"/>
        <pt x="569" y="4" on="0"/>
        <pt x="477" y="-10" on="0"/>
        <pt x="434" y="-10" on="1"/>
        <pt x="346" y="-10" on="0"/>
        <pt x="203" y="45" on="0"/>
        <pt x="101" y="145" on="0"/>
        <pt x="45" y="287" on="0"/>
        <pt x="45" y="373" on="1"/>
        <pt x="45" y="463" on="0"/>
        <pt x="104" y="612" on="0"/>
        <pt x="211" y="720" on="0"/>
        <pt x="358" y="780" on="0"/>
        <pt x="446" y="780" on="1"/>
        <pt x="513" y="780" on="0"/>
        <pt x="630" y="748" on="0"/>
        <pt x="667" y="719" on="1"/>
        <pt x="671" y="719" on="1"/>
        <pt x="715" y="770" on="1"/>
        <pt x="747" y="770" on="1"/>
        <pt x="747" y="525" on="1"/>
        <pt x="702" y="525" on="1"/>
        <pt x="676" y="579" on="0"/>
        <pt x="625" y="653" on="0"/>
        <pt x="569" y="699" on="0"/>
        <pt x="504" y="720" on="0"/>
        <pt x="464" y="720" on="1"/>
        <pt x="237" y="720" on="0"/>
        <pt x="237" y="377" on="1"/>
        <pt x="237" y="291" on="0"/>
        <pt x="261" y="166" on="0"/>
        <pt x="309" y="86" on="0"/>
        <pt x="383" y="48" on="0"/>
        <pt x="434" y="48" on="1"/>
        <pt x="478" y="48" on="0"/>
        <pt x="548" y="79" on="0"/>
        <pt x="566" y="105" on="1"/>
        <pt x="573" y="115" on="0"/>
        <pt x="577" y="137" on="0"/>
        <pt x="577" y="161" on="1"/>
        <pt x="577" y="330" on="1"/>
        <pt x="487" y="349" on="1"/>
        <pt x="487" y="386" on="1"/>
        <pt x="838" y="386" on="1"/>
        <pt x="838" y="349" on="1"/>
        <pt x="749" y="330" on="1"/>
      </contour>
      <contour>
        <pt x="376" y="-236" on="1"/>
        <pt x="391" y="-222" on="0"/>
        <pt x="410" y="-189" on="0"/>
        <pt x="410" y="-178" on="1"/>
        <pt x="410" y="-167" on="0"/>
        <pt x="395" y="-154" on="0"/>
        <pt x="378" y="-140" on="0"/>
        <pt x="363" y="-121" on="0"/>
        <pt x="363" y="-105" on="1"/>
        <pt x="363" y="-82" on="0"/>
        <pt x="401" y="-52" on="0"/>
        <pt x="430" y="-52" on="1"/>
        <pt x="462" y="-52" on="0"/>
        <pt x="498" y="-94" on="0"/>
        <pt x="498" y="-130" on="1"/>
        <pt x="498" y="-172" on="0"/>
        <pt x="447" y="-240" on="0"/>
        <pt x="399" y="-260" on="1"/>
      </contour>
    </TTGlyph>
    <TTGlyph name="Gdotaccent" xMin="45" yMin="-10" xMax="838" yMax="966">
      <contour>
        <pt x="749" y="81" on="1"/>
        <pt x="725" y="61" on="0"/>
        <pt x="654" y="28" on="0"/>
        <pt x="569" y="4" on="0"/>
        <pt x="477" y="-10" on="0"/>
        <pt x="434" y="-10" on="1"/>
        <pt x="346" y="-10" on="0"/>
        <pt x="203" y="45" on="0"/>
        <pt x="101" y="145" on="0"/>
        <pt x="45" y="287" on="0"/>
        <pt x="45" y="373" on="1"/>
        <pt x="45" y="463" on="0"/>
        <pt x="104" y="612" on="0"/>
        <pt x="211" y="720" on="0"/>
        <pt x="358" y="780" on="0"/>
        <pt x="446" y="780" on="1"/>
        <pt x="513" y="780" on="0"/>
        <pt x="630" y="748" on="0"/>
        <pt x="667" y="719" on="1"/>
        <pt x="671" y="719" on="1"/>
        <pt x="715" y="770" on="1"/>
        <pt x="747" y="770" on="1"/>
        <pt x="747" y="525" on="1"/>
        <pt x="702" y="525" on="1"/>
        <pt x="676" y="579" on="0"/>
        <pt x="625" y="653" on="0"/>
        <pt x="569" y="699" on="0"/>
        <pt x="504" y="720" on="0"/>
        <pt x="464" y="720" on="1"/>
        <pt x="237" y="720" on="0"/>
        <pt x="237" y="377" on="1"/>
        <pt x="237" y="291" on="0"/>
        <pt x="261" y="166" on="0"/>
        <pt x="309" y="86" on="0"/>
        <pt x="383" y="48" on="0"/>
        <pt x="434" y="48" on="1"/>
        <pt x="478" y="48" on="0"/>
        <pt x="548" y="79" on="0"/>
        <pt x="566" y="105" on="1"/>
        <pt x="573" y="115" on="0"/>
        <pt x="577" y="137" on="0"/>
        <pt x="577" y="161" on="1"/>
        <pt x="577" y="330" on="1"/>
        <pt x="487" y="349" on="1"/>
        <pt x="487" y="386" on="1"/>
        <pt x="838" y="386" on="1"/>
        <pt x="838" y="349" on="1"/>
        <pt x="749" y="330" on="1"/>
      </contour>
      <contour>
        <pt x="379" y="898" on="1"/>
        <pt x="379" y="924" on="0"/>
        <pt x="416" y="966" on="0"/>
        <pt x="450" y="966" on="1"/>
        <pt x="484" y="966" on="0"/>
        <pt x="523" y="924" on="0"/>
        <pt x="523" y="898" on="1"/>
        <pt x="523" y="872" on="0"/>
        <pt x="486" y="830" on="0"/>
        <pt x="450" y="830" on="1"/>
        <pt x="415" y="830" on="0"/>
        <pt x="379" y="872" on="0"/>
      </contour>
    </TTGlyph>
    <TTGlyph name="H" xMin="42" yMin="0" xMax="881" yMax="770">
      <contour>
        <pt x="625" y="378" on="1"/>
        <pt x="299" y="378" on="1"/>
        <pt x="299" y="58" on="1"/>
        <pt x="383" y="37" on="1"/>
        <pt x="383" y="0" on="1"/>
        <pt x="42" y="0" on="1"/>
        <pt x="42" y="37" on="1"/>
        <pt x="127" y="58" on="1"/>
        <pt x="127" y="713" on="1"/>
        <pt x="42" y="733" on="1"/>
        <pt x="42" y="770" on="1"/>
        <pt x="383" y="770" on="1"/>
        <pt x="383" y="733" on="1"/>
        <pt x="299" y="713" on="1"/>
        <pt x="299" y="435" on="1"/>
        <pt x="625" y="435" on="1"/>
        <pt x="625" y="713" on="1"/>
        <pt x="540" y="733" on="1"/>
        <pt x="540" y="770" on="1"/>
        <pt x="881" y="770" on="1"/>
        <pt x="881" y="733" on="1"/>
        <pt x="797" y="713" on="1"/>
        <pt x="797" y="58" on="1"/>
        <pt x="881" y="37" on="1"/>
        <pt x="881" y="0" on="1"/>
        <pt x="540" y="0" on="1"/>
        <pt x="540" y="37" on="1"/>
        <pt x="625" y="58" on="1"/>
      </contour>
    </TTGlyph>
    <TTGlyph name="Hbar" xMin="43" yMin="0" xMax="882" yMax="770">
      <contour>
        <pt x="128" y="537" on="1"/>
        <pt x="53" y="537" on="1"/>
        <pt x="53" y="612" on="1"/>
        <pt x="128" y="612" on="1"/>
        <pt x="128" y="713" on="1"/>
        <pt x="43" y="733" on="1"/>
        <pt x="43" y="770" on="1"/>
        <pt x="384" y="770" on="1"/>
        <pt x="384" y="733" on="1"/>
        <pt x="300" y="713" on="1"/>
        <pt x="300" y="612" on="1"/>
        <pt x="626" y="612" on="1"/>
        <pt x="626" y="713" on="1"/>
        <pt x="541" y="733" on="1"/>
        <pt x="541" y="770" on="1"/>
        <pt x="882" y="770" on="1"/>
        <pt x="882" y="733" on="1"/>
        <pt x="798" y="713" on="1"/>
        <pt x="798" y="612" on="1"/>
        <pt x="875" y="612" on="1"/>
        <pt x="875" y="537" on="1"/>
        <pt x="798" y="537" on="1"/>
        <pt x="798" y="58" on="1"/>
        <pt x="882" y="37" on="1"/>
        <pt x="882" y="0" on="1"/>
        <pt x="541" y="0" on="1"/>
        <pt x="541" y="37" on="1"/>
        <pt x="626" y="58" on="1"/>
        <pt x="626" y="378" on="1"/>
        <pt x="300" y="378" on="1"/>
        <pt x="300" y="58" on="1"/>
        <pt x="384" y="37" on="1"/>
        <pt x="384" y="0" on="1"/>
        <pt x="43" y="0" on="1"/>
        <pt x="43" y="37" on="1"/>
        <pt x="128" y="58" on="1"/>
      </contour>
      <contour>
        <pt x="300" y="435" on="1"/>
        <pt x="626" y="435" on="1"/>
        <pt x="626" y="537" on="1"/>
        <pt x="300" y="537" on="1"/>
      </contour>
    </TTGlyph>
    <TTGlyph name="Hcircumflex" xMin="42" yMin="0" xMax="881" yMax="960">
      <contour>
        <pt x="625" y="378" on="1"/>
        <pt x="299" y="378" on="1"/>
        <pt x="299" y="58" on="1"/>
        <pt x="383" y="37" on="1"/>
        <pt x="383" y="0" on="1"/>
        <pt x="42" y="0" on="1"/>
        <pt x="42" y="37" on="1"/>
        <pt x="127" y="58" on="1"/>
        <pt x="127" y="713" on="1"/>
        <pt x="42" y="733" on="1"/>
        <pt x="42" y="770" on="1"/>
        <pt x="383" y="770" on="1"/>
        <pt x="383" y="733" on="1"/>
        <pt x="299" y="713" on="1"/>
        <pt x="299" y="435" on="1"/>
        <pt x="625" y="435" on="1"/>
        <pt x="625" y="713" on="1"/>
        <pt x="540" y="733" on="1"/>
        <pt x="540" y="770" on="1"/>
        <pt x="881" y="770" on="1"/>
        <pt x="881" y="733" on="1"/>
        <pt x="797" y="713" on="1"/>
        <pt x="797" y="58" on="1"/>
        <pt x="881" y="37" on="1"/>
        <pt x="881" y="0" on="1"/>
        <pt x="540" y="0" on="1"/>
        <pt x="540" y="37" on="1"/>
        <pt x="625" y="58" on="1"/>
      </contour>
      <contour>
        <pt x="461" y="960" on="1"/>
        <pt x="478" y="960" on="0"/>
        <pt x="509" y="944" on="0"/>
        <pt x="529" y="927" on="1"/>
        <pt x="633" y="843" on="1"/>
        <pt x="617" y="821" on="1"/>
        <pt x="460" y="862" on="1"/>
        <pt x="303" y="821" on="1"/>
        <pt x="287" y="843" on="1"/>
        <pt x="389" y="927" on="1"/>
        <pt x="409" y="944" on="0"/>
        <pt x="441" y="960" on="0"/>
      </contour>
    </TTGlyph>
    <TTGlyph name="Hdotbelow" xMin="42" yMin="-260" xMax="881" yMax="770">
      <contour>
        <pt x="625" y="378" on="1"/>
        <pt x="299" y="378" on="1"/>
        <pt x="299" y="58" on="1"/>
        <pt x="383" y="37" on="1"/>
        <pt x="383" y="0" on="1"/>
        <pt x="42" y="0" on="1"/>
        <pt x="42" y="37" on="1"/>
        <pt x="127" y="58" on="1"/>
        <pt x="127" y="713" on="1"/>
        <pt x="42" y="733" on="1"/>
        <pt x="42" y="770" on="1"/>
        <pt x="383" y="770" on="1"/>
        <pt x="383" y="733" on="1"/>
        <pt x="299" y="713" on="1"/>
        <pt x="299" y="435" on="1"/>
        <pt x="625" y="435" on="1"/>
        <pt x="625" y="713" on="1"/>
        <pt x="540" y="733" on="1"/>
        <pt x="540" y="770" on="1"/>
        <pt x="881" y="770" on="1"/>
        <pt x="881" y="733" on="1"/>
        <pt x="797" y="713" on="1"/>
        <pt x="797" y="58" on="1"/>
        <pt x="881" y="37" on="1"/>
        <pt x="881" y="0" on="1"/>
        <pt x="540" y="0" on="1"/>
        <pt x="540" y="37" on="1"/>
        <pt x="625" y="58" on="1"/>
      </contour>
      <contour>
        <pt x="375" y="-178" on="1"/>
        <pt x="375" y="-145" on="0"/>
        <pt x="420" y="-95" on="0"/>
        <pt x="461" y="-95" on="1"/>
        <pt x="503" y="-95" on="0"/>
        <pt x="550" y="-145" on="0"/>
        <pt x="550" y="-178" on="1"/>
        <pt x="550" y="-209" on="0"/>
        <pt x="505" y="-260" on="0"/>
        <pt x="461" y="-260" on="1"/>
        <pt x="419" y="-260" on="0"/>
        <pt x="375" y="-209" on="0"/>
      </contour>
    </TTGlyph>
    <TTGlyph name="I" xMin="42" yMin="0" xMax="383" yMax="770">
      <contour>
        <pt x="127" y="713" on="1"/>
        <pt x="42" y="733" on="1"/>
        <pt x="42" y="770" on="1"/>
        <pt x="383" y="770" on="1"/>
        <pt x="383" y="733" on="1"/>
        <pt x="299" y="713" on="1"/>
        <pt x="299" y="58" on="1"/>
        <pt x="383" y="37" on="1"/>
        <pt x="383" y="0" on="1"/>
        <pt x="42" y="0" on="1"/>
        <pt x="42" y="37" on="1"/>
        <pt x="127" y="58" on="1"/>
      </contour>
    </TTGlyph>
    <TTGlyph name="IJ" xMin="42" yMin="-260" xMax="800" yMax="770">
      <contour>
        <pt x="127" y="713" on="1"/>
        <pt x="42" y="733" on="1"/>
        <pt x="42" y="770" on="1"/>
        <pt x="383" y="770" on="1"/>
        <pt x="383" y="733" on="1"/>
        <pt x="299" y="713" on="1"/>
        <pt x="299" y="58" on="1"/>
        <pt x="383" y="37" on="1"/>
        <pt x="383" y="0" on="1"/>
        <pt x="42" y="0" on="1"/>
        <pt x="42" y="37" on="1"/>
        <pt x="127" y="58" on="1"/>
      </contour>
      <contour>
        <pt x="716" y="155" on="1"/>
        <pt x="716" y="81" on="0"/>
        <pt x="714" y="-11" on="0"/>
        <pt x="706" y="-72" on="0"/>
        <pt x="693" y="-111" on="0"/>
        <pt x="682" y="-131" on="1"/>
        <pt x="642" y="-194" on="0"/>
        <pt x="511" y="-260" on="0"/>
        <pt x="440" y="-260" on="1"/>
        <pt x="359" y="-260" on="0"/>
        <pt x="271" y="-202" on="0"/>
        <pt x="271" y="-153" on="1"/>
        <pt x="271" y="-115" on="0"/>
        <pt x="313" y="-77" on="0"/>
        <pt x="343" y="-77" on="1"/>
        <pt x="374" y="-77" on="0"/>
        <pt x="406" y="-112" on="0"/>
        <pt x="416" y="-139" on="1"/>
        <pt x="427" y="-173" on="0"/>
        <pt x="454" y="-203" on="0"/>
        <pt x="472" y="-203" on="1"/>
        <pt x="502" y="-203" on="0"/>
        <pt x="544" y="-124" on="0"/>
        <pt x="544" y="-43" on="1"/>
        <pt x="544" y="713" on="1"/>
        <pt x="459" y="733" on="1"/>
        <pt x="459" y="770" on="1"/>
        <pt x="800" y="770" on="1"/>
        <pt x="800" y="733" on="1"/>
        <pt x="716" y="713" on="1"/>
      </contour>
    </TTGlyph>
    <TTGlyph name="Iacute" xMin="42" yMin="0" xMax="383" yMax="965">
      <contour>
        <pt x="127" y="713" on="1"/>
        <pt x="42" y="733" on="1"/>
        <pt x="42" y="770" on="1"/>
        <pt x="383" y="770" on="1"/>
        <pt x="383" y="733" on="1"/>
        <pt x="299" y="713" on="1"/>
        <pt x="299" y="58" on="1"/>
        <pt x="383" y="37" on="1"/>
        <pt x="383" y="0" on="1"/>
        <pt x="42" y="0" on="1"/>
        <pt x="42" y="37" on="1"/>
        <pt x="127" y="58" on="1"/>
      </contour>
      <contour>
        <pt x="97" y="847" on="1"/>
        <pt x="222" y="941" on="1"/>
        <pt x="239" y="954" on="0"/>
        <pt x="270" y="965" on="0"/>
        <pt x="283" y="965" on="1"/>
        <pt x="309" y="965" on="0"/>
        <pt x="338" y="932" on="0"/>
        <pt x="338" y="911" on="1"/>
        <pt x="338" y="892" on="0"/>
        <pt x="311" y="857" on="0"/>
        <pt x="279" y="851" on="1"/>
        <pt x="114" y="819" on="1"/>
      </contour>
    </TTGlyph>
    <TTGlyph name="Ibreve" xMin="42" yMin="0" xMax="383" yMax="965">
      <contour>
        <pt x="127" y="713" on="1"/>
        <pt x="42" y="733" on="1"/>
        <pt x="42" y="770" on="1"/>
        <pt x="383" y="770" on="1"/>
        <pt x="383" y="733" on="1"/>
        <pt x="299" y="713" on="1"/>
        <pt x="299" y="58" on="1"/>
        <pt x="383" y="37" on="1"/>
        <pt x="383" y="0" on="1"/>
        <pt x="42" y="0" on="1"/>
        <pt x="42" y="37" on="1"/>
        <pt x="127" y="58" on="1"/>
      </contour>
      <contour>
        <pt x="116" y="965" on="1"/>
        <pt x="128" y="948" on="0"/>
        <pt x="184" y="933" on="0"/>
        <pt x="217" y="933" on="1"/>
        <pt x="249" y="933" on="0"/>
        <pt x="304" y="948" on="0"/>
        <pt x="321" y="965" on="1"/>
        <pt x="370" y="965" on="1"/>
        <pt x="357" y="919" on="0"/>
        <pt x="318" y="865" on="0"/>
        <pt x="274" y="837" on="0"/>
        <pt x="230" y="829" on="0"/>
        <pt x="213" y="829" on="1"/>
        <pt x="190" y="829" on="0"/>
        <pt x="141" y="843" on="0"/>
        <pt x="100" y="875" on="0"/>
        <pt x="70" y="927" on="0"/>
        <pt x="66" y="965" on="1"/>
      </contour>
    </TTGlyph>
    <TTGlyph name="Icircumflex" xMin="42" yMin="0" xMax="389" yMax="961">
      <contour>
        <pt x="127" y="713" on="1"/>
        <pt x="42" y="733" on="1"/>
        <pt x="42" y="770" on="1"/>
        <pt x="383" y="770" on="1"/>
        <pt x="383" y="733" on="1"/>
        <pt x="299" y="713" on="1"/>
        <pt x="299" y="58" on="1"/>
        <pt x="383" y="37" on="1"/>
        <pt x="383" y="0" on="1"/>
        <pt x="42" y="0" on="1"/>
        <pt x="42" y="37" on="1"/>
        <pt x="127" y="58" on="1"/>
      </contour>
      <contour>
        <pt x="217" y="961" on="1"/>
        <pt x="234" y="961" on="0"/>
        <pt x="265" y="945" on="0"/>
        <pt x="285" y="928" on="1"/>
        <pt x="389" y="844" on="1"/>
        <pt x="373" y="822" on="1"/>
        <pt x="216" y="863" on="1"/>
        <pt x="59" y="822" on="1"/>
        <pt x="43" y="844" on="1"/>
        <pt x="145" y="928" on="1"/>
        <pt x="165" y="945" on="0"/>
        <pt x="197" y="961" on="0"/>
      </contour>
    </TTGlyph>
    <TTGlyph name="Idieresis" xMin="37" yMin="0" xMax="388" yMax="965">
      <contour>
        <pt x="127" y="713" on="1"/>
        <pt x="42" y="733" on="1"/>
        <pt x="42" y="770" on="1"/>
        <pt x="383" y="770" on="1"/>
        <pt x="383" y="733" on="1"/>
        <pt x="299" y="713" on="1"/>
        <pt x="299" y="58" on="1"/>
        <pt x="383" y="37" on="1"/>
        <pt x="383" y="0" on="1"/>
        <pt x="42" y="0" on="1"/>
        <pt x="42" y="37" on="1"/>
        <pt x="127" y="58" on="1"/>
      </contour>
      <contour>
        <pt x="37" y="896" on="1"/>
        <pt x="37" y="923" on="0"/>
        <pt x="74" y="965" on="0"/>
        <pt x="108" y="965" on="1"/>
        <pt x="142" y="965" on="0"/>
        <pt x="181" y="923" on="0"/>
        <pt x="181" y="896" on="1"/>
        <pt x="181" y="872" on="0"/>
        <pt x="144" y="829" on="0"/>
        <pt x="108" y="829" on="1"/>
        <pt x="73" y="829" on="0"/>
        <pt x="37" y="872" on="0"/>
      </contour>
      <contour>
        <pt x="244" y="896" on="1"/>
        <pt x="244" y="923" on="0"/>
        <pt x="281" y="965" on="0"/>
        <pt x="315" y="965" on="1"/>
        <pt x="349" y="965" on="0"/>
        <pt x="388" y="923" on="0"/>
        <pt x="388" y="896" on="1"/>
        <pt x="388" y="872" on="0"/>
        <pt x="352" y="829" on="0"/>
        <pt x="315" y="829" on="1"/>
        <pt x="280" y="829" on="0"/>
        <pt x="244" y="872" on="0"/>
      </contour>
    </TTGlyph>
    <TTGlyph name="Idotaccent" xMin="42" yMin="0" xMax="383" yMax="966">
      <contour>
        <pt x="127" y="713" on="1"/>
        <pt x="42" y="733" on="1"/>
        <pt x="42" y="770" on="1"/>
        <pt x="383" y="770" on="1"/>
        <pt x="383" y="733" on="1"/>
        <pt x="299" y="713" on="1"/>
        <pt x="299" y="58" on="1"/>
        <pt x="383" y="37" on="1"/>
        <pt x="383" y="0" on="1"/>
        <pt x="42" y="0" on="1"/>
        <pt x="42" y="37" on="1"/>
        <pt x="127" y="58" on="1"/>
      </contour>
      <contour>
        <pt x="143" y="898" on="1"/>
        <pt x="143" y="924" on="0"/>
        <pt x="180" y="966" on="0"/>
        <pt x="214" y="966" on="1"/>
        <pt x="248" y="966" on="0"/>
        <pt x="287" y="924" on="0"/>
        <pt x="287" y="898" on="1"/>
        <pt x="287" y="872" on="0"/>
        <pt x="250" y="830" on="0"/>
        <pt x="214" y="830" on="1"/>
        <pt x="179" y="830" on="0"/>
        <pt x="143" y="872" on="0"/>
      </contour>
    </TTGlyph>
    <TTGlyph name="Idotbelow" xMin="42" yMin="-260" xMax="383" yMax="770">
      <contour>
        <pt x="127" y="713" on="1"/>
        <pt x="42" y="733" on="1"/>
        <pt x="42" y="770" on="1"/>
        <pt x="383" y="770" on="1"/>
        <pt x="383" y="733" on="1"/>
        <pt x="299" y="713" on="1"/>
        <pt x="299" y="58" on="1"/>
        <pt x="383" y="37" on="1"/>
        <pt x="383" y="0" on="1"/>
        <pt x="42" y="0" on="1"/>
        <pt x="42" y="37" on="1"/>
        <pt x="127" y="58" on="1"/>
      </contour>
      <contour>
        <pt x="127" y="-178" on="1"/>
        <pt x="127" y="-145" on="0"/>
        <pt x="172" y="-95" on="0"/>
        <pt x="213" y="-95" on="1"/>
        <pt x="255" y="-95" on="0"/>
        <pt x="302" y="-145" on="0"/>
        <pt x="302" y="-178" on="1"/>
        <pt x="302" y="-209" on="0"/>
        <pt x="257" y="-260" on="0"/>
        <pt x="213" y="-260" on="1"/>
        <pt x="171" y="-260" on="0"/>
        <pt x="127" y="-209" on="0"/>
      </contour>
    </TTGlyph>
    <TTGlyph name="Igrave" xMin="42" yMin="0" xMax="383" yMax="963">
      <contour>
        <pt x="127" y="713" on="1"/>
        <pt x="42" y="733" on="1"/>
        <pt x="42" y="770" on="1"/>
        <pt x="383" y="770" on="1"/>
        <pt x="383" y="733" on="1"/>
        <pt x="299" y="713" on="1"/>
        <pt x="299" y="58" on="1"/>
        <pt x="383" y="37" on="1"/>
        <pt x="383" y="0" on="1"/>
        <pt x="42" y="0" on="1"/>
        <pt x="42" y="37" on="1"/>
        <pt x="127" y="58" on="1"/>
      </contour>
      <contour>
        <pt x="320" y="817" on="1"/>
        <pt x="155" y="849" on="1"/>
        <pt x="123" y="855" on="0"/>
        <pt x="96" y="890" on="0"/>
        <pt x="96" y="909" on="1"/>
        <pt x="96" y="930" on="0"/>
        <pt x="125" y="963" on="0"/>
        <pt x="151" y="963" on="1"/>
        <pt x="164" y="963" on="0"/>
        <pt x="195" y="952" on="0"/>
        <pt x="212" y="939" on="1"/>
        <pt x="337" y="845" on="1"/>
      </contour>
    </TTGlyph>
    <TTGlyph name="Imacron" xMin="42" yMin="0" xMax="383" yMax="960">
      <contour>
        <pt x="127" y="713" on="1"/>
        <pt x="42" y="733" on="1"/>
        <pt x="42" y="770" on="1"/>
        <pt x="383" y="770" on="1"/>
        <pt x="383" y="733" on="1"/>
        <pt x="299" y="713" on="1"/>
        <pt x="299" y="58" on="1"/>
        <pt x="383" y="37" on="1"/>
        <pt x="383" y="0" on="1"/>
        <pt x="42" y="0" on="1"/>
        <pt x="42" y="37" on="1"/>
        <pt x="127" y="58" on="1"/>
      </contour>
      <contour>
        <pt x="60" y="864" on="1"/>
        <pt x="60" y="960" on="1"/>
        <pt x="367" y="960" on="1"/>
        <pt x="367" y="864" on="1"/>
      </contour>
    </TTGlyph>
    <TTGlyph name="Iogonek" xMin="42" yMin="-256" xMax="383" yMax="770">
      <contour>
        <pt x="298" y="-202" on="1"/>
        <pt x="243" y="-256" on="0"/>
        <pt x="168" y="-256" on="1"/>
        <pt x="121" y="-256" on="0"/>
        <pt x="66" y="-209" on="0"/>
        <pt x="66" y="-168" on="1"/>
        <pt x="66" y="-129" on="0"/>
        <pt x="126" y="-41" on="0"/>
        <pt x="180" y="0" on="1"/>
        <pt x="42" y="0" on="1"/>
        <pt x="42" y="37" on="1"/>
        <pt x="127" y="58" on="1"/>
        <pt x="127" y="713" on="1"/>
        <pt x="42" y="733" on="1"/>
        <pt x="42" y="770" on="1"/>
        <pt x="383" y="770" on="1"/>
        <pt x="383" y="733" on="1"/>
        <pt x="299" y="713" on="1"/>
        <pt x="299" y="58" on="1"/>
        <pt x="383" y="37" on="1"/>
        <pt x="383" y="0" on="1"/>
        <pt x="242" y="0" on="1"/>
        <pt x="179" y="-69" on="0"/>
        <pt x="179" y="-124" on="1"/>
        <pt x="179" y="-181" on="0"/>
        <pt x="227" y="-181" on="1"/>
        <pt x="241" y="-181" on="0"/>
        <pt x="266" y="-171" on="0"/>
        <pt x="283" y="-160" on="1"/>
      </contour>
    </TTGlyph>
    <TTGlyph name="Itilde" xMin="42" yMin="0" xMax="383" yMax="965">
      <contour>
        <pt x="127" y="713" on="1"/>
        <pt x="42" y="733" on="1"/>
        <pt x="42" y="770" on="1"/>
        <pt x="383" y="770" on="1"/>
        <pt x="383" y="733" on="1"/>
        <pt x="299" y="713" on="1"/>
        <pt x="299" y="58" on="1"/>
        <pt x="383" y="37" on="1"/>
        <pt x="383" y="0" on="1"/>
        <pt x="42" y="0" on="1"/>
        <pt x="42" y="37" on="1"/>
        <pt x="127" y="58" on="1"/>
      </contour>
      <contour>
        <pt x="52" y="821" on="1"/>
        <pt x="52" y="892" on="0"/>
        <pt x="112" y="963" on="0"/>
        <pt x="159" y="963" on="1"/>
        <pt x="178" y="963" on="0"/>
        <pt x="208" y="952" on="0"/>
        <pt x="235" y="938" on="0"/>
        <pt x="263" y="927" on="0"/>
        <pt x="280" y="927" on="1"/>
        <pt x="330" y="927" on="0"/>
        <pt x="340" y="965" on="1"/>
        <pt x="379" y="965" on="1"/>
        <pt x="379" y="896" on="0"/>
        <pt x="328" y="820" on="0"/>
        <pt x="277" y="820" on="1"/>
        <pt x="256" y="820" on="0"/>
        <pt x="226" y="832" on="0"/>
        <pt x="199" y="847" on="0"/>
        <pt x="171" y="859" on="0"/>
        <pt x="152" y="859" on="1"/>
        <pt x="126" y="859" on="0"/>
        <pt x="94" y="838" on="0"/>
        <pt x="91" y="821" on="1"/>
      </contour>
    </TTGlyph>
    <TTGlyph name="J" xMin="-154" yMin="-260" xMax="375" yMax="770">
      <contour>
        <pt x="291" y="155" on="1"/>
        <pt x="291" y="81" on="0"/>
        <pt x="289" y="-11" on="0"/>
        <pt x="281" y="-72" on="0"/>
        <pt x="268" y="-111" on="0"/>
        <pt x="257" y="-131" on="1"/>
        <pt x="217" y="-194" on="0"/>
        <pt x="86" y="-260" on="0"/>
        <pt x="15" y="-260" on="1"/>
        <pt x="-66" y="-260" on="0"/>
        <pt x="-154" y="-202" on="0"/>
        <pt x="-154" y="-153" on="1"/>
        <pt x="-154" y="-115" on="0"/>
        <pt x="-112" y="-77" on="0"/>
        <pt x="-82" y="-77" on="1"/>
        <pt x="-51" y="-77" on="0"/>
        <pt x="-19" y="-112" on="0"/>
        <pt x="-9" y="-139" on="1"/>
        <pt x="2" y="-173" on="0"/>
        <pt x="29" y="-203" on="0"/>
        <pt x="47" y="-203" on="1"/>
        <pt x="77" y="-203" on="0"/>
        <pt x="119" y="-124" on="0"/>
        <pt x="119" y="-43" on="1"/>
        <pt x="119" y="713" on="1"/>
        <pt x="34" y="733" on="1"/>
        <pt x="34" y="770" on="1"/>
        <pt x="375" y="770" on="1"/>
        <pt x="375" y="733" on="1"/>
        <pt x="291" y="713" on="1"/>
      </contour>
    </TTGlyph>
    <TTGlyph name="Jcircumflex" xMin="-154" yMin="-260" xMax="381" yMax="960">
      <contour>
        <pt x="291" y="155" on="1"/>
        <pt x="291" y="81" on="0"/>
        <pt x="289" y="-11" on="0"/>
        <pt x="281" y="-72" on="0"/>
        <pt x="268" y="-111" on="0"/>
        <pt x="257" y="-131" on="1"/>
        <pt x="217" y="-194" on="0"/>
        <pt x="86" y="-260" on="0"/>
        <pt x="15" y="-260" on="1"/>
        <pt x="-66" y="-260" on="0"/>
        <pt x="-154" y="-202" on="0"/>
        <pt x="-154" y="-153" on="1"/>
        <pt x="-154" y="-115" on="0"/>
        <pt x="-112" y="-77" on="0"/>
        <pt x="-82" y="-77" on="1"/>
        <pt x="-51" y="-77" on="0"/>
        <pt x="-19" y="-112" on="0"/>
        <pt x="-9" y="-139" on="1"/>
        <pt x="2" y="-173" on="0"/>
        <pt x="29" y="-203" on="0"/>
        <pt x="47" y="-203" on="1"/>
        <pt x="77" y="-203" on="0"/>
        <pt x="119" y="-124" on="0"/>
        <pt x="119" y="-43" on="1"/>
        <pt x="119" y="713" on="1"/>
        <pt x="34" y="733" on="1"/>
        <pt x="34" y="770" on="1"/>
        <pt x="375" y="770" on="1"/>
        <pt x="375" y="733" on="1"/>
        <pt x="291" y="713" on="1"/>
      </contour>
      <contour>
        <pt x="209" y="960" on="1"/>
        <pt x="226" y="960" on="0"/>
        <pt x="257" y="944" on="0"/>
        <pt x="277" y="927" on="1"/>
        <pt x="381" y="843" on="1"/>
        <pt x="365" y="821" on="1"/>
        <pt x="208" y="862" on="1"/>
        <pt x="51" y="821" on="1"/>
        <pt x="35" y="843" on="1"/>
        <pt x="137" y="927" on="1"/>
        <pt x="157" y="944" on="0"/>
        <pt x="189" y="960" on="0"/>
      </contour>
    </TTGlyph>
    <TTGlyph name="K" xMin="42" yMin="0" xMax="834" yMax="770">
      <contour>
        <pt x="42" y="37" on="1"/>
        <pt x="127" y="58" on="1"/>
        <pt x="127" y="713" on="1"/>
        <pt x="42" y="733" on="1"/>
        <pt x="42" y="770" on="1"/>
        <pt x="383" y="770" on="1"/>
        <pt x="383" y="733" on="1"/>
        <pt x="299" y="713" on="1"/>
        <pt x="299" y="416" on="1"/>
        <pt x="539" y="674" on="1"/>
        <pt x="547" y="682" on="0"/>
        <pt x="553" y="699" on="0"/>
        <pt x="553" y="705" on="1"/>
        <pt x="553" y="731" on="0"/>
        <pt x="476" y="734" on="1"/>
        <pt x="476" y="770" on="1"/>
        <pt x="763" y="770" on="1"/>
        <pt x="763" y="733" on="1"/>
        <pt x="728" y="727" on="0"/>
        <pt x="682" y="717" on="0"/>
        <pt x="650" y="703" on="0"/>
        <pt x="627" y="684" on="0"/>
        <pt x="615" y="671" on="1"/>
        <pt x="439" y="479" on="1"/>
        <pt x="743" y="56" on="1"/>
        <pt x="834" y="37" on="1"/>
        <pt x="834" y="0" on="1"/>
        <pt x="567" y="0" on="1"/>
        <pt x="321" y="351" on="1"/>
        <pt x="299" y="328" on="1"/>
        <pt x="299" y="58" on="1"/>
        <pt x="383" y="37" on="1"/>
        <pt x="383" y="0" on="1"/>
        <pt x="42" y="0" on="1"/>
      </contour>
    </TTGlyph>
    <TTGlyph name="Kcommaaccent" xMin="42" yMin="-260" xMax="834" yMax="770">
      <contour>
        <pt x="42" y="37" on="1"/>
        <pt x="127" y="58" on="1"/>
        <pt x="127" y="713" on="1"/>
        <pt x="42" y="733" on="1"/>
        <pt x="42" y="770" on="1"/>
        <pt x="383" y="770" on="1"/>
        <pt x="383" y="733" on="1"/>
        <pt x="299" y="713" on="1"/>
        <pt x="299" y="416" on="1"/>
        <pt x="539" y="674" on="1"/>
        <pt x="547" y="682" on="0"/>
        <pt x="553" y="699" on="0"/>
        <pt x="553" y="705" on="1"/>
        <pt x="553" y="731" on="0"/>
        <pt x="476" y="734" on="1"/>
        <pt x="476" y="770" on="1"/>
        <pt x="763" y="770" on="1"/>
        <pt x="763" y="733" on="1"/>
        <pt x="728" y="727" on="0"/>
        <pt x="682" y="717" on="0"/>
        <pt x="650" y="703" on="0"/>
        <pt x="627" y="684" on="0"/>
        <pt x="615" y="671" on="1"/>
        <pt x="439" y="479" on="1"/>
        <pt x="743" y="56" on="1"/>
        <pt x="834" y="37" on="1"/>
        <pt x="834" y="0" on="1"/>
        <pt x="567" y="0" on="1"/>
        <pt x="321" y="351" on="1"/>
        <pt x="299" y="328" on="1"/>
        <pt x="299" y="58" on="1"/>
        <pt x="383" y="37" on="1"/>
        <pt x="383" y="0" on="1"/>
        <pt x="42" y="0" on="1"/>
      </contour>
      <contour>
        <pt x="385" y="-236" on="1"/>
        <pt x="400" y="-222" on="0"/>
        <pt x="419" y="-189" on="0"/>
        <pt x="419" y="-178" on="1"/>
        <pt x="419" y="-167" on="0"/>
        <pt x="404" y="-154" on="0"/>
        <pt x="387" y="-140" on="0"/>
        <pt x="372" y="-121" on="0"/>
        <pt x="372" y="-105" on="1"/>
        <pt x="372" y="-82" on="0"/>
        <pt x="410" y="-52" on="0"/>
        <pt x="439" y="-52" on="1"/>
        <pt x="471" y="-52" on="0"/>
        <pt x="507" y="-94" on="0"/>
        <pt x="507" y="-130" on="1"/>
        <pt x="507" y="-172" on="0"/>
        <pt x="456" y="-240" on="0"/>
        <pt x="408" y="-260" on="1"/>
      </contour>
    </TTGlyph>
    <TTGlyph name="L" xMin="42" yMin="0" xMax="691" yMax="770">
      <contour>
        <pt x="299" y="713" on="1"/>
        <pt x="299" y="57" on="1"/>
        <pt x="548" y="57" on="1"/>
        <pt x="580" y="102" on="0"/>
        <pt x="621" y="189" on="0"/>
        <pt x="639" y="234" on="1"/>
        <pt x="691" y="234" on="1"/>
        <pt x="649" y="0" on="1"/>
        <pt x="42" y="0" on="1"/>
        <pt x="42" y="37" on="1"/>
        <pt x="127" y="56" on="1"/>
        <pt x="127" y="714" on="1"/>
        <pt x="42" y="733" on="1"/>
        <pt x="42" y="770" on="1"/>
        <pt x="393" y="770" on="1"/>
        <pt x="393" y="733" on="1"/>
      </contour>
    </TTGlyph>
    <TTGlyph name="Lacute" xMin="42" yMin="0" xMax="691" yMax="963">
      <contour>
        <pt x="299" y="713" on="1"/>
        <pt x="299" y="57" on="1"/>
        <pt x="548" y="57" on="1"/>
        <pt x="580" y="102" on="0"/>
        <pt x="621" y="189" on="0"/>
        <pt x="639" y="234" on="1"/>
        <pt x="691" y="234" on="1"/>
        <pt x="649" y="0" on="1"/>
        <pt x="42" y="0" on="1"/>
        <pt x="42" y="37" on="1"/>
        <pt x="127" y="56" on="1"/>
        <pt x="127" y="714" on="1"/>
        <pt x="42" y="733" on="1"/>
        <pt x="42" y="770" on="1"/>
        <pt x="393" y="770" on="1"/>
        <pt x="393" y="733" on="1"/>
      </contour>
      <contour>
        <pt x="101" y="845" on="1"/>
        <pt x="226" y="939" on="1"/>
        <pt x="243" y="952" on="0"/>
        <pt x="274" y="963" on="0"/>
        <pt x="287" y="963" on="1"/>
        <pt x="313" y="963" on="0"/>
        <pt x="342" y="930" on="0"/>
        <pt x="342" y="909" on="1"/>
        <pt x="342" y="890" on="0"/>
        <pt x="315" y="855" on="0"/>
        <pt x="283" y="849" on="1"/>
        <pt x="118" y="817" on="1"/>
      </contour>
    </TTGlyph>
    <TTGlyph name="Lcaron" xMin="42" yMin="0" xMax="691" yMax="970">
      <contour>
        <pt x="299" y="713" on="1"/>
        <pt x="299" y="57" on="1"/>
        <pt x="548" y="57" on="1"/>
        <pt x="580" y="102" on="0"/>
        <pt x="621" y="189" on="0"/>
        <pt x="639" y="234" on="1"/>
        <pt x="691" y="234" on="1"/>
        <pt x="649" y="0" on="1"/>
        <pt x="42" y="0" on="1"/>
        <pt x="42" y="37" on="1"/>
        <pt x="127" y="56" on="1"/>
        <pt x="127" y="714" on="1"/>
        <pt x="42" y="733" on="1"/>
        <pt x="42" y="770" on="1"/>
        <pt x="393" y="770" on="1"/>
        <pt x="393" y="733" on="1"/>
      </contour>
      <contour>
        <pt x="218" y="831" on="1"/>
        <pt x="198" y="831" on="0"/>
        <pt x="166" y="847" on="0"/>
        <pt x="146" y="864" on="1"/>
        <pt x="44" y="948" on="1"/>
        <pt x="60" y="970" on="1"/>
        <pt x="217" y="929" on="1"/>
        <pt x="374" y="970" on="1"/>
        <pt x="390" y="948" on="1"/>
        <pt x="286" y="864" on="1"/>
        <pt x="266" y="847" on="0"/>
        <pt x="235" y="831" on="0"/>
      </contour>
    </TTGlyph>
    <TTGlyph name="Lcommaaccent" xMin="42" yMin="-260" xMax="691" yMax="770">
      <contour>
        <pt x="299" y="713" on="1"/>
        <pt x="299" y="57" on="1"/>
        <pt x="548" y="57" on="1"/>
        <pt x="580" y="102" on="0"/>
        <pt x="621" y="189" on="0"/>
        <pt x="639" y="234" on="1"/>
        <pt x="691" y="234" on="1"/>
        <pt x="649" y="0" on="1"/>
        <pt x="42" y="0" on="1"/>
        <pt x="42" y="37" on="1"/>
        <pt x="127" y="56" on="1"/>
        <pt x="127" y="714" on="1"/>
        <pt x="42" y="733" on="1"/>
        <pt x="42" y="770" on="1"/>
        <pt x="393" y="770" on="1"/>
        <pt x="393" y="733" on="1"/>
      </contour>
      <contour>
        <pt x="323" y="-236" on="1"/>
        <pt x="338" y="-222" on="0"/>
        <pt x="357" y="-189" on="0"/>
        <pt x="357" y="-178" on="1"/>
        <pt x="357" y="-167" on="0"/>
        <pt x="342" y="-154" on="0"/>
        <pt x="325" y="-140" on="0"/>
        <pt x="310" y="-121" on="0"/>
        <pt x="310" y="-105" on="1"/>
        <pt x="310" y="-82" on="0"/>
        <pt x="348" y="-52" on="0"/>
        <pt x="377" y="-52" on="1"/>
        <pt x="409" y="-52" on="0"/>
        <pt x="445" y="-94" on="0"/>
        <pt x="445" y="-130" on="1"/>
        <pt x="445" y="-172" on="0"/>
        <pt x="394" y="-240" on="0"/>
        <pt x="346" y="-260" on="1"/>
      </contour>
    </TTGlyph>
    <TTGlyph name="Ldot" xMin="42" yMin="0" xMax="691" yMax="770">
      <contour>
        <pt x="299" y="713" on="1"/>
        <pt x="299" y="57" on="1"/>
        <pt x="548" y="57" on="1"/>
        <pt x="580" y="102" on="0"/>
        <pt x="621" y="189" on="0"/>
        <pt x="639" y="234" on="1"/>
        <pt x="691" y="234" on="1"/>
        <pt x="649" y="0" on="1"/>
        <pt x="42" y="0" on="1"/>
        <pt x="42" y="37" on="1"/>
        <pt x="127" y="56" on="1"/>
        <pt x="127" y="714" on="1"/>
        <pt x="42" y="733" on="1"/>
        <pt x="42" y="770" on="1"/>
        <pt x="393" y="770" on="1"/>
        <pt x="393" y="733" on="1"/>
      </contour>
      <contour>
        <pt x="382" y="317" on="1"/>
        <pt x="382" y="355" on="0"/>
        <pt x="431" y="405" on="0"/>
        <pt x="470" y="405" on="1"/>
        <pt x="510" y="405" on="0"/>
        <pt x="562" y="355" on="0"/>
        <pt x="562" y="317" on="1"/>
        <pt x="562" y="279" on="0"/>
        <pt x="511" y="231" on="0"/>
        <pt x="471" y="231" on="1"/>
        <pt x="431" y="231" on="0"/>
        <pt x="382" y="279" on="0"/>
      </contour>
    </TTGlyph>
    <TTGlyph name="Lslash" xMin="43" yMin="0" xMax="692" yMax="770">
      <contour>
        <pt x="300" y="713" on="1"/>
        <pt x="300" y="498" on="1"/>
        <pt x="373" y="537" on="1"/>
        <pt x="373" y="442" on="1"/>
        <pt x="300" y="403" on="1"/>
        <pt x="300" y="57" on="1"/>
        <pt x="549" y="57" on="1"/>
        <pt x="581" y="102" on="0"/>
        <pt x="622" y="189" on="0"/>
        <pt x="640" y="234" on="1"/>
        <pt x="692" y="234" on="1"/>
        <pt x="650" y="0" on="1"/>
        <pt x="43" y="0" on="1"/>
        <pt x="43" y="37" on="1"/>
        <pt x="128" y="56" on="1"/>
        <pt x="128" y="311" on="1"/>
        <pt x="61" y="276" on="1"/>
        <pt x="61" y="371" on="1"/>
        <pt x="128" y="406" on="1"/>
        <pt x="128" y="714" on="1"/>
        <pt x="43" y="733" on="1"/>
        <pt x="43" y="770" on="1"/>
        <pt x="394" y="770" on="1"/>
        <pt x="394" y="733" on="1"/>
      </contour>
    </TTGlyph>
    <TTGlyph name="M" xMin="39" yMin="-10" xMax="1031" yMax="770">
      <contour>
        <pt x="128" y="714" on="1"/>
        <pt x="40" y="733" on="1"/>
        <pt x="40" y="770" on="1"/>
        <pt x="343" y="770" on="1"/>
        <pt x="551" y="254" on="1"/>
        <pt x="557" y="254" on="1"/>
        <pt x="774" y="770" on="1"/>
        <pt x="1031" y="770" on="1"/>
        <pt x="1031" y="733" on="1"/>
        <pt x="947" y="713" on="1"/>
        <pt x="947" y="58" on="1"/>
        <pt x="1031" y="37" on="1"/>
        <pt x="1031" y="0" on="1"/>
        <pt x="690" y="0" on="1"/>
        <pt x="690" y="37" on="1"/>
        <pt x="775" y="58" on="1"/>
        <pt x="775" y="594" on="1"/>
        <pt x="771" y="594" on="1"/>
        <pt x="520" y="-10" on="1"/>
        <pt x="472" y="-10" on="1"/>
        <pt x="201" y="621" on="1"/>
        <pt x="197" y="621" on="1"/>
        <pt x="197" y="56" on="1"/>
        <pt x="285" y="37" on="1"/>
        <pt x="285" y="0" on="1"/>
        <pt x="39" y="0" on="1"/>
        <pt x="39" y="37" on="1"/>
        <pt x="128" y="56" on="1"/>
      </contour>
    </TTGlyph>
    <TTGlyph name="N" xMin="39" yMin="-10" xMax="847" yMax="770">
      <contour>
        <pt x="758" y="-10" on="1"/>
        <pt x="689" y="-10" on="1"/>
        <pt x="197" y="610" on="1"/>
        <pt x="197" y="56" on="1"/>
        <pt x="285" y="37" on="1"/>
        <pt x="285" y="0" on="1"/>
        <pt x="39" y="0" on="1"/>
        <pt x="39" y="37" on="1"/>
        <pt x="128" y="56" on="1"/>
        <pt x="128" y="714" on="1"/>
        <pt x="40" y="733" on="1"/>
        <pt x="40" y="770" on="1"/>
        <pt x="311" y="770" on="1"/>
        <pt x="689" y="295" on="1"/>
        <pt x="689" y="714" on="1"/>
        <pt x="601" y="733" on="1"/>
        <pt x="601" y="770" on="1"/>
        <pt x="847" y="770" on="1"/>
        <pt x="847" y="733" on="1"/>
        <pt x="758" y="714" on="1"/>
      </contour>
    </TTGlyph>
    <TTGlyph name="Nacute" xMin="39" yMin="-10" xMax="847" yMax="963">
      <contour>
        <pt x="758" y="-10" on="1"/>
        <pt x="689" y="-10" on="1"/>
        <pt x="197" y="610" on="1"/>
        <pt x="197" y="56" on="1"/>
        <pt x="285" y="37" on="1"/>
        <pt x="285" y="0" on="1"/>
        <pt x="39" y="0" on="1"/>
        <pt x="39" y="37" on="1"/>
        <pt x="128" y="56" on="1"/>
        <pt x="128" y="714" on="1"/>
        <pt x="40" y="733" on="1"/>
        <pt x="40" y="770" on="1"/>
        <pt x="311" y="770" on="1"/>
        <pt x="689" y="295" on="1"/>
        <pt x="689" y="714" on="1"/>
        <pt x="601" y="733" on="1"/>
        <pt x="601" y="770" on="1"/>
        <pt x="847" y="770" on="1"/>
        <pt x="847" y="733" on="1"/>
        <pt x="758" y="714" on="1"/>
      </contour>
      <contour>
        <pt x="362" y="845" on="1"/>
        <pt x="487" y="939" on="1"/>
        <pt x="504" y="952" on="0"/>
        <pt x="535" y="963" on="0"/>
        <pt x="548" y="963" on="1"/>
        <pt x="574" y="963" on="0"/>
        <pt x="603" y="930" on="0"/>
        <pt x="603" y="909" on="1"/>
        <pt x="603" y="890" on="0"/>
        <pt x="576" y="855" on="0"/>
        <pt x="544" y="849" on="1"/>
        <pt x="379" y="817" on="1"/>
      </contour>
    </TTGlyph>
    <TTGlyph name="Ncaron" xMin="39" yMin="-10" xMax="847" yMax="970">
      <contour>
        <pt x="758" y="-10" on="1"/>
        <pt x="689" y="-10" on="1"/>
        <pt x="197" y="610" on="1"/>
        <pt x="197" y="56" on="1"/>
        <pt x="285" y="37" on="1"/>
        <pt x="285" y="0" on="1"/>
        <pt x="39" y="0" on="1"/>
        <pt x="39" y="37" on="1"/>
        <pt x="128" y="56" on="1"/>
        <pt x="128" y="714" on="1"/>
        <pt x="40" y="733" on="1"/>
        <pt x="40" y="770" on="1"/>
        <pt x="311" y="770" on="1"/>
        <pt x="689" y="295" on="1"/>
        <pt x="689" y="714" on="1"/>
        <pt x="601" y="733" on="1"/>
        <pt x="601" y="770" on="1"/>
        <pt x="847" y="770" on="1"/>
        <pt x="847" y="733" on="1"/>
        <pt x="758" y="714" on="1"/>
      </contour>
      <contour>
        <pt x="488" y="831" on="1"/>
        <pt x="468" y="831" on="0"/>
        <pt x="436" y="847" on="0"/>
        <pt x="416" y="864" on="1"/>
        <pt x="314" y="948" on="1"/>
        <pt x="330" y="970" on="1"/>
        <pt x="487" y="929" on="1"/>
        <pt x="644" y="970" on="1"/>
        <pt x="660" y="948" on="1"/>
        <pt x="556" y="864" on="1"/>
        <pt x="536" y="847" on="0"/>
        <pt x="505" y="831" on="0"/>
      </contour>
    </TTGlyph>
    <TTGlyph name="Ncommaaccent" xMin="39" yMin="-260" xMax="847" yMax="770">
      <contour>
        <pt x="758" y="-10" on="1"/>
        <pt x="689" y="-10" on="1"/>
        <pt x="197" y="610" on="1"/>
        <pt x="197" y="56" on="1"/>
        <pt x="285" y="37" on="1"/>
        <pt x="285" y="0" on="1"/>
        <pt x="39" y="0" on="1"/>
        <pt x="39" y="37" on="1"/>
        <pt x="128" y="56" on="1"/>
        <pt x="128" y="714" on="1"/>
        <pt x="40" y="733" on="1"/>
        <pt x="40" y="770" on="1"/>
        <pt x="311" y="770" on="1"/>
        <pt x="689" y="295" on="1"/>
        <pt x="689" y="714" on="1"/>
        <pt x="601" y="733" on="1"/>
        <pt x="601" y="770" on="1"/>
        <pt x="847" y="770" on="1"/>
        <pt x="847" y="733" on="1"/>
        <pt x="758" y="714" on="1"/>
      </contour>
      <contour>
        <pt x="408" y="-236" on="1"/>
        <pt x="423" y="-222" on="0"/>
        <pt x="442" y="-189" on="0"/>
        <pt x="442" y="-178" on="1"/>
        <pt x="442" y="-167" on="0"/>
        <pt x="427" y="-154" on="0"/>
        <pt x="410" y="-140" on="0"/>
        <pt x="395" y="-121" on="0"/>
        <pt x="395" y="-105" on="1"/>
        <pt x="395" y="-82" on="0"/>
        <pt x="433" y="-52" on="0"/>
        <pt x="462" y="-52" on="1"/>
        <pt x="494" y="-52" on="0"/>
        <pt x="530" y="-94" on="0"/>
        <pt x="530" y="-130" on="1"/>
        <pt x="530" y="-172" on="0"/>
        <pt x="479" y="-240" on="0"/>
        <pt x="431" y="-260" on="1"/>
      </contour>
    </TTGlyph>
    <TTGlyph name="Ndotaccent" xMin="39" yMin="-10" xMax="847" yMax="966">
      <contour>
        <pt x="758" y="-10" on="1"/>
        <pt x="689" y="-10" on="1"/>
        <pt x="197" y="610" on="1"/>
        <pt x="197" y="56" on="1"/>
        <pt x="285" y="37" on="1"/>
        <pt x="285" y="0" on="1"/>
        <pt x="39" y="0" on="1"/>
        <pt x="39" y="37" on="1"/>
        <pt x="128" y="56" on="1"/>
        <pt x="128" y="714" on="1"/>
        <pt x="40" y="733" on="1"/>
        <pt x="40" y="770" on="1"/>
        <pt x="311" y="770" on="1"/>
        <pt x="689" y="295" on="1"/>
        <pt x="689" y="714" on="1"/>
        <pt x="601" y="733" on="1"/>
        <pt x="601" y="770" on="1"/>
        <pt x="847" y="770" on="1"/>
        <pt x="847" y="733" on="1"/>
        <pt x="758" y="714" on="1"/>
      </contour>
      <contour>
        <pt x="410" y="898" on="1"/>
        <pt x="410" y="924" on="0"/>
        <pt x="447" y="966" on="0"/>
        <pt x="481" y="966" on="1"/>
        <pt x="515" y="966" on="0"/>
        <pt x="554" y="924" on="0"/>
        <pt x="554" y="898" on="1"/>
        <pt x="554" y="872" on="0"/>
        <pt x="517" y="830" on="0"/>
        <pt x="481" y="830" on="1"/>
        <pt x="446" y="830" on="0"/>
        <pt x="410" y="872" on="0"/>
      </contour>
    </TTGlyph>
    <TTGlyph name="Ntilde" xMin="39" yMin="-10" xMax="847" yMax="965">
      <contour>
        <pt x="758" y="-10" on="1"/>
        <pt x="689" y="-10" on="1"/>
        <pt x="197" y="610" on="1"/>
        <pt x="197" y="56" on="1"/>
        <pt x="285" y="37" on="1"/>
        <pt x="285" y="0" on="1"/>
        <pt x="39" y="0" on="1"/>
        <pt x="39" y="37" on="1"/>
        <pt x="128" y="56" on="1"/>
        <pt x="128" y="714" on="1"/>
        <pt x="40" y="733" on="1"/>
        <pt x="40" y="770" on="1"/>
        <pt x="311" y="770" on="1"/>
        <pt x="689" y="295" on="1"/>
        <pt x="689" y="714" on="1"/>
        <pt x="601" y="733" on="1"/>
        <pt x="601" y="770" on="1"/>
        <pt x="847" y="770" on="1"/>
        <pt x="847" y="733" on="1"/>
        <pt x="758" y="714" on="1"/>
      </contour>
      <contour>
        <pt x="313" y="821" on="1"/>
        <pt x="313" y="892" on="0"/>
        <pt x="373" y="963" on="0"/>
        <pt x="420" y="963" on="1"/>
        <pt x="439" y="963" on="0"/>
        <pt x="469" y="952" on="0"/>
        <pt x="496" y="938" on="0"/>
        <pt x="524" y="927" on="0"/>
        <pt x="541" y="927" on="1"/>
        <pt x="591" y="927" on="0"/>
        <pt x="601" y="965" on="1"/>
        <pt x="640" y="965" on="1"/>
        <pt x="640" y="896" on="0"/>
        <pt x="589" y="820" on="0"/>
        <pt x="538" y="820" on="1"/>
        <pt x="517" y="820" on="0"/>
        <pt x="487" y="832" on="0"/>
        <pt x="460" y="847" on="0"/>
        <pt x="432" y="859" on="0"/>
        <pt x="413" y="859" on="1"/>
        <pt x="387" y="859" on="0"/>
        <pt x="355" y="838" on="0"/>
        <pt x="352" y="821" on="1"/>
      </contour>
    </TTGlyph>
    <TTGlyph name="O" xMin="45" yMin="-10" xMax="824" yMax="780">
      <contour>
        <pt x="434" y="780" on="1"/>
        <pt x="528" y="780" on="0"/>
        <pt x="674" y="718" on="0"/>
        <pt x="773" y="610" on="0"/>
        <pt x="824" y="466" on="0"/>
        <pt x="824" y="385" on="1"/>
        <pt x="824" y="304" on="0"/>
        <pt x="773" y="160" on="0"/>
        <pt x="674" y="52" on="0"/>
        <pt x="528" y="-10" on="0"/>
        <pt x="434" y="-10" on="1"/>
        <pt x="340" y="-10" on="0"/>
        <pt x="195" y="52" on="0"/>
        <pt x="96" y="160" on="0"/>
        <pt x="45" y="304" on="0"/>
        <pt x="45" y="385" on="1"/>
        <pt x="45" y="466" on="0"/>
        <pt x="96" y="610" on="0"/>
        <pt x="195" y="718" on="0"/>
        <pt x="340" y="780" on="0"/>
      </contour>
      <contour>
        <pt x="242" y="385" on="1"/>
        <pt x="242" y="333" on="0"/>
        <pt x="257" y="215" on="0"/>
        <pt x="299" y="114" on="0"/>
        <pt x="374" y="48" on="0"/>
        <pt x="434" y="48" on="1"/>
        <pt x="495" y="48" on="0"/>
        <pt x="570" y="114" on="0"/>
        <pt x="612" y="215" on="0"/>
        <pt x="627" y="333" on="0"/>
        <pt x="627" y="385" on="1"/>
        <pt x="627" y="437" on="0"/>
        <pt x="613" y="554" on="0"/>
        <pt x="571" y="654" on="0"/>
        <pt x="495" y="720" on="0"/>
        <pt x="434" y="720" on="1"/>
        <pt x="374" y="720" on="0"/>
        <pt x="299" y="654" on="0"/>
        <pt x="257" y="554" on="0"/>
        <pt x="242" y="437" on="0"/>
      </contour>
    </TTGlyph>
    <TTGlyph name="OE" xMin="45" yMin="-10" xMax="1132" yMax="780">
      <contour>
        <pt x="740" y="713" on="1"/>
        <pt x="740" y="434" on="1"/>
        <pt x="866" y="434" on="1"/>
        <pt x="883" y="462" on="0"/>
        <pt x="903" y="519" on="0"/>
        <pt x="909" y="547" on="1"/>
        <pt x="951" y="547" on="1"/>
        <pt x="951" y="267" on="1"/>
        <pt x="909" y="267" on="1"/>
        <pt x="903" y="295" on="0"/>
        <pt x="882" y="352" on="0"/>
        <pt x="866" y="380" on="1"/>
        <pt x="740" y="380" on="1"/>
        <pt x="740" y="57" on="1"/>
        <pt x="989" y="57" on="1"/>
        <pt x="1021" y="102" on="0"/>
        <pt x="1062" y="189" on="0"/>
        <pt x="1080" y="234" on="1"/>
        <pt x="1132" y="234" on="1"/>
        <pt x="1090" y="0" on="1"/>
        <pt x="532" y="0" on="1"/>
        <pt x="509" y="-5" on="0"/>
        <pt x="460" y="-10" on="0"/>
        <pt x="434" y="-10" on="1"/>
        <pt x="340" y="-10" on="0"/>
        <pt x="195" y="52" on="0"/>
        <pt x="96" y="160" on="0"/>
        <pt x="45" y="304" on="0"/>
        <pt x="45" y="385" on="1"/>
        <pt x="45" y="466" on="0"/>
        <pt x="96" y="610" on="0"/>
        <pt x="195" y="718" on="0"/>
        <pt x="340" y="780" on="0"/>
        <pt x="434" y="780" on="1"/>
        <pt x="460" y="780" on="0"/>
        <pt x="511" y="775" on="0"/>
        <pt x="534" y="770" on="1"/>
        <pt x="1095" y="770" on="1"/>
        <pt x="1114" y="550" on="1"/>
        <pt x="1072" y="550" on="1"/>
        <pt x="1058" y="589" on="0"/>
        <pt x="1021" y="674" on="0"/>
        <pt x="995" y="713" on="1"/>
      </contour>
      <contour>
        <pt x="434" y="48" on="1"/>
        <pt x="480" y="48" on="0"/>
        <pt x="546" y="78" on="0"/>
        <pt x="568" y="103" on="1"/>
        <pt x="568" y="663" on="1"/>
        <pt x="546" y="689" on="0"/>
        <pt x="481" y="720" on="0"/>
        <pt x="434" y="720" on="1"/>
        <pt x="374" y="720" on="0"/>
        <pt x="299" y="654" on="0"/>
        <pt x="257" y="554" on="0"/>
        <pt x="242" y="437" on="0"/>
        <pt x="242" y="385" on="1"/>
        <pt x="242" y="333" on="0"/>
        <pt x="257" y="215" on="0"/>
        <pt x="299" y="114" on="0"/>
        <pt x="374" y="48" on="0"/>
      </contour>
    </TTGlyph>
    <TTGlyph name="Oacute" xMin="45" yMin="-10" xMax="824" yMax="963">
      <contour>
        <pt x="434" y="780" on="1"/>
        <pt x="528" y="780" on="0"/>
        <pt x="674" y="718" on="0"/>
        <pt x="773" y="610" on="0"/>
        <pt x="824" y="466" on="0"/>
        <pt x="824" y="385" on="1"/>
        <pt x="824" y="304" on="0"/>
        <pt x="773" y="160" on="0"/>
        <pt x="674" y="52" on="0"/>
        <pt x="528" y="-10" on="0"/>
        <pt x="434" y="-10" on="1"/>
        <pt x="340" y="-10" on="0"/>
        <pt x="195" y="52" on="0"/>
        <pt x="96" y="160" on="0"/>
        <pt x="45" y="304" on="0"/>
        <pt x="45" y="385" on="1"/>
        <pt x="45" y="466" on="0"/>
        <pt x="96" y="610" on="0"/>
        <pt x="195" y="718" on="0"/>
        <pt x="340" y="780" on="0"/>
      </contour>
      <contour>
        <pt x="242" y="385" on="1"/>
        <pt x="242" y="333" on="0"/>
        <pt x="257" y="215" on="0"/>
        <pt x="299" y="114" on="0"/>
        <pt x="374" y="48" on="0"/>
        <pt x="434" y="48" on="1"/>
        <pt x="495" y="48" on="0"/>
        <pt x="570" y="114" on="0"/>
        <pt x="612" y="215" on="0"/>
        <pt x="627" y="333" on="0"/>
        <pt x="627" y="385" on="1"/>
        <pt x="627" y="437" on="0"/>
        <pt x="613" y="554" on="0"/>
        <pt x="571" y="654" on="0"/>
        <pt x="495" y="720" on="0"/>
        <pt x="434" y="720" on="1"/>
        <pt x="374" y="720" on="0"/>
        <pt x="299" y="654" on="0"/>
        <pt x="257" y="554" on="0"/>
        <pt x="242" y="437" on="0"/>
      </contour>
      <contour>
        <pt x="331" y="845" on="1"/>
        <pt x="456" y="939" on="1"/>
        <pt x="473" y="952" on="0"/>
        <pt x="504" y="963" on="0"/>
        <pt x="517" y="963" on="1"/>
        <pt x="543" y="963" on="0"/>
        <pt x="572" y="930" on="0"/>
        <pt x="572" y="909" on="1"/>
        <pt x="572" y="890" on="0"/>
        <pt x="545" y="855" on="0"/>
        <pt x="513" y="849" on="1"/>
        <pt x="348" y="817" on="1"/>
      </contour>
    </TTGlyph>
    <TTGlyph name="Obreve" xMin="45" yMin="-10" xMax="824" yMax="965">
      <contour>
        <pt x="434" y="780" on="1"/>
        <pt x="528" y="780" on="0"/>
        <pt x="674" y="718" on="0"/>
        <pt x="773" y="610" on="0"/>
        <pt x="824" y="466" on="0"/>
        <pt x="824" y="385" on="1"/>
        <pt x="824" y="304" on="0"/>
        <pt x="773" y="160" on="0"/>
        <pt x="674" y="52" on="0"/>
        <pt x="528" y="-10" on="0"/>
        <pt x="434" y="-10" on="1"/>
        <pt x="340" y="-10" on="0"/>
        <pt x="195" y="52" on="0"/>
        <pt x="96" y="160" on="0"/>
        <pt x="45" y="304" on="0"/>
        <pt x="45" y="385" on="1"/>
        <pt x="45" y="466" on="0"/>
        <pt x="96" y="610" on="0"/>
        <pt x="195" y="718" on="0"/>
        <pt x="340" y="780" on="0"/>
      </contour>
      <contour>
        <pt x="242" y="385" on="1"/>
        <pt x="242" y="333" on="0"/>
        <pt x="257" y="215" on="0"/>
        <pt x="299" y="114" on="0"/>
        <pt x="374" y="48" on="0"/>
        <pt x="434" y="48" on="1"/>
        <pt x="495" y="48" on="0"/>
        <pt x="570" y="114" on="0"/>
        <pt x="612" y="215" on="0"/>
        <pt x="627" y="333" on="0"/>
        <pt x="627" y="385" on="1"/>
        <pt x="627" y="437" on="0"/>
        <pt x="613" y="554" on="0"/>
        <pt x="571" y="654" on="0"/>
        <pt x="495" y="720" on="0"/>
        <pt x="434" y="720" on="1"/>
        <pt x="374" y="720" on="0"/>
        <pt x="299" y="654" on="0"/>
        <pt x="257" y="554" on="0"/>
        <pt x="242" y="437" on="0"/>
      </contour>
      <contour>
        <pt x="343" y="965" on="1"/>
        <pt x="355" y="948" on="0"/>
        <pt x="411" y="933" on="0"/>
        <pt x="444" y="933" on="1"/>
        <pt x="476" y="933" on="0"/>
        <pt x="531" y="948" on="0"/>
        <pt x="548" y="965" on="1"/>
        <pt x="597" y="965" on="1"/>
        <pt x="584" y="919" on="0"/>
        <pt x="545" y="865" on="0"/>
        <pt x="501" y="837" on="0"/>
        <pt x="457" y="829" on="0"/>
        <pt x="440" y="829" on="1"/>
        <pt x="417" y="829" on="0"/>
        <pt x="368" y="843" on="0"/>
        <pt x="327" y="875" on="0"/>
        <pt x="297" y="927" on="0"/>
        <pt x="293" y="965" on="1"/>
      </contour>
    </TTGlyph>
    <TTGlyph name="Ocircumflex" xMin="45" yMin="-10" xMax="824" yMax="960">
      <contour>
        <pt x="434" y="780" on="1"/>
        <pt x="528" y="780" on="0"/>
        <pt x="674" y="718" on="0"/>
        <pt x="773" y="610" on="0"/>
        <pt x="824" y="466" on="0"/>
        <pt x="824" y="385" on="1"/>
        <pt x="824" y="304" on="0"/>
        <pt x="773" y="160" on="0"/>
        <pt x="674" y="52" on="0"/>
        <pt x="528" y="-10" on="0"/>
        <pt x="434" y="-10" on="1"/>
        <pt x="340" y="-10" on="0"/>
        <pt x="195" y="52" on="0"/>
        <pt x="96" y="160" on="0"/>
        <pt x="45" y="304" on="0"/>
        <pt x="45" y="385" on="1"/>
        <pt x="45" y="466" on="0"/>
        <pt x="96" y="610" on="0"/>
        <pt x="195" y="718" on="0"/>
        <pt x="340" y="780" on="0"/>
      </contour>
      <contour>
        <pt x="242" y="385" on="1"/>
        <pt x="242" y="333" on="0"/>
        <pt x="257" y="215" on="0"/>
        <pt x="299" y="114" on="0"/>
        <pt x="374" y="48" on="0"/>
        <pt x="434" y="48" on="1"/>
        <pt x="495" y="48" on="0"/>
        <pt x="570" y="114" on="0"/>
        <pt x="612" y="215" on="0"/>
        <pt x="627" y="333" on="0"/>
        <pt x="627" y="385" on="1"/>
        <pt x="627" y="437" on="0"/>
        <pt x="613" y="554" on="0"/>
        <pt x="571" y="654" on="0"/>
        <pt x="495" y="720" on="0"/>
        <pt x="434" y="720" on="1"/>
        <pt x="374" y="720" on="0"/>
        <pt x="299" y="654" on="0"/>
        <pt x="257" y="554" on="0"/>
        <pt x="242" y="437" on="0"/>
      </contour>
      <contour>
        <pt x="444" y="960" on="1"/>
        <pt x="461" y="960" on="0"/>
        <pt x="492" y="944" on="0"/>
        <pt x="512" y="927" on="1"/>
        <pt x="616" y="843" on="1"/>
        <pt x="600" y="821" on="1"/>
        <pt x="443" y="862" on="1"/>
        <pt x="286" y="821" on="1"/>
        <pt x="270" y="843" on="1"/>
        <pt x="372" y="927" on="1"/>
        <pt x="392" y="944" on="0"/>
        <pt x="424" y="960" on="0"/>
      </contour>
    </TTGlyph>
    <TTGlyph name="Odieresis" xMin="45" yMin="-10" xMax="824" yMax="966">
      <contour>
        <pt x="434" y="780" on="1"/>
        <pt x="528" y="780" on="0"/>
        <pt x="674" y="718" on="0"/>
        <pt x="773" y="610" on="0"/>
        <pt x="824" y="466" on="0"/>
        <pt x="824" y="385" on="1"/>
        <pt x="824" y="304" on="0"/>
        <pt x="773" y="160" on="0"/>
        <pt x="674" y="52" on="0"/>
        <pt x="528" y="-10" on="0"/>
        <pt x="434" y="-10" on="1"/>
        <pt x="340" y="-10" on="0"/>
        <pt x="195" y="52" on="0"/>
        <pt x="96" y="160" on="0"/>
        <pt x="45" y="304" on="0"/>
        <pt x="45" y="385" on="1"/>
        <pt x="45" y="466" on="0"/>
        <pt x="96" y="610" on="0"/>
        <pt x="195" y="718" on="0"/>
        <pt x="340" y="780" on="0"/>
      </contour>
      <contour>
        <pt x="242" y="385" on="1"/>
        <pt x="242" y="333" on="0"/>
        <pt x="257" y="215" on="0"/>
        <pt x="299" y="114" on="0"/>
        <pt x="374" y="48" on="0"/>
        <pt x="434" y="48" on="1"/>
        <pt x="495" y="48" on="0"/>
        <pt x="570" y="114" on="0"/>
        <pt x="612" y="215" on="0"/>
        <pt x="627" y="333" on="0"/>
        <pt x="627" y="385" on="1"/>
        <pt x="627" y="437" on="0"/>
        <pt x="613" y="554" on="0"/>
        <pt x="571" y="654" on="0"/>
        <pt x="495" y="720" on="0"/>
        <pt x="434" y="720" on="1"/>
        <pt x="374" y="720" on="0"/>
        <pt x="299" y="654" on="0"/>
        <pt x="257" y="554" on="0"/>
        <pt x="242" y="437" on="0"/>
      </contour>
      <contour>
        <pt x="269" y="897" on="1"/>
        <pt x="269" y="924" on="0"/>
        <pt x="306" y="966" on="0"/>
        <pt x="340" y="966" on="1"/>
        <pt x="374" y="966" on="0"/>
        <pt x="413" y="924" on="0"/>
        <pt x="413" y="897" on="1"/>
        <pt x="413" y="873" on="0"/>
        <pt x="376" y="830" on="0"/>
        <pt x="340" y="830" on="1"/>
        <pt x="305" y="830" on="0"/>
        <pt x="269" y="873" on="0"/>
      </contour>
      <contour>
        <pt x="476" y="897" on="1"/>
        <pt x="476" y="924" on="0"/>
        <pt x="513" y="966" on="0"/>
        <pt x="547" y="966" on="1"/>
        <pt x="581" y="966" on="0"/>
        <pt x="620" y="924" on="0"/>
        <pt x="620" y="897" on="1"/>
        <pt x="620" y="873" on="0"/>
        <pt x="584" y="830" on="0"/>
        <pt x="547" y="830" on="1"/>
        <pt x="512" y="830" on="0"/>
        <pt x="476" y="873" on="0"/>
      </contour>
    </TTGlyph>
    <TTGlyph name="Odotbelow" xMin="45" yMin="-260" xMax="824" yMax="780">
      <contour>
        <pt x="434" y="780" on="1"/>
        <pt x="528" y="780" on="0"/>
        <pt x="674" y="718" on="0"/>
        <pt x="773" y="610" on="0"/>
        <pt x="824" y="466" on="0"/>
        <pt x="824" y="385" on="1"/>
        <pt x="824" y="304" on="0"/>
        <pt x="773" y="160" on="0"/>
        <pt x="674" y="52" on="0"/>
        <pt x="528" y="-10" on="0"/>
        <pt x="434" y="-10" on="1"/>
        <pt x="340" y="-10" on="0"/>
        <pt x="195" y="52" on="0"/>
        <pt x="96" y="160" on="0"/>
        <pt x="45" y="304" on="0"/>
        <pt x="45" y="385" on="1"/>
        <pt x="45" y="466" on="0"/>
        <pt x="96" y="610" on="0"/>
        <pt x="195" y="718" on="0"/>
        <pt x="340" y="780" on="0"/>
      </contour>
      <contour>
        <pt x="242" y="385" on="1"/>
        <pt x="242" y="333" on="0"/>
        <pt x="257" y="215" on="0"/>
        <pt x="299" y="114" on="0"/>
        <pt x="374" y="48" on="0"/>
        <pt x="434" y="48" on="1"/>
        <pt x="495" y="48" on="0"/>
        <pt x="570" y="114" on="0"/>
        <pt x="612" y="215" on="0"/>
        <pt x="627" y="333" on="0"/>
        <pt x="627" y="385" on="1"/>
        <pt x="627" y="437" on="0"/>
        <pt x="613" y="554" on="0"/>
        <pt x="571" y="654" on="0"/>
        <pt x="495" y="720" on="0"/>
        <pt x="434" y="720" on="1"/>
        <pt x="374" y="720" on="0"/>
        <pt x="299" y="654" on="0"/>
        <pt x="257" y="554" on="0"/>
        <pt x="242" y="437" on="0"/>
      </contour>
      <contour>
        <pt x="350" y="-178" on="1"/>
        <pt x="350" y="-145" on="0"/>
        <pt x="395" y="-95" on="0"/>
        <pt x="436" y="-95" on="1"/>
        <pt x="478" y="-95" on="0"/>
        <pt x="525" y="-145" on="0"/>
        <pt x="525" y="-178" on="1"/>
        <pt x="525" y="-209" on="0"/>
        <pt x="480" y="-260" on="0"/>
        <pt x="436" y="-260" on="1"/>
        <pt x="394" y="-260" on="0"/>
        <pt x="350" y="-209" on="0"/>
      </contour>
    </TTGlyph>
    <TTGlyph name="Ograve" xMin="45" yMin="-10" xMax="824" yMax="963">
      <contour>
        <pt x="434" y="780" on="1"/>
        <pt x="528" y="780" on="0"/>
        <pt x="674" y="718" on="0"/>
        <pt x="773" y="610" on="0"/>
        <pt x="824" y="466" on="0"/>
        <pt x="824" y="385" on="1"/>
        <pt x="824" y="304" on="0"/>
        <pt x="773" y="160" on="0"/>
        <pt x="674" y="52" on="0"/>
        <pt x="528" y="-10" on="0"/>
        <pt x="434" y="-10" on="1"/>
        <pt x="340" y="-10" on="0"/>
        <pt x="195" y="52" on="0"/>
        <pt x="96" y="160" on="0"/>
        <pt x="45" y="304" on="0"/>
        <pt x="45" y="385" on="1"/>
        <pt x="45" y="466" on="0"/>
        <pt x="96" y="610" on="0"/>
        <pt x="195" y="718" on="0"/>
        <pt x="340" y="780" on="0"/>
      </contour>
      <contour>
        <pt x="242" y="385" on="1"/>
        <pt x="242" y="333" on="0"/>
        <pt x="257" y="215" on="0"/>
        <pt x="299" y="114" on="0"/>
        <pt x="374" y="48" on="0"/>
        <pt x="434" y="48" on="1"/>
        <pt x="495" y="48" on="0"/>
        <pt x="570" y="114" on="0"/>
        <pt x="612" y="215" on="0"/>
        <pt x="627" y="333" on="0"/>
        <pt x="627" y="385" on="1"/>
        <pt x="627" y="437" on="0"/>
        <pt x="613" y="554" on="0"/>
        <pt x="571" y="654" on="0"/>
        <pt x="495" y="720" on="0"/>
        <pt x="434" y="720" on="1"/>
        <pt x="374" y="720" on="0"/>
        <pt x="299" y="654" on="0"/>
        <pt x="257" y="554" on="0"/>
        <pt x="242" y="437" on="0"/>
      </contour>
      <contour>
        <pt x="535" y="817" on="1"/>
        <pt x="370" y="849" on="1"/>
        <pt x="338" y="855" on="0"/>
        <pt x="311" y="890" on="0"/>
        <pt x="311" y="909" on="1"/>
        <pt x="311" y="930" on="0"/>
        <pt x="340" y="963" on="0"/>
        <pt x="366" y="963" on="1"/>
        <pt x="379" y="963" on="0"/>
        <pt x="410" y="952" on="0"/>
        <pt x="427" y="939" on="1"/>
        <pt x="552" y="845" on="1"/>
      </contour>
    </TTGlyph>
    <TTGlyph name="Ohungarumlaut" xMin="45" yMin="-10" xMax="824" yMax="965">
      <contour>
        <pt x="434" y="780" on="1"/>
        <pt x="528" y="780" on="0"/>
        <pt x="674" y="718" on="0"/>
        <pt x="773" y="610" on="0"/>
        <pt x="824" y="466" on="0"/>
        <pt x="824" y="385" on="1"/>
        <pt x="824" y="304" on="0"/>
        <pt x="773" y="160" on="0"/>
        <pt x="674" y="52" on="0"/>
        <pt x="528" y="-10" on="0"/>
        <pt x="434" y="-10" on="1"/>
        <pt x="340" y="-10" on="0"/>
        <pt x="195" y="52" on="0"/>
        <pt x="96" y="160" on="0"/>
        <pt x="45" y="304" on="0"/>
        <pt x="45" y="385" on="1"/>
        <pt x="45" y="466" on="0"/>
        <pt x="96" y="610" on="0"/>
        <pt x="195" y="718" on="0"/>
        <pt x="340" y="780" on="0"/>
      </contour>
      <contour>
        <pt x="242" y="385" on="1"/>
        <pt x="242" y="333" on="0"/>
        <pt x="257" y="215" on="0"/>
        <pt x="299" y="114" on="0"/>
        <pt x="374" y="48" on="0"/>
        <pt x="434" y="48" on="1"/>
        <pt x="495" y="48" on="0"/>
        <pt x="570" y="114" on="0"/>
        <pt x="612" y="215" on="0"/>
        <pt x="627" y="333" on="0"/>
        <pt x="627" y="385" on="1"/>
        <pt x="627" y="437" on="0"/>
        <pt x="613" y="554" on="0"/>
        <pt x="571" y="654" on="0"/>
        <pt x="495" y="720" on="0"/>
        <pt x="434" y="720" on="1"/>
        <pt x="374" y="720" on="0"/>
        <pt x="299" y="654" on="0"/>
        <pt x="257" y="554" on="0"/>
        <pt x="242" y="437" on="0"/>
      </contour>
      <contour>
        <pt x="254" y="841" on="1"/>
        <pt x="340" y="930" on="1"/>
        <pt x="358" y="949" on="0"/>
        <pt x="391" y="965" on="0"/>
        <pt x="405" y="965" on="1"/>
        <pt x="430" y="965" on="0"/>
        <pt x="460" y="932" on="0"/>
        <pt x="460" y="911" on="1"/>
        <pt x="460" y="894" on="0"/>
        <pt x="438" y="858" on="0"/>
        <pt x="411" y="851" on="1"/>
        <pt x="275" y="816" on="1"/>
      </contour>
      <contour>
        <pt x="460" y="841" on="1"/>
        <pt x="546" y="930" on="1"/>
        <pt x="564" y="949" on="0"/>
        <pt x="597" y="965" on="0"/>
        <pt x="611" y="965" on="1"/>
        <pt x="636" y="965" on="0"/>
        <pt x="666" y="932" on="0"/>
        <pt x="666" y="911" on="1"/>
        <pt x="666" y="894" on="0"/>
        <pt x="644" y="858" on="0"/>
        <pt x="617" y="851" on="1"/>
        <pt x="481" y="816" on="1"/>
      </contour>
    </TTGlyph>
    <TTGlyph name="Omacron" xMin="45" yMin="-10" xMax="824" yMax="960">
      <contour>
        <pt x="434" y="780" on="1"/>
        <pt x="528" y="780" on="0"/>
        <pt x="674" y="718" on="0"/>
        <pt x="773" y="610" on="0"/>
        <pt x="824" y="466" on="0"/>
        <pt x="824" y="385" on="1"/>
        <pt x="824" y="304" on="0"/>
        <pt x="773" y="160" on="0"/>
        <pt x="674" y="52" on="0"/>
        <pt x="528" y="-10" on="0"/>
        <pt x="434" y="-10" on="1"/>
        <pt x="340" y="-10" on="0"/>
        <pt x="195" y="52" on="0"/>
        <pt x="96" y="160" on="0"/>
        <pt x="45" y="304" on="0"/>
        <pt x="45" y="385" on="1"/>
        <pt x="45" y="466" on="0"/>
        <pt x="96" y="610" on="0"/>
        <pt x="195" y="718" on="0"/>
        <pt x="340" y="780" on="0"/>
      </contour>
      <contour>
        <pt x="242" y="385" on="1"/>
        <pt x="242" y="333" on="0"/>
        <pt x="257" y="215" on="0"/>
        <pt x="299" y="114" on="0"/>
        <pt x="374" y="48" on="0"/>
        <pt x="434" y="48" on="1"/>
        <pt x="495" y="48" on="0"/>
        <pt x="570" y="114" on="0"/>
        <pt x="612" y="215" on="0"/>
        <pt x="627" y="333" on="0"/>
        <pt x="627" y="385" on="1"/>
        <pt x="627" y="437" on="0"/>
        <pt x="613" y="554" on="0"/>
        <pt x="571" y="654" on="0"/>
        <pt x="495" y="720" on="0"/>
        <pt x="434" y="720" on="1"/>
        <pt x="374" y="720" on="0"/>
        <pt x="299" y="654" on="0"/>
        <pt x="257" y="554" on="0"/>
        <pt x="242" y="437" on="0"/>
      </contour>
      <contour>
        <pt x="287" y="864" on="1"/>
        <pt x="287" y="960" on="1"/>
        <pt x="594" y="960" on="1"/>
        <pt x="594" y="864" on="1"/>
      </contour>
    </TTGlyph>
    <TTGlyph name="Oogonek" xMin="45" yMin="-256" xMax="824" yMax="780">
      <contour>
        <pt x="533" y="-202" on="1"/>
        <pt x="478" y="-256" on="0"/>
        <pt x="403" y="-256" on="1"/>
        <pt x="356" y="-256" on="0"/>
        <pt x="301" y="-209" on="0"/>
        <pt x="301" y="-168" on="1"/>
        <pt x="301" y="-131" on="0"/>
        <pt x="355" y="-47" on="0"/>
        <pt x="403" y="-9" on="1"/>
        <pt x="317" y="-4" on="0"/>
        <pt x="183" y="62" on="0"/>
        <pt x="92" y="168" on="0"/>
        <pt x="45" y="307" on="0"/>
        <pt x="45" y="385" on="1"/>
        <pt x="45" y="466" on="0"/>
        <pt x="96" y="610" on="0"/>
        <pt x="195" y="718" on="0"/>
        <pt x="340" y="780" on="0"/>
        <pt x="434" y="780" on="1"/>
        <pt x="528" y="780" on="0"/>
        <pt x="674" y="718" on="0"/>
        <pt x="773" y="610" on="0"/>
        <pt x="824" y="466" on="0"/>
        <pt x="824" y="385" on="1"/>
        <pt x="824" y="307" on="0"/>
        <pt x="777" y="169" on="0"/>
        <pt x="687" y="64" on="0"/>
        <pt x="555" y="-2" on="0"/>
        <pt x="470" y="-8" on="1"/>
        <pt x="414" y="-73" on="0"/>
        <pt x="414" y="-124" on="1"/>
        <pt x="414" y="-181" on="0"/>
        <pt x="462" y="-181" on="1"/>
        <pt x="476" y="-181" on="0"/>
        <pt x="501" y="-171" on="0"/>
        <pt x="518" y="-160" on="1"/>
      </contour>
      <contour>
        <pt x="242" y="385" on="1"/>
        <pt x="242" y="333" on="0"/>
        <pt x="257" y="215" on="0"/>
        <pt x="299" y="114" on="0"/>
        <pt x="374" y="48" on="0"/>
        <pt x="434" y="48" on="1"/>
        <pt x="495" y="48" on="0"/>
        <pt x="570" y="114" on="0"/>
        <pt x="612" y="215" on="0"/>
        <pt x="627" y="333" on="0"/>
        <pt x="627" y="385" on="1"/>
        <pt x="627" y="437" on="0"/>
        <pt x="613" y="554" on="0"/>
        <pt x="571" y="654" on="0"/>
        <pt x="495" y="720" on="0"/>
        <pt x="434" y="720" on="1"/>
        <pt x="374" y="720" on="0"/>
        <pt x="299" y="654" on="0"/>
        <pt x="257" y="554" on="0"/>
        <pt x="242" y="437" on="0"/>
      </contour>
    </TTGlyph>
    <TTGlyph name="Oslash" xMin="44" yMin="-10" xMax="823" yMax="780">
      <contour>
        <pt x="433" y="-10" on="1"/>
        <pt x="361" y="-10" on="0"/>
        <pt x="242" y="27" on="0"/>
        <pt x="195" y="61" on="1"/>
        <pt x="143" y="0" on="1"/>
        <pt x="66" y="0" on="1"/>
        <pt x="151" y="99" on="1"/>
        <pt x="98" y="153" on="0"/>
        <pt x="44" y="300" on="0"/>
        <pt x="44" y="385" on="1"/>
        <pt x="44" y="466" on="0"/>
        <pt x="95" y="610" on="0"/>
        <pt x="194" y="718" on="0"/>
        <pt x="339" y="780" on="0"/>
        <pt x="433" y="780" on="1"/>
        <pt x="506" y="780" on="0"/>
        <pt x="626" y="741" on="0"/>
        <pt x="673" y="707" on="1"/>
        <pt x="727" y="770" on="1"/>
        <pt x="805" y="770" on="1"/>
        <pt x="717" y="668" on="1"/>
        <pt x="769" y="614" on="0"/>
        <pt x="823" y="469" on="0"/>
        <pt x="823" y="385" on="1"/>
        <pt x="823" y="304" on="0"/>
        <pt x="772" y="160" on="0"/>
        <pt x="673" y="52" on="0"/>
        <pt x="527" y="-10" on="0"/>
      </contour>
      <contour>
        <pt x="589" y="609" on="1"/>
        <pt x="568" y="657" on="0"/>
        <pt x="493" y="720" on="0"/>
        <pt x="433" y="720" on="1"/>
        <pt x="373" y="720" on="0"/>
        <pt x="298" y="654" on="0"/>
        <pt x="256" y="554" on="0"/>
        <pt x="241" y="437" on="0"/>
        <pt x="241" y="385" on="1"/>
        <pt x="241" y="347" on="0"/>
        <pt x="248" y="264" on="0"/>
        <pt x="258" y="223" on="1"/>
      </contour>
      <contour>
        <pt x="433" y="48" on="1"/>
        <pt x="494" y="48" on="0"/>
        <pt x="569" y="114" on="0"/>
        <pt x="611" y="215" on="0"/>
        <pt x="626" y="333" on="0"/>
        <pt x="626" y="385" on="1"/>
        <pt x="626" y="422" on="0"/>
        <pt x="619" y="504" on="0"/>
        <pt x="610" y="543" on="1"/>
        <pt x="279" y="158" on="1"/>
        <pt x="300" y="110" on="0"/>
        <pt x="374" y="48" on="0"/>
      </contour>
    </TTGlyph>
    <TTGlyph name="Oslashacute" xMin="44" yMin="-10" xMax="823" yMax="963">
      <contour>
        <pt x="433" y="-10" on="1"/>
        <pt x="361" y="-10" on="0"/>
        <pt x="242" y="27" on="0"/>
        <pt x="195" y="61" on="1"/>
        <pt x="143" y="0" on="1"/>
        <pt x="66" y="0" on="1"/>
        <pt x="151" y="99" on="1"/>
        <pt x="98" y="153" on="0"/>
        <pt x="44" y="300" on="0"/>
        <pt x="44" y="385" on="1"/>
        <pt x="44" y="466" on="0"/>
        <pt x="95" y="610" on="0"/>
        <pt x="194" y="718" on="0"/>
        <pt x="339" y="780" on="0"/>
        <pt x="433" y="780" on="1"/>
        <pt x="506" y="780" on="0"/>
        <pt x="626" y="741" on="0"/>
        <pt x="673" y="707" on="1"/>
        <pt x="727" y="770" on="1"/>
        <pt x="805" y="770" on="1"/>
        <pt x="717" y="668" on="1"/>
        <pt x="769" y="614" on="0"/>
        <pt x="823" y="469" on="0"/>
        <pt x="823" y="385" on="1"/>
        <pt x="823" y="304" on="0"/>
        <pt x="772" y="160" on="0"/>
        <pt x="673" y="52" on="0"/>
        <pt x="527" y="-10" on="0"/>
      </contour>
      <contour>
        <pt x="589" y="609" on="1"/>
        <pt x="568" y="657" on="0"/>
        <pt x="493" y="720" on="0"/>
        <pt x="433" y="720" on="1"/>
        <pt x="373" y="720" on="0"/>
        <pt x="298" y="654" on="0"/>
        <pt x="256" y="554" on="0"/>
        <pt x="241" y="437" on="0"/>
        <pt x="241" y="385" on="1"/>
        <pt x="241" y="347" on="0"/>
        <pt x="248" y="264" on="0"/>
        <pt x="258" y="223" on="1"/>
      </contour>
      <contour>
        <pt x="433" y="48" on="1"/>
        <pt x="494" y="48" on="0"/>
        <pt x="569" y="114" on="0"/>
        <pt x="611" y="215" on="0"/>
        <pt x="626" y="333" on="0"/>
        <pt x="626" y="385" on="1"/>
        <pt x="626" y="422" on="0"/>
        <pt x="619" y="504" on="0"/>
        <pt x="610" y="543" on="1"/>
        <pt x="279" y="158" on="1"/>
        <pt x="300" y="110" on="0"/>
        <pt x="374" y="48" on="0"/>
      </contour>
      <contour>
        <pt x="326" y="845" on="1"/>
        <pt x="451" y="939" on="1"/>
        <pt x="468" y="952" on="0"/>
        <pt x="499" y="963" on="0"/>
        <pt x="512" y="963" on="1"/>
        <pt x="538" y="963" on="0"/>
        <pt x="567" y="930" on="0"/>
        <pt x="567" y="909" on="1"/>
        <pt x="567" y="890" on="0"/>
        <pt x="540" y="855" on="0"/>
        <pt x="508" y="849" on="1"/>
        <pt x="343" y="817" on="1"/>
      </contour>
    </TTGlyph>
    <TTGlyph name="Otilde" xMin="45" yMin="-10" xMax="824" yMax="965">
      <contour>
        <pt x="434" y="780" on="1"/>
        <pt x="528" y="780" on="0"/>
        <pt x="674" y="718" on="0"/>
        <pt x="773" y="610" on="0"/>
        <pt x="824" y="466" on="0"/>
        <pt x="824" y="385" on="1"/>
        <pt x="824" y="304" on="0"/>
        <pt x="773" y="160" on="0"/>
        <pt x="674" y="52" on="0"/>
        <pt x="528" y="-10" on="0"/>
        <pt x="434" y="-10" on="1"/>
        <pt x="340" y="-10" on="0"/>
        <pt x="195" y="52" on="0"/>
        <pt x="96" y="160" on="0"/>
        <pt x="45" y="304" on="0"/>
        <pt x="45" y="385" on="1"/>
        <pt x="45" y="466" on="0"/>
        <pt x="96" y="610" on="0"/>
        <pt x="195" y="718" on="0"/>
        <pt x="340" y="780" on="0"/>
      </contour>
      <contour>
        <pt x="242" y="385" on="1"/>
        <pt x="242" y="333" on="0"/>
        <pt x="257" y="215" on="0"/>
        <pt x="299" y="114" on="0"/>
        <pt x="374" y="48" on="0"/>
        <pt x="434" y="48" on="1"/>
        <pt x="495" y="48" on="0"/>
        <pt x="570" y="114" on="0"/>
        <pt x="612" y="215" on="0"/>
        <pt x="627" y="333" on="0"/>
        <pt x="627" y="385" on="1"/>
        <pt x="627" y="437" on="0"/>
        <pt x="613" y="554" on="0"/>
        <pt x="571" y="654" on="0"/>
        <pt x="495" y="720" on="0"/>
        <pt x="434" y="720" on="1"/>
        <pt x="374" y="720" on="0"/>
        <pt x="299" y="654" on="0"/>
        <pt x="257" y="554" on="0"/>
        <pt x="242" y="437" on="0"/>
      </contour>
      <contour>
        <pt x="279" y="821" on="1"/>
        <pt x="279" y="892" on="0"/>
        <pt x="339" y="963" on="0"/>
        <pt x="386" y="963" on="1"/>
        <pt x="405" y="963" on="0"/>
        <pt x="435" y="952" on="0"/>
        <pt x="462" y="938" on="0"/>
        <pt x="490" y="927" on="0"/>
        <pt x="507" y="927" on="1"/>
        <pt x="557" y="927" on="0"/>
        <pt x="567" y="965" on="1"/>
        <pt x="606" y="965" on="1"/>
        <pt x="606" y="896" on="0"/>
        <pt x="555" y="820" on="0"/>
        <pt x="504" y="820" on="1"/>
        <pt x="483" y="820" on="0"/>
        <pt x="453" y="832" on="0"/>
        <pt x="426" y="847" on="0"/>
        <pt x="398" y="859" on="0"/>
        <pt x="379" y="859" on="1"/>
        <pt x="353" y="859" on="0"/>
        <pt x="321" y="838" on="0"/>
        <pt x="318" y="821" on="1"/>
      </contour>
    </TTGlyph>
    <TTGlyph name="P" xMin="42" yMin="0" xMax="669" yMax="770">
      <contour>
        <pt x="42" y="770" on="1"/>
        <pt x="375" y="770" on="1"/>
        <pt x="442" y="770" on="0"/>
        <pt x="551" y="738" on="0"/>
        <pt x="628" y="679" on="0"/>
        <pt x="669" y="594" on="0"/>
        <pt x="669" y="542" on="1"/>
        <pt x="669" y="436" on="0"/>
        <pt x="508" y="320" on="0"/>
        <pt x="359" y="320" on="1"/>
        <pt x="299" y="320" on="1"/>
        <pt x="299" y="59" on="1"/>
        <pt x="424" y="37" on="1"/>
        <pt x="424" y="0" on="1"/>
        <pt x="42" y="0" on="1"/>
        <pt x="42" y="37" on="1"/>
        <pt x="127" y="59" on="1"/>
        <pt x="127" y="712" on="1"/>
        <pt x="42" y="733" on="1"/>
      </contour>
      <contour>
        <pt x="299" y="374" on="1"/>
        <pt x="306" y="374" on="1"/>
        <pt x="397" y="374" on="0"/>
        <pt x="441" y="415" on="1"/>
        <pt x="464" y="437" on="0"/>
        <pt x="486" y="502" on="0"/>
        <pt x="486" y="551" on="1"/>
        <pt x="486" y="642" on="0"/>
        <pt x="448" y="680" on="1"/>
        <pt x="429" y="699" on="0"/>
        <pt x="370" y="716" on="0"/>
        <pt x="324" y="716" on="1"/>
        <pt x="299" y="716" on="1"/>
      </contour>
    </TTGlyph>
    <TTGlyph name="Q" xMin="45" yMin="-195" xMax="845" yMax="780">
      <contour>
        <pt x="434" y="780" on="1"/>
        <pt x="528" y="780" on="0"/>
        <pt x="674" y="718" on="0"/>
        <pt x="773" y="610" on="0"/>
        <pt x="824" y="466" on="0"/>
        <pt x="824" y="385" on="1"/>
        <pt x="824" y="313" on="0"/>
        <pt x="783" y="185" on="0"/>
        <pt x="705" y="83" on="0"/>
        <pt x="590" y="12" on="0"/>
        <pt x="517" y="-1" on="1"/>
        <pt x="517" y="-5" on="1"/>
        <pt x="540" y="-12" on="0"/>
        <pt x="585" y="-30" on="0"/>
        <pt x="632" y="-46" on="0"/>
        <pt x="682" y="-57" on="0"/>
        <pt x="710" y="-57" on="1"/>
        <pt x="741" y="-57" on="0"/>
        <pt x="791" y="-38" on="0"/>
        <pt x="815" y="-14" on="1"/>
        <pt x="845" y="-34" on="1"/>
        <pt x="812" y="-114" on="0"/>
        <pt x="707" y="-194" on="0"/>
        <pt x="652" y="-194" on="1"/>
        <pt x="619" y="-194" on="0"/>
        <pt x="569" y="-169" on="0"/>
        <pt x="528" y="-130" on="0"/>
        <pt x="490" y="-86" on="0"/>
        <pt x="449" y="-47" on="0"/>
        <pt x="401" y="-22" on="0"/>
        <pt x="369" y="-22" on="1"/>
        <pt x="343" y="-22" on="0"/>
        <pt x="310" y="-44" on="0"/>
        <pt x="310" y="-64" on="1"/>
        <pt x="310" y="-73" on="0"/>
        <pt x="316" y="-86" on="0"/>
        <pt x="323" y="-99" on="0"/>
        <pt x="329" y="-115" on="0"/>
        <pt x="329" y="-126" on="1"/>
        <pt x="329" y="-155" on="0"/>
        <pt x="288" y="-195" on="0"/>
        <pt x="257" y="-195" on="1"/>
        <pt x="225" y="-195" on="0"/>
        <pt x="187" y="-151" on="0"/>
        <pt x="187" y="-118" on="1"/>
        <pt x="187" y="-77" on="0"/>
        <pt x="247" y="-14" on="0"/>
        <pt x="300" y="7" on="1"/>
        <pt x="300" y="11" on="1"/>
        <pt x="239" y="31" on="0"/>
        <pt x="144" y="104" on="0"/>
        <pt x="79" y="202" on="0"/>
        <pt x="45" y="320" on="0"/>
        <pt x="45" y="385" on="1"/>
        <pt x="45" y="466" on="0"/>
        <pt x="96" y="610" on="0"/>
        <pt x="195" y="718" on="0"/>
        <pt x="340" y="780" on="0"/>
      </contour>
      <contour>
        <pt x="242" y="383" on="1"/>
        <pt x="242" y="330" on="0"/>
        <pt x="257" y="209" on="0"/>
        <pt x="299" y="106" on="0"/>
        <pt x="374" y="38" on="0"/>
        <pt x="434" y="38" on="1"/>
        <pt x="495" y="38" on="0"/>
        <pt x="570" y="106" on="0"/>
        <pt x="612" y="210" on="0"/>
        <pt x="627" y="331" on="0"/>
        <pt x="627" y="385" on="1"/>
        <pt x="627" y="436" on="0"/>
        <pt x="613" y="554" on="0"/>
        <pt x="571" y="654" on="0"/>
        <pt x="496" y="720" on="0"/>
        <pt x="435" y="720" on="1"/>
        <pt x="374" y="720" on="0"/>
        <pt x="298" y="654" on="0"/>
        <pt x="256" y="553" on="0"/>
        <pt x="242" y="435" on="0"/>
      </contour>
    </TTGlyph>
    <TTGlyph name="R" xMin="42" yMin="0" xMax="814" yMax="770">
      <contour>
        <pt x="42" y="37" on="1"/>
        <pt x="127" y="59" on="1"/>
        <pt x="127" y="712" on="1"/>
        <pt x="42" y="733" on="1"/>
        <pt x="42" y="770" on="1"/>
        <pt x="403" y="770" on="1"/>
        <pt x="462" y="770" on="0"/>
        <pt x="560" y="741" on="0"/>
        <pt x="631" y="686" on="0"/>
        <pt x="670" y="604" on="0"/>
        <pt x="670" y="551" on="1"/>
        <pt x="670" y="478" on="0"/>
        <pt x="597" y="380" on="0"/>
        <pt x="530" y="356" on="1"/>
        <pt x="723" y="56" on="1"/>
        <pt x="814" y="37" on="1"/>
        <pt x="814" y="0" on="1"/>
        <pt x="541" y="0" on="1"/>
        <pt x="340" y="335" on="1"/>
        <pt x="299" y="335" on="1"/>
        <pt x="299" y="59" on="1"/>
        <pt x="413" y="37" on="1"/>
        <pt x="413" y="0" on="1"/>
        <pt x="42" y="0" on="1"/>
      </contour>
      <contour>
        <pt x="313" y="389" on="1"/>
        <pt x="368" y="389" on="0"/>
        <pt x="434" y="418" on="0"/>
        <pt x="455" y="443" on="1"/>
        <pt x="477" y="468" on="0"/>
        <pt x="495" y="529" on="0"/>
        <pt x="495" y="561" on="1"/>
        <pt x="495" y="615" on="0"/>
        <pt x="446" y="687" on="0"/>
        <pt x="408" y="703" on="1"/>
        <pt x="391" y="710" on="0"/>
        <pt x="351" y="716" on="0"/>
        <pt x="320" y="716" on="1"/>
        <pt x="299" y="716" on="1"/>
        <pt x="299" y="389" on="1"/>
      </contour>
    </TTGlyph>
    <TTGlyph name="Racute" xMin="42" yMin="0" xMax="814" yMax="963">
      <contour>
        <pt x="42" y="37" on="1"/>
        <pt x="127" y="59" on="1"/>
        <pt x="127" y="712" on="1"/>
        <pt x="42" y="733" on="1"/>
        <pt x="42" y="770" on="1"/>
        <pt x="403" y="770" on="1"/>
        <pt x="462" y="770" on="0"/>
        <pt x="560" y="741" on="0"/>
        <pt x="631" y="686" on="0"/>
        <pt x="670" y="604" on="0"/>
        <pt x="670" y="551" on="1"/>
        <pt x="670" y="478" on="0"/>
        <pt x="597" y="380" on="0"/>
        <pt x="530" y="356" on="1"/>
        <pt x="723" y="56" on="1"/>
        <pt x="814" y="37" on="1"/>
        <pt x="814" y="0" on="1"/>
        <pt x="541" y="0" on="1"/>
        <pt x="340" y="335" on="1"/>
        <pt x="299" y="335" on="1"/>
        <pt x="299" y="59" on="1"/>
        <pt x="413" y="37" on="1"/>
        <pt x="413" y="0" on="1"/>
        <pt x="42" y="0" on="1"/>
      </contour>
      <contour>
        <pt x="313" y="389" on="1"/>
        <pt x="368" y="389" on="0"/>
        <pt x="434" y="418" on="0"/>
        <pt x="455" y="443" on="1"/>
        <pt x="477" y="468" on="0"/>
        <pt x="495" y="529" on="0"/>
        <pt x="495" y="561" on="1"/>
        <pt x="495" y="615" on="0"/>
        <pt x="446" y="687" on="0"/>
        <pt x="408" y="703" on="1"/>
        <pt x="391" y="710" on="0"/>
        <pt x="351" y="716" on="0"/>
        <pt x="320" y="716" on="1"/>
        <pt x="299" y="716" on="1"/>
        <pt x="299" y="389" on="1"/>
      </contour>
      <contour>
        <pt x="254" y="845" on="1"/>
        <pt x="379" y="939" on="1"/>
        <pt x="396" y="952" on="0"/>
        <pt x="427" y="963" on="0"/>
        <pt x="440" y="963" on="1"/>
        <pt x="466" y="963" on="0"/>
        <pt x="495" y="930" on="0"/>
        <pt x="495" y="909" on="1"/>
        <pt x="495" y="890" on="0"/>
        <pt x="468" y="855" on="0"/>
        <pt x="436" y="849" on="1"/>
        <pt x="271" y="817" on="1"/>
      </contour>
    </TTGlyph>
    <TTGlyph name="Rcaron" xMin="42" yMin="0" xMax="814" yMax="970">
      <contour>
        <pt x="42" y="37" on="1"/>
        <pt x="127" y="59" on="1"/>
        <pt x="127" y="712" on="1"/>
        <pt x="42" y="733" on="1"/>
        <pt x="42" y="770" on="1"/>
        <pt x="403" y="770" on="1"/>
        <pt x="462" y="770" on="0"/>
        <pt x="560" y="741" on="0"/>
        <pt x="631" y="686" on="0"/>
        <pt x="670" y="604" on="0"/>
        <pt x="670" y="551" on="1"/>
        <pt x="670" y="478" on="0"/>
        <pt x="597" y="380" on="0"/>
        <pt x="530" y="356" on="1"/>
        <pt x="723" y="56" on="1"/>
        <pt x="814" y="37" on="1"/>
        <pt x="814" y="0" on="1"/>
        <pt x="541" y="0" on="1"/>
        <pt x="340" y="335" on="1"/>
        <pt x="299" y="335" on="1"/>
        <pt x="299" y="59" on="1"/>
        <pt x="413" y="37" on="1"/>
        <pt x="413" y="0" on="1"/>
        <pt x="42" y="0" on="1"/>
      </contour>
      <contour>
        <pt x="313" y="389" on="1"/>
        <pt x="368" y="389" on="0"/>
        <pt x="434" y="418" on="0"/>
        <pt x="455" y="443" on="1"/>
        <pt x="477" y="468" on="0"/>
        <pt x="495" y="529" on="0"/>
        <pt x="495" y="561" on="1"/>
        <pt x="495" y="615" on="0"/>
        <pt x="446" y="687" on="0"/>
        <pt x="408" y="703" on="1"/>
        <pt x="391" y="710" on="0"/>
        <pt x="351" y="716" on="0"/>
        <pt x="320" y="716" on="1"/>
        <pt x="299" y="716" on="1"/>
        <pt x="299" y="389" on="1"/>
      </contour>
      <contour>
        <pt x="365" y="831" on="1"/>
        <pt x="345" y="831" on="0"/>
        <pt x="313" y="847" on="0"/>
        <pt x="293" y="864" on="1"/>
        <pt x="191" y="948" on="1"/>
        <pt x="207" y="970" on="1"/>
        <pt x="364" y="929" on="1"/>
        <pt x="521" y="970" on="1"/>
        <pt x="537" y="948" on="1"/>
        <pt x="433" y="864" on="1"/>
        <pt x="413" y="847" on="0"/>
        <pt x="382" y="831" on="0"/>
      </contour>
    </TTGlyph>
    <TTGlyph name="Rcommaaccent" xMin="42" yMin="-260" xMax="814" yMax="770">
      <contour>
        <pt x="42" y="37" on="1"/>
        <pt x="127" y="59" on="1"/>
        <pt x="127" y="712" on="1"/>
        <pt x="42" y="733" on="1"/>
        <pt x="42" y="770" on="1"/>
        <pt x="403" y="770" on="1"/>
        <pt x="462" y="770" on="0"/>
        <pt x="560" y="741" on="0"/>
        <pt x="631" y="686" on="0"/>
        <pt x="670" y="604" on="0"/>
        <pt x="670" y="551" on="1"/>
        <pt x="670" y="478" on="0"/>
        <pt x="597" y="380" on="0"/>
        <pt x="530" y="356" on="1"/>
        <pt x="723" y="56" on="1"/>
        <pt x="814" y="37" on="1"/>
        <pt x="814" y="0" on="1"/>
        <pt x="541" y="0" on="1"/>
        <pt x="340" y="335" on="1"/>
        <pt x="299" y="335" on="1"/>
        <pt x="299" y="59" on="1"/>
        <pt x="413" y="37" on="1"/>
        <pt x="413" y="0" on="1"/>
        <pt x="42" y="0" on="1"/>
      </contour>
      <contour>
        <pt x="313" y="389" on="1"/>
        <pt x="368" y="389" on="0"/>
        <pt x="434" y="418" on="0"/>
        <pt x="455" y="443" on="1"/>
        <pt x="477" y="468" on="0"/>
        <pt x="495" y="529" on="0"/>
        <pt x="495" y="561" on="1"/>
        <pt x="495" y="615" on="0"/>
        <pt x="446" y="687" on="0"/>
        <pt x="408" y="703" on="1"/>
        <pt x="391" y="710" on="0"/>
        <pt x="351" y="716" on="0"/>
        <pt x="320" y="716" on="1"/>
        <pt x="299" y="716" on="1"/>
        <pt x="299" y="389" on="1"/>
      </contour>
      <contour>
        <pt x="389" y="-236" on="1"/>
        <pt x="404" y="-222" on="0"/>
        <pt x="423" y="-189" on="0"/>
        <pt x="423" y="-178" on="1"/>
        <pt x="423" y="-167" on="0"/>
        <pt x="408" y="-154" on="0"/>
        <pt x="391" y="-140" on="0"/>
        <pt x="376" y="-121" on="0"/>
        <pt x="376" y="-105" on="1"/>
        <pt x="376" y="-82" on="0"/>
        <pt x="414" y="-52" on="0"/>
        <pt x="443" y="-52" on="1"/>
        <pt x="475" y="-52" on="0"/>
        <pt x="511" y="-94" on="0"/>
        <pt x="511" y="-130" on="1"/>
        <pt x="511" y="-172" on="0"/>
        <pt x="460" y="-240" on="0"/>
        <pt x="412" y="-260" on="1"/>
      </contour>
    </TTGlyph>
    <TTGlyph name="Rdotbelow" xMin="42" yMin="-260" xMax="814" yMax="770">
      <contour>
        <pt x="42" y="37" on="1"/>
        <pt x="127" y="59" on="1"/>
        <pt x="127" y="712" on="1"/>
        <pt x="42" y="733" on="1"/>
        <pt x="42" y="770" on="1"/>
        <pt x="403" y="770" on="1"/>
        <pt x="462" y="770" on="0"/>
        <pt x="560" y="741" on="0"/>
        <pt x="631" y="686" on="0"/>
        <pt x="670" y="604" on="0"/>
        <pt x="670" y="551" on="1"/>
        <pt x="670" y="478" on="0"/>
        <pt x="597" y="380" on="0"/>
        <pt x="530" y="356" on="1"/>
        <pt x="723" y="56" on="1"/>
        <pt x="814" y="37" on="1"/>
        <pt x="814" y="0" on="1"/>
        <pt x="541" y="0" on="1"/>
        <pt x="340" y="335" on="1"/>
        <pt x="299" y="335" on="1"/>
        <pt x="299" y="59" on="1"/>
        <pt x="413" y="37" on="1"/>
        <pt x="413" y="0" on="1"/>
        <pt x="42" y="0" on="1"/>
      </contour>
      <contour>
        <pt x="313" y="389" on="1"/>
        <pt x="368" y="389" on="0"/>
        <pt x="434" y="418" on="0"/>
        <pt x="455" y="443" on="1"/>
        <pt x="477" y="468" on="0"/>
        <pt x="495" y="529" on="0"/>
        <pt x="495" y="561" on="1"/>
        <pt x="495" y="615" on="0"/>
        <pt x="446" y="687" on="0"/>
        <pt x="408" y="703" on="1"/>
        <pt x="391" y="710" on="0"/>
        <pt x="351" y="716" on="0"/>
        <pt x="320" y="716" on="1"/>
        <pt x="299" y="716" on="1"/>
        <pt x="299" y="389" on="1"/>
      </contour>
      <contour>
        <pt x="353" y="-178" on="1"/>
        <pt x="353" y="-145" on="0"/>
        <pt x="398" y="-95" on="0"/>
        <pt x="439" y="-95" on="1"/>
        <pt x="481" y="-95" on="0"/>
        <pt x="528" y="-145" on="0"/>
        <pt x="528" y="-178" on="1"/>
        <pt x="528" y="-209" on="0"/>
        <pt x="483" y="-260" on="0"/>
        <pt x="439" y="-260" on="1"/>
        <pt x="397" y="-260" on="0"/>
        <pt x="353" y="-209" on="0"/>
      </contour>
    </TTGlyph>
    <TTGlyph name="S" xMin="53" yMin="-9" xMax="596" yMax="780">
      <contour>
        <pt x="326" y="780" on="1"/>
        <pt x="428" y="780" on="0"/>
        <pt x="502" y="718" on="1"/>
        <pt x="526" y="771" on="1"/>
        <pt x="559" y="771" on="1"/>
        <pt x="569" y="550" on="1"/>
        <pt x="525" y="550" on="1"/>
        <pt x="475" y="721" on="0"/>
        <pt x="332" y="721" on="1"/>
        <pt x="280" y="721" on="0"/>
        <pt x="222" y="671" on="0"/>
        <pt x="222" y="626" on="1"/>
        <pt x="222" y="588" on="0"/>
        <pt x="277" y="537" on="0"/>
        <pt x="361" y="492" on="0"/>
        <pt x="457" y="446" on="0"/>
        <pt x="541" y="380" on="0"/>
        <pt x="596" y="287" on="0"/>
        <pt x="596" y="218" on="1"/>
        <pt x="596" y="170" on="0"/>
        <pt x="554" y="87" on="0"/>
        <pt x="481" y="26" on="0"/>
        <pt x="382" y="-9" on="0"/>
        <pt x="324" y="-9" on="1"/>
        <pt x="277" y="-9" on="0"/>
        <pt x="190" y="15" on="0"/>
        <pt x="139" y="41" on="1"/>
        <pt x="104" y="0" on="1"/>
        <pt x="73" y="0" on="1"/>
        <pt x="53" y="256" on="1"/>
        <pt x="95" y="263" on="1"/>
        <pt x="111" y="207" on="0"/>
        <pt x="153" y="126" on="0"/>
        <pt x="208" y="74" on="0"/>
        <pt x="278" y="49" on="0"/>
        <pt x="322" y="49" on="1"/>
        <pt x="386" y="49" on="0"/>
        <pt x="461" y="109" on="0"/>
        <pt x="461" y="163" on="1"/>
        <pt x="461" y="200" on="0"/>
        <pt x="403" y="251" on="0"/>
        <pt x="316" y="296" on="0"/>
        <pt x="215" y="343" on="0"/>
        <pt x="128" y="409" on="0"/>
        <pt x="70" y="501" on="0"/>
        <pt x="70" y="569" on="1"/>
        <pt x="70" y="615" on="0"/>
        <pt x="109" y="692" on="0"/>
        <pt x="178" y="748" on="0"/>
        <pt x="271" y="780" on="0"/>
      </contour>
    </TTGlyph>
    <TTGlyph name="Sacute" xMin="53" yMin="-9" xMax="596" yMax="963">
      <contour>
        <pt x="326" y="780" on="1"/>
        <pt x="428" y="780" on="0"/>
        <pt x="502" y="718" on="1"/>
        <pt x="526" y="771" on="1"/>
        <pt x="559" y="771" on="1"/>
        <pt x="569" y="550" on="1"/>
        <pt x="525" y="550" on="1"/>
        <pt x="475" y="721" on="0"/>
        <pt x="332" y="721" on="1"/>
        <pt x="280" y="721" on="0"/>
        <pt x="222" y="671" on="0"/>
        <pt x="222" y="626" on="1"/>
        <pt x="222" y="588" on="0"/>
        <pt x="277" y="537" on="0"/>
        <pt x="361" y="492" on="0"/>
        <pt x="457" y="446" on="0"/>
        <pt x="541" y="380" on="0"/>
        <pt x="596" y="287" on="0"/>
        <pt x="596" y="218" on="1"/>
        <pt x="596" y="170" on="0"/>
        <pt x="554" y="87" on="0"/>
        <pt x="481" y="26" on="0"/>
        <pt x="382" y="-9" on="0"/>
        <pt x="324" y="-9" on="1"/>
        <pt x="277" y="-9" on="0"/>
        <pt x="190" y="15" on="0"/>
        <pt x="139" y="41" on="1"/>
        <pt x="104" y="0" on="1"/>
        <pt x="73" y="0" on="1"/>
        <pt x="53" y="256" on="1"/>
        <pt x="95" y="263" on="1"/>
        <pt x="111" y="207" on="0"/>
        <pt x="153" y="126" on="0"/>
        <pt x="208" y="74" on="0"/>
        <pt x="278" y="49" on="0"/>
        <pt x="322" y="49" on="1"/>
        <pt x="386" y="49" on="0"/>
        <pt x="461" y="109" on="0"/>
        <pt x="461" y="163" on="1"/>
        <pt x="461" y="200" on="0"/>
        <pt x="403" y="251" on="0"/>
        <pt x="316" y="296" on="0"/>
        <pt x="215" y="343" on="0"/>
        <pt x="128" y="409" on="0"/>
        <pt x="70" y="501" on="0"/>
        <pt x="70" y="569" on="1"/>
        <pt x="70" y="615" on="0"/>
        <pt x="109" y="692" on="0"/>
        <pt x="178" y="748" on="0"/>
        <pt x="271" y="780" on="0"/>
      </contour>
      <contour>
        <pt x="213" y="845" on="1"/>
        <pt x="338" y="939" on="1"/>
        <pt x="355" y="952" on="0"/>
        <pt x="386" y="963" on="0"/>
        <pt x="399" y="963" on="1"/>
        <pt x="425" y="963" on="0"/>
        <pt x="454" y="930" on="0"/>
        <pt x="454" y="909" on="1"/>
        <pt x="454" y="890" on="0"/>
        <pt x="427" y="855" on="0"/>
        <pt x="395" y="849" on="1"/>
        <pt x="230" y="817" on="1"/>
      </contour>
    </TTGlyph>
    <TTGlyph name="Scaron" xMin="53" yMin="-9" xMax="596" yMax="970">
      <contour>
        <pt x="326" y="780" on="1"/>
        <pt x="428" y="780" on="0"/>
        <pt x="502" y="718" on="1"/>
        <pt x="526" y="771" on="1"/>
        <pt x="559" y="771" on="1"/>
        <pt x="569" y="550" on="1"/>
        <pt x="525" y="550" on="1"/>
        <pt x="475" y="721" on="0"/>
        <pt x="332" y="721" on="1"/>
        <pt x="280" y="721" on="0"/>
        <pt x="222" y="671" on="0"/>
        <pt x="222" y="626" on="1"/>
        <pt x="222" y="588" on="0"/>
        <pt x="277" y="537" on="0"/>
        <pt x="361" y="492" on="0"/>
        <pt x="457" y="446" on="0"/>
        <pt x="541" y="380" on="0"/>
        <pt x="596" y="287" on="0"/>
        <pt x="596" y="218" on="1"/>
        <pt x="596" y="170" on="0"/>
        <pt x="554" y="87" on="0"/>
        <pt x="481" y="26" on="0"/>
        <pt x="382" y="-9" on="0"/>
        <pt x="324" y="-9" on="1"/>
        <pt x="277" y="-9" on="0"/>
        <pt x="190" y="15" on="0"/>
        <pt x="139" y="41" on="1"/>
        <pt x="104" y="0" on="1"/>
        <pt x="73" y="0" on="1"/>
        <pt x="53" y="256" on="1"/>
        <pt x="95" y="263" on="1"/>
        <pt x="111" y="207" on="0"/>
        <pt x="153" y="126" on="0"/>
        <pt x="208" y="74" on="0"/>
        <pt x="278" y="49" on="0"/>
        <pt x="322" y="49" on="1"/>
        <pt x="386" y="49" on="0"/>
        <pt x="461" y="109" on="0"/>
        <pt x="461" y="163" on="1"/>
        <pt x="461" y="200" on="0"/>
        <pt x="403" y="251" on="0"/>
        <pt x="316" y="296" on="0"/>
        <pt x="215" y="343" on="0"/>
        <pt x="128" y="409" on="0"/>
        <pt x="70" y="501" on="0"/>
        <pt x="70" y="569" on="1"/>
        <pt x="70" y="615" on="0"/>
        <pt x="109" y="692" on="0"/>
        <pt x="178" y="748" on="0"/>
        <pt x="271" y="780" on="0"/>
      </contour>
      <contour>
        <pt x="337" y="831" on="1"/>
        <pt x="317" y="831" on="0"/>
        <pt x="285" y="847" on="0"/>
        <pt x="265" y="864" on="1"/>
        <pt x="163" y="948" on="1"/>
        <pt x="179" y="970" on="1"/>
        <pt x="336" y="929" on="1"/>
        <pt x="493" y="970" on="1"/>
        <pt x="509" y="948" on="1"/>
        <pt x="405" y="864" on="1"/>
        <pt x="385" y="847" on="0"/>
        <pt x="354" y="831" on="0"/>
      </contour>
    </TTGlyph>
    <TTGlyph name="Schwa" xMin="33" yMin="-10" xMax="746" yMax="781">
      <contour>
        <pt x="44" y="324" on="1"/>
        <pt x="550" y="324" on="1"/>
        <pt x="551" y="332" on="0"/>
        <pt x="551" y="350" on="0"/>
        <pt x="551" y="360" on="1"/>
        <pt x="551" y="676" on="0"/>
        <pt x="337" y="676" on="1"/>
        <pt x="270" y="676" on="0"/>
        <pt x="146" y="621" on="0"/>
        <pt x="108" y="575" on="1"/>
        <pt x="90" y="553" on="1"/>
        <pt x="60" y="573" on="1"/>
        <pt x="68" y="593" on="1"/>
        <pt x="84" y="635" on="0"/>
        <pt x="149" y="704" on="0"/>
        <pt x="236" y="753" on="0"/>
        <pt x="339" y="781" on="0"/>
        <pt x="395" y="781" on="1"/>
        <pt x="473" y="781" on="0"/>
        <pt x="603" y="725" on="0"/>
        <pt x="695" y="624" on="0"/>
        <pt x="746" y="482" on="0"/>
        <pt x="746" y="396" on="1"/>
        <pt x="746" y="305" on="0"/>
        <pt x="689" y="155" on="0"/>
        <pt x="585" y="49" on="0"/>
        <pt x="438" y="-10" on="0"/>
        <pt x="349" y="-10" on="1"/>
        <pt x="197" y="-10" on="0"/>
        <pt x="35" y="157" on="0"/>
        <pt x="33" y="315" on="1"/>
      </contour>
      <contour>
        <pt x="359" y="50" on="1"/>
        <pt x="519" y="50" on="0"/>
        <pt x="546" y="270" on="1"/>
        <pt x="225" y="259" on="1"/>
        <pt x="223" y="247" on="0"/>
        <pt x="221" y="218" on="0"/>
        <pt x="221" y="205" on="1"/>
        <pt x="221" y="130" on="0"/>
        <pt x="292" y="50" on="0"/>
      </contour>
    </TTGlyph>
    <TTGlyph name="Scircumflex" xMin="53" yMin="-9" xMax="596" yMax="960">
      <contour>
        <pt x="326" y="780" on="1"/>
        <pt x="428" y="780" on="0"/>
        <pt x="502" y="718" on="1"/>
        <pt x="526" y="771" on="1"/>
        <pt x="559" y="771" on="1"/>
        <pt x="569" y="550" on="1"/>
        <pt x="525" y="550" on="1"/>
        <pt x="475" y="721" on="0"/>
        <pt x="332" y="721" on="1"/>
        <pt x="280" y="721" on="0"/>
        <pt x="222" y="671" on="0"/>
        <pt x="222" y="626" on="1"/>
        <pt x="222" y="588" on="0"/>
        <pt x="277" y="537" on="0"/>
        <pt x="361" y="492" on="0"/>
        <pt x="457" y="446" on="0"/>
        <pt x="541" y="380" on="0"/>
        <pt x="596" y="287" on="0"/>
        <pt x="596" y="218" on="1"/>
        <pt x="596" y="170" on="0"/>
        <pt x="554" y="87" on="0"/>
        <pt x="481" y="26" on="0"/>
        <pt x="382" y="-9" on="0"/>
        <pt x="324" y="-9" on="1"/>
        <pt x="277" y="-9" on="0"/>
        <pt x="190" y="15" on="0"/>
        <pt x="139" y="41" on="1"/>
        <pt x="104" y="0" on="1"/>
        <pt x="73" y="0" on="1"/>
        <pt x="53" y="256" on="1"/>
        <pt x="95" y="263" on="1"/>
        <pt x="111" y="207" on="0"/>
        <pt x="153" y="126" on="0"/>
        <pt x="208" y="74" on="0"/>
        <pt x="278" y="49" on="0"/>
        <pt x="322" y="49" on="1"/>
        <pt x="386" y="49" on="0"/>
        <pt x="461" y="109" on="0"/>
        <pt x="461" y="163" on="1"/>
        <pt x="461" y="200" on="0"/>
        <pt x="403" y="251" on="0"/>
        <pt x="316" y="296" on="0"/>
        <pt x="215" y="343" on="0"/>
        <pt x="128" y="409" on="0"/>
        <pt x="70" y="501" on="0"/>
        <pt x="70" y="569" on="1"/>
        <pt x="70" y="615" on="0"/>
        <pt x="109" y="692" on="0"/>
        <pt x="178" y="748" on="0"/>
        <pt x="271" y="780" on="0"/>
      </contour>
      <contour>
        <pt x="337" y="960" on="1"/>
        <pt x="354" y="960" on="0"/>
        <pt x="385" y="944" on="0"/>
        <pt x="405" y="927" on="1"/>
        <pt x="509" y="843" on="1"/>
        <pt x="493" y="821" on="1"/>
        <pt x="336" y="862" on="1"/>
        <pt x="179" y="821" on="1"/>
        <pt x="163" y="843" on="1"/>
        <pt x="265" y="927" on="1"/>
        <pt x="285" y="944" on="0"/>
        <pt x="317" y="960" on="0"/>
      </contour>
    </TTGlyph>
    <TTGlyph name="Sdotbelow" xMin="53" yMin="-260" xMax="596" yMax="780">
      <contour>
        <pt x="326" y="780" on="1"/>
        <pt x="428" y="780" on="0"/>
        <pt x="502" y="718" on="1"/>
        <pt x="526" y="771" on="1"/>
        <pt x="559" y="771" on="1"/>
        <pt x="569" y="550" on="1"/>
        <pt x="525" y="550" on="1"/>
        <pt x="475" y="721" on="0"/>
        <pt x="332" y="721" on="1"/>
        <pt x="280" y="721" on="0"/>
        <pt x="222" y="671" on="0"/>
        <pt x="222" y="626" on="1"/>
        <pt x="222" y="588" on="0"/>
        <pt x="277" y="537" on="0"/>
        <pt x="361" y="492" on="0"/>
        <pt x="457" y="446" on="0"/>
        <pt x="541" y="380" on="0"/>
        <pt x="596" y="287" on="0"/>
        <pt x="596" y="218" on="1"/>
        <pt x="596" y="170" on="0"/>
        <pt x="554" y="87" on="0"/>
        <pt x="481" y="26" on="0"/>
        <pt x="382" y="-9" on="0"/>
        <pt x="324" y="-9" on="1"/>
        <pt x="277" y="-9" on="0"/>
        <pt x="190" y="15" on="0"/>
        <pt x="139" y="41" on="1"/>
        <pt x="104" y="0" on="1"/>
        <pt x="73" y="0" on="1"/>
        <pt x="53" y="256" on="1"/>
        <pt x="95" y="263" on="1"/>
        <pt x="111" y="207" on="0"/>
        <pt x="153" y="126" on="0"/>
        <pt x="208" y="74" on="0"/>
        <pt x="278" y="49" on="0"/>
        <pt x="322" y="49" on="1"/>
        <pt x="386" y="49" on="0"/>
        <pt x="461" y="109" on="0"/>
        <pt x="461" y="163" on="1"/>
        <pt x="461" y="200" on="0"/>
        <pt x="403" y="251" on="0"/>
        <pt x="316" y="296" on="0"/>
        <pt x="215" y="343" on="0"/>
        <pt x="128" y="409" on="0"/>
        <pt x="70" y="501" on="0"/>
        <pt x="70" y="569" on="1"/>
        <pt x="70" y="615" on="0"/>
        <pt x="109" y="692" on="0"/>
        <pt x="178" y="748" on="0"/>
        <pt x="271" y="780" on="0"/>
      </contour>
      <contour>
        <pt x="238" y="-178" on="1"/>
        <pt x="238" y="-145" on="0"/>
        <pt x="283" y="-95" on="0"/>
        <pt x="324" y="-95" on="1"/>
        <pt x="366" y="-95" on="0"/>
        <pt x="413" y="-145" on="0"/>
        <pt x="413" y="-178" on="1"/>
        <pt x="413" y="-209" on="0"/>
        <pt x="368" y="-260" on="0"/>
        <pt x="324" y="-260" on="1"/>
        <pt x="282" y="-260" on="0"/>
        <pt x="238" y="-209" on="0"/>
      </contour>
    </TTGlyph>
    <TTGlyph name="T" xMin="11" yMin="0" xMax="767" yMax="770">
      <contour>
        <pt x="185" y="37" on="1"/>
        <pt x="305" y="59" on="1"/>
        <pt x="305" y="715" on="1"/>
        <pt x="142" y="715" on="1"/>
        <pt x="110" y="673" on="0"/>
        <pt x="65" y="582" on="0"/>
        <pt x="50" y="540" on="1"/>
        <pt x="11" y="540" on="1"/>
        <pt x="48" y="770" on="1"/>
        <pt x="730" y="770" on="1"/>
        <pt x="767" y="540" on="1"/>
        <pt x="728" y="540" on="1"/>
        <pt x="713" y="582" on="0"/>
        <pt x="671" y="673" on="0"/>
        <pt x="639" y="715" on="1"/>
        <pt x="476" y="715" on="1"/>
        <pt x="476" y="59" on="1"/>
        <pt x="595" y="37" on="1"/>
        <pt x="595" y="0" on="1"/>
        <pt x="185" y="0" on="1"/>
      </contour>
    </TTGlyph>
    <TTGlyph name="Tbar" xMin="12" yMin="0" xMax="768" yMax="770">
      <contour>
        <pt x="186" y="37" on="1"/>
        <pt x="306" y="59" on="1"/>
        <pt x="306" y="367" on="1"/>
        <pt x="147" y="367" on="1"/>
        <pt x="147" y="452" on="1"/>
        <pt x="306" y="452" on="1"/>
        <pt x="306" y="715" on="1"/>
        <pt x="143" y="715" on="1"/>
        <pt x="111" y="673" on="0"/>
        <pt x="66" y="582" on="0"/>
        <pt x="51" y="540" on="1"/>
        <pt x="12" y="540" on="1"/>
        <pt x="49" y="770" on="1"/>
        <pt x="731" y="770" on="1"/>
        <pt x="768" y="540" on="1"/>
        <pt x="729" y="540" on="1"/>
        <pt x="714" y="582" on="0"/>
        <pt x="672" y="673" on="0"/>
        <pt x="640" y="715" on="1"/>
        <pt x="477" y="715" on="1"/>
        <pt x="477" y="452" on="1"/>
        <pt x="637" y="452" on="1"/>
        <pt x="637" y="367" on="1"/>
        <pt x="477" y="367" on="1"/>
        <pt x="477" y="59" on="1"/>
        <pt x="596" y="37" on="1"/>
        <pt x="596" y="0" on="1"/>
        <pt x="186" y="0" on="1"/>
      </contour>
    </TTGlyph>
    <TTGlyph name="Tcaron" xMin="11" yMin="0" xMax="767" yMax="960">
      <contour>
        <pt x="185" y="37" on="1"/>
        <pt x="305" y="59" on="1"/>
        <pt x="305" y="715" on="1"/>
        <pt x="142" y="715" on="1"/>
        <pt x="110" y="673" on="0"/>
        <pt x="65" y="582" on="0"/>
        <pt x="50" y="540" on="1"/>
        <pt x="11" y="540" on="1"/>
        <pt x="48" y="770" on="1"/>
        <pt x="730" y="770" on="1"/>
        <pt x="767" y="540" on="1"/>
        <pt x="728" y="540" on="1"/>
        <pt x="713" y="582" on="0"/>
        <pt x="671" y="673" on="0"/>
        <pt x="639" y="715" on="1"/>
        <pt x="476" y="715" on="1"/>
        <pt x="476" y="59" on="1"/>
        <pt x="595" y="37" on="1"/>
        <pt x="595" y="0" on="1"/>
        <pt x="185" y="0" on="1"/>
      </contour>
      <contour>
        <pt x="391" y="821" on="1"/>
        <pt x="371" y="821" on="0"/>
        <pt x="339" y="837" on="0"/>
        <pt x="319" y="854" on="1"/>
        <pt x="217" y="938" on="1"/>
        <pt x="233" y="960" on="1"/>
        <pt x="390" y="919" on="1"/>
        <pt x="547" y="960" on="1"/>
        <pt x="563" y="938" on="1"/>
        <pt x="459" y="854" on="1"/>
        <pt x="439" y="837" on="0"/>
        <pt x="408" y="821" on="0"/>
      </contour>
    </TTGlyph>
    <TTGlyph name="Tdotbelow" xMin="11" yMin="-260" xMax="767" yMax="770">
      <contour>
        <pt x="185" y="37" on="1"/>
        <pt x="305" y="59" on="1"/>
        <pt x="305" y="715" on="1"/>
        <pt x="142" y="715" on="1"/>
        <pt x="110" y="673" on="0"/>
        <pt x="65" y="582" on="0"/>
        <pt x="50" y="540" on="1"/>
        <pt x="11" y="540" on="1"/>
        <pt x="48" y="770" on="1"/>
        <pt x="730" y="770" on="1"/>
        <pt x="767" y="540" on="1"/>
        <pt x="728" y="540" on="1"/>
        <pt x="713" y="582" on="0"/>
        <pt x="671" y="673" on="0"/>
        <pt x="639" y="715" on="1"/>
        <pt x="476" y="715" on="1"/>
        <pt x="476" y="59" on="1"/>
        <pt x="595" y="37" on="1"/>
        <pt x="595" y="0" on="1"/>
        <pt x="185" y="0" on="1"/>
      </contour>
      <contour>
        <pt x="306" y="-178" on="1"/>
        <pt x="306" y="-145" on="0"/>
        <pt x="351" y="-95" on="0"/>
        <pt x="392" y="-95" on="1"/>
        <pt x="434" y="-95" on="0"/>
        <pt x="481" y="-145" on="0"/>
        <pt x="481" y="-178" on="1"/>
        <pt x="481" y="-209" on="0"/>
        <pt x="436" y="-260" on="0"/>
        <pt x="392" y="-260" on="1"/>
        <pt x="350" y="-260" on="0"/>
        <pt x="306" y="-209" on="0"/>
      </contour>
    </TTGlyph>
</ttFont>
